<?xml version="1.0" encoding="UTF-8" standalone="no"?>
<!-- Created with Inkscape (http://www.inkscape.org/) -->

<svg
   xmlns:dc="http://purl.org/dc/elements/1.1/"
   xmlns:cc="http://creativecommons.org/ns#"
   xmlns:rdf="http://www.w3.org/1999/02/22-rdf-syntax-ns#"
   xmlns:svg="http://www.w3.org/2000/svg"
   xmlns="http://www.w3.org/2000/svg"
   xmlns:xlink="http://www.w3.org/1999/xlink"
   version="1.1"
   width="229.99998"
   height="59.075329"
   id="svg2">
  <defs
     id="defs4">
    <linearGradient
       id="linearGradient5374">
      <stop
         id="stop5376"
         style="stop-color:#5599ff;stop-opacity:1"
         offset="0" />
      <stop
         id="stop5378"
         style="stop-color:#5599ff;stop-opacity:1"
         offset="0.91189343" />
      <stop
         id="stop5380"
         style="stop-color:#416dff;stop-opacity:1"
         offset="1" />
    </linearGradient>
    <linearGradient
       id="linearGradient5358">
      <stop
         id="stop5360"
         style="stop-color:#5599ff;stop-opacity:1"
         offset="0" />
      <stop
         id="stop5366"
         style="stop-color:#5599ff;stop-opacity:1"
         offset="0.80000001" />
      <stop
         id="stop5362"
         style="stop-color:#41efff;stop-opacity:1"
         offset="1" />
    </linearGradient>
    <linearGradient
       id="linearGradient4938">
      <stop
         id="stop4940"
         style="stop-color:#ffffff;stop-opacity:1"
         offset="0" />
      <stop
         id="stop4942"
         style="stop-color:#ffe04b;stop-opacity:1"
         offset="1" />
    </linearGradient>
    <linearGradient
       id="linearGradient4932">
      <stop
         id="stop4934"
         style="stop-color:#fffb88;stop-opacity:1"
         offset="0" />
      <stop
         id="stop4936"
         style="stop-color:#f5c800;stop-opacity:1"
         offset="1" />
    </linearGradient>
    <linearGradient
       id="linearGradient4548">
      <stop
         id="stop4550"
         style="stop-color:#fffb88;stop-opacity:1"
         offset="0" />
      <stop
         id="stop4552"
         style="stop-color:#ffdb3a;stop-opacity:1"
         offset="1" />
    </linearGradient>
    <linearGradient
       id="linearGradient4540">
      <stop
         id="stop4542"
         style="stop-color:#fffe9c;stop-opacity:1"
         offset="0" />
      <stop
         id="stop4544"
         style="stop-color:#ffda2f;stop-opacity:1"
         offset="1" />
    </linearGradient>
    <linearGradient
       id="linearGradient4314">
      <stop
         id="stop4316"
         style="stop-color:#ffffff;stop-opacity:1"
         offset="0" />
      <stop
         id="stop4318"
         style="stop-color:#ffffff;stop-opacity:0"
         offset="1" />
    </linearGradient>
    <linearGradient
       id="linearGradient4296">
      <stop
         id="stop4298"
         style="stop-color:#d5d5d5;stop-opacity:1"
         offset="0" />
      <stop
         id="stop4300"
         style="stop-color:#999999;stop-opacity:1"
         offset="1" />
    </linearGradient>
    <linearGradient
       id="linearGradient3882">
      <stop
         id="stop3884"
         style="stop-color:#1a1a1a;stop-opacity:1"
         offset="0" />
      <stop
         id="stop3886"
         style="stop-color:#333333;stop-opacity:1"
         offset="1" />
    </linearGradient>
    <filter
       color-interpolation-filters="sRGB"
       id="filter3898">
      <feGaussianBlur
         id="feGaussianBlur3900"
         stdDeviation="2.4574829" />
    </filter>
    <radialGradient
       cx="2908.1287"
       cy="4391.582"
       r="280.50607"
       fx="2908.1287"
       fy="4391.582"
       id="radialGradient4304"
       xlink:href="#linearGradient4296"
       gradientUnits="userSpaceOnUse" />
    <radialGradient
       cx="3673.4446"
       cy="4867.5044"
       r="80.964348"
       fx="3673.4446"
       fy="4867.5044"
       id="radialGradient4320"
       xlink:href="#linearGradient4314"
       gradientUnits="userSpaceOnUse"
       gradientTransform="matrix(1,0,0,1.3271106,0,-1592.2125)" />
    <radialGradient
       cx="3676.9507"
       cy="4802.0479"
       r="80.964348"
       fx="3676.9507"
       fy="4802.0479"
       id="radialGradient4322"
       xlink:href="#linearGradient4314"
       gradientUnits="userSpaceOnUse"
       gradientTransform="matrix(-8.6960027,-2.3907611e-6,2.0179805e-6,-7.340074,35645.445,39987.838)" />
    <radialGradient
       cx="3673.4446"
       cy="4867.5044"
       r="80.964348"
       fx="3673.4446"
       fy="4867.5044"
       id="radialGradient4446"
       xlink:href="#linearGradient4314"
       gradientUnits="userSpaceOnUse"
       gradientTransform="matrix(1,0,0,1.3271106,0,-1592.2125)" />
    <radialGradient
       cx="3673.4446"
       cy="4867.5044"
       r="80.964348"
       fx="3673.4446"
       fy="4867.5044"
       id="radialGradient4538"
       xlink:href="#linearGradient4314"
       gradientUnits="userSpaceOnUse"
       gradientTransform="matrix(1,0,0,1.3271106,0,-1592.2125)" />
    <radialGradient
       cx="591.6795"
       cy="935.63947"
       r="91.086601"
       fx="591.6795"
       fy="935.63947"
       id="radialGradient4807"
       xlink:href="#linearGradient4296"
       gradientUnits="userSpaceOnUse"
       gradientTransform="matrix(1.2955528,-0.00683281,0.00989615,1.8763835,-184.12683,-815.43206)" />
    <radialGradient
       cx="591.6795"
       cy="935.63947"
       r="91.086601"
       fx="591.6795"
       fy="935.63947"
       id="radialGradient4809"
       xlink:href="#linearGradient4296"
       gradientUnits="userSpaceOnUse"
       gradientTransform="matrix(1.2955528,-0.00683281,0.00989615,1.8763835,-184.12683,-815.43206)" />
    <radialGradient
       cx="591.6795"
       cy="935.63947"
       r="91.086601"
       fx="591.6795"
       fy="935.63947"
       id="radialGradient4811"
       xlink:href="#linearGradient4296"
       gradientUnits="userSpaceOnUse"
       gradientTransform="matrix(1.2955528,-0.00683281,0.00989615,1.8763835,-184.12683,-815.43206)" />
    <radialGradient
       cx="591.66632"
       cy="933.9494"
       r="91.086601"
       fx="591.66632"
       fy="933.9494"
       id="radialGradient4813"
       xlink:href="#linearGradient4540"
       gradientUnits="userSpaceOnUse"
       gradientTransform="matrix(1.2955897,1.3023396e-4,-1.8860859e-4,1.8764096,-174.71298,-819.57636)" />
    <radialGradient
       cx="579.83356"
       cy="934.47162"
       r="91.086601"
       fx="579.83356"
       fy="934.47162"
       id="radialGradient4815"
       xlink:href="#linearGradient4932"
       gradientUnits="userSpaceOnUse"
       gradientTransform="matrix(1.5245231,-0.00804041,0.00989616,1.8763835,-316.8915,-814.73185)" />
    <radialGradient
       cx="2908.1287"
       cy="4391.582"
       r="280.50607"
       fx="2908.1287"
       fy="4391.582"
       id="radialGradient4817"
       xlink:href="#linearGradient4296"
       gradientUnits="userSpaceOnUse" />
    <radialGradient
       cx="3676.1523"
       cy="4800.293"
       r="80.964348"
       fx="3676.1523"
       fy="4800.293"
       id="radialGradient4926"
       xlink:href="#linearGradient4938"
       gradientUnits="userSpaceOnUse"
       gradientTransform="matrix(-8.6960027,0,0,-4.0117113,35645.455,24004.873)" />
    <radialGradient
       cx="3676.9507"
       cy="4802.0479"
       r="80.964348"
       fx="3676.9507"
       fy="4802.0479"
       id="radialGradient4928"
       xlink:href="#linearGradient4314"
       gradientUnits="userSpaceOnUse"
       gradientTransform="matrix(-8.6960027,-2.3907611e-6,2.0179805e-6,-7.340074,35645.445,39987.838)" />
    <radialGradient
       cx="3673.4446"
       cy="4867.5044"
       r="80.964348"
       fx="3673.4446"
       fy="4867.5044"
       id="radialGradient4930"
       xlink:href="#linearGradient4314"
       gradientUnits="userSpaceOnUse"
       gradientTransform="matrix(1,0,0,1.3271106,0,-1592.2125)" />
    <radialGradient
       cx="3673.4446"
       cy="4867.5044"
       r="80.964348"
       fx="3673.4446"
       fy="4867.5044"
       id="radialGradient5030"
       xlink:href="#linearGradient4314"
       gradientUnits="userSpaceOnUse"
       gradientTransform="matrix(1,0,0,1.3271106,0,-1592.2125)" />
    <radialGradient
       cx="3673.4446"
       cy="4867.5044"
       r="80.964348"
       fx="3673.4446"
       fy="4867.5044"
       id="radialGradient5118"
       xlink:href="#linearGradient4314"
       gradientUnits="userSpaceOnUse"
       gradientTransform="matrix(1,0,0,1.3271106,0,-1592.2125)" />
    <radialGradient
       cx="3673.4446"
       cy="4867.5044"
       r="80.964348"
       fx="3673.4446"
       fy="4867.5044"
       id="radialGradient3513"
       xlink:href="#linearGradient4314"
       gradientUnits="userSpaceOnUse"
       gradientTransform="matrix(1,0,0,1.3271106,0,-1592.2125)" />
    <linearGradient
       x1="-2549.4382"
       y1="1756.4385"
       x2="-2529.3691"
       y2="1756.4385"
       id="linearGradient5206"
       xlink:href="#linearGradient3882"
       gradientUnits="userSpaceOnUse"
       gradientTransform="translate(2209.9329,-1189.9085)" />
    <linearGradient
       x1="253.65529"
       y1="538.69427"
       x2="125.89417"
       y2="538.69427"
       id="linearGradient4815"
       xlink:href="#linearGradient5374"
       gradientUnits="userSpaceOnUse" />
    <radialGradient
       cx="591.6795"
       cy="935.63947"
       r="91.086601"
       fx="591.6795"
       fy="935.63947"
       id="radialGradient4948"
       xlink:href="#linearGradient4296"
       gradientUnits="userSpaceOnUse"
       gradientTransform="matrix(1.2955528,-0.00683281,0.00989615,1.8763835,-184.12683,-815.43206)" />
    <radialGradient
       cx="591.6795"
       cy="935.63947"
       r="91.086601"
       fx="591.6795"
       fy="935.63947"
       id="radialGradient4950"
       xlink:href="#linearGradient4296"
       gradientUnits="userSpaceOnUse"
       gradientTransform="matrix(1.2955528,-0.00683281,0.00989615,1.8763835,-184.12683,-815.43206)" />
    <radialGradient
       cx="3676.9507"
       cy="4802.0479"
       r="80.964348"
       fx="3676.9507"
       fy="4802.0479"
       id="radialGradient4952"
       xlink:href="#linearGradient4314"
       gradientUnits="userSpaceOnUse"
       gradientTransform="matrix(-8.6960027,-2.3907611e-6,2.0179805e-6,-7.340074,35645.445,39987.838)" />
    <radialGradient
       cx="3673.4446"
       cy="4867.5044"
       r="80.964348"
       fx="3673.4446"
       fy="4867.5044"
       id="radialGradient4954"
       xlink:href="#linearGradient4314"
       gradientUnits="userSpaceOnUse"
       gradientTransform="matrix(1,0,0,1.3271106,0,-1592.2125)" />
    <radialGradient
       cx="591.66632"
       cy="933.9494"
       r="91.086601"
       fx="591.66632"
       fy="933.9494"
       id="radialGradient4956"
       xlink:href="#linearGradient4540"
       gradientUnits="userSpaceOnUse"
       gradientTransform="matrix(1.2955897,1.3023396e-4,-1.8860859e-4,1.8764096,-174.71298,-819.57636)" />
    <radialGradient
       cx="579.83356"
       cy="934.47162"
       r="91.086601"
       fx="579.83356"
       fy="934.47162"
       id="radialGradient4958"
       xlink:href="#linearGradient4932"
       gradientUnits="userSpaceOnUse"
       gradientTransform="matrix(1.5245231,-0.00804041,0.00989616,1.8763835,-316.8915,-814.73185)" />
    <radialGradient
       cx="3676.1523"
       cy="4800.293"
       r="80.964348"
       fx="3676.1523"
       fy="4800.293"
       id="radialGradient4960"
       xlink:href="#linearGradient4938"
       gradientUnits="userSpaceOnUse"
       gradientTransform="matrix(-8.6960027,0,0,-4.0117113,35645.455,24004.873)" />
    <radialGradient
       cx="3673.4446"
       cy="4867.5044"
       r="80.964348"
       fx="3673.4446"
       fy="4867.5044"
       id="radialGradient4962"
       xlink:href="#linearGradient4314"
       gradientUnits="userSpaceOnUse"
       gradientTransform="matrix(1,0,0,1.3271106,0,-1592.2125)" />
    <radialGradient
       cx="3673.4446"
       cy="4867.5044"
       r="80.964348"
       fx="3673.4446"
       fy="4867.5044"
       id="radialGradient3676"
       xlink:href="#linearGradient4314"
       gradientUnits="userSpaceOnUse"
       gradientTransform="matrix(1,0,0,1.3271106,0,-1592.2125)" />
    <radialGradient
       cx="3673.4446"
       cy="4867.5044"
       r="80.964348"
       fx="3673.4446"
       fy="4867.5044"
       id="radialGradient3678"
       xlink:href="#linearGradient4314"
       gradientUnits="userSpaceOnUse"
       gradientTransform="matrix(1,0,0,1.3271106,0,-1592.2125)" />
    <radialGradient
       cx="3673.4446"
       cy="4867.5044"
       r="80.964348"
       fx="3673.4446"
       fy="4867.5044"
       id="radialGradient3680"
       xlink:href="#linearGradient4314"
       gradientUnits="userSpaceOnUse"
       gradientTransform="matrix(1,0,0,1.3271106,0,-1592.2125)" />
    <radialGradient
       cx="3673.4446"
       cy="4867.5044"
       r="80.964348"
       fx="3673.4446"
       fy="4867.5044"
       id="radialGradient3682"
       xlink:href="#linearGradient4314"
       gradientUnits="userSpaceOnUse"
       gradientTransform="matrix(1,0,0,1.3271106,0,-1592.2125)" />
    <radialGradient
       cx="3673.4446"
       cy="4867.5044"
       r="80.964348"
       fx="3673.4446"
       fy="4867.5044"
       id="radialGradient3684"
       xlink:href="#linearGradient4314"
       gradientUnits="userSpaceOnUse"
       gradientTransform="matrix(1,0,0,1.3271106,0,-1592.2125)" />
    <radialGradient
       cx="3673.4446"
       cy="4867.5044"
       r="80.964348"
       fx="3673.4446"
       fy="4867.5044"
       id="radialGradient3783"
       xlink:href="#linearGradient4314"
       gradientUnits="userSpaceOnUse"
       gradientTransform="matrix(1,0,0,1.3271106,0,-1592.2125)" />
    <radialGradient
       cx="3673.4446"
       cy="4867.5044"
       r="80.964348"
       fx="3673.4446"
       fy="4867.5044"
       id="radialGradient3785"
       xlink:href="#linearGradient4314"
       gradientUnits="userSpaceOnUse"
       gradientTransform="matrix(1,0,0,1.3271106,0,-1592.2125)" />
    <radialGradient
       cx="3673.4446"
       cy="4867.5044"
       r="80.964348"
       fx="3673.4446"
       fy="4867.5044"
       id="radialGradient3787"
       xlink:href="#linearGradient4314"
       gradientUnits="userSpaceOnUse"
       gradientTransform="matrix(1,0,0,1.3271106,0,-1592.2125)" />
    <radialGradient
       cx="3673.4446"
       cy="4867.5044"
       r="80.964348"
       fx="3673.4446"
       fy="4867.5044"
       id="radialGradient3789"
       xlink:href="#linearGradient4314"
       gradientUnits="userSpaceOnUse"
       gradientTransform="matrix(1,0,0,1.3271106,0,-1592.2125)" />
    <radialGradient
       cx="3673.4446"
       cy="4867.5044"
       r="80.964348"
       fx="3673.4446"
       fy="4867.5044"
       id="radialGradient3791"
       xlink:href="#linearGradient4314"
       gradientUnits="userSpaceOnUse"
       gradientTransform="matrix(1,0,0,1.3271106,0,-1592.2125)" />
    <radialGradient
       cx="3673.4446"
       cy="4867.5044"
       r="80.964348"
       fx="3673.4446"
       fy="4867.5044"
       id="radialGradient3812"
       xlink:href="#linearGradient4314"
       gradientUnits="userSpaceOnUse"
       gradientTransform="matrix(1,0,0,1.3271106,0,-1592.2125)" />
    <radialGradient
       cx="3673.4446"
       cy="4867.5044"
       r="80.964348"
       fx="3673.4446"
       fy="4867.5044"
       id="radialGradient3814"
       xlink:href="#linearGradient4314"
       gradientUnits="userSpaceOnUse"
       gradientTransform="matrix(1,0,0,1.3271106,0,-1592.2125)" />
    <radialGradient
       cx="3673.4446"
       cy="4867.5044"
       r="80.964348"
       fx="3673.4446"
       fy="4867.5044"
       id="radialGradient3816"
       xlink:href="#linearGradient4314"
       gradientUnits="userSpaceOnUse"
       gradientTransform="matrix(1,0,0,1.3271106,0,-1592.2125)" />
    <radialGradient
       cx="3673.4446"
       cy="4867.5044"
       r="80.964348"
       fx="3673.4446"
       fy="4867.5044"
       id="radialGradient3818"
       xlink:href="#linearGradient4314"
       gradientUnits="userSpaceOnUse"
       gradientTransform="matrix(1,0,0,1.3271106,0,-1592.2125)" />
    <radialGradient
       cx="3673.4446"
       cy="4867.5044"
       r="80.964348"
       fx="3673.4446"
       fy="4867.5044"
       id="radialGradient3820"
       xlink:href="#linearGradient4314"
       gradientUnits="userSpaceOnUse"
       gradientTransform="matrix(1,0,0,1.3271106,0,-1592.2125)" />
    <radialGradient
       cx="3673.4446"
       cy="4867.5044"
       r="80.964348"
       fx="3673.4446"
       fy="4867.5044"
       id="radialGradient3940"
       xlink:href="#linearGradient4314"
       gradientUnits="userSpaceOnUse"
       gradientTransform="matrix(1,0,0,1.3271106,0,-1592.2125)" />
    <radialGradient
       cx="3673.4446"
       cy="4867.5044"
       r="80.964348"
       fx="3673.4446"
       fy="4867.5044"
       id="radialGradient3942"
       xlink:href="#linearGradient4314"
       gradientUnits="userSpaceOnUse"
       gradientTransform="matrix(1,0,0,1.3271106,0,-1592.2125)" />
    <radialGradient
       cx="3673.4446"
       cy="4867.5044"
       r="80.964348"
       fx="3673.4446"
       fy="4867.5044"
       id="radialGradient3944"
       xlink:href="#linearGradient4314"
       gradientUnits="userSpaceOnUse"
       gradientTransform="matrix(1,0,0,1.3271106,0,-1592.2125)" />
    <radialGradient
       cx="3673.4446"
       cy="4867.5044"
       r="80.964348"
       fx="3673.4446"
       fy="4867.5044"
       id="radialGradient3946"
       xlink:href="#linearGradient4314"
       gradientUnits="userSpaceOnUse"
       gradientTransform="matrix(1,0,0,1.3271106,0,-1592.2125)" />
    <radialGradient
       cx="3673.4446"
       cy="4867.5044"
       r="80.964348"
       fx="3673.4446"
       fy="4867.5044"
       id="radialGradient3948"
       xlink:href="#linearGradient4314"
       gradientUnits="userSpaceOnUse"
       gradientTransform="matrix(1,0,0,1.3271106,0,-1592.2125)" />
    <radialGradient
       cx="3673.4446"
       cy="4867.5044"
       r="80.964348"
       fx="3673.4446"
       fy="4867.5044"
       id="radialGradient3969"
       xlink:href="#linearGradient4314"
       gradientUnits="userSpaceOnUse"
       gradientTransform="matrix(1,0,0,1.3271106,0,-1592.2125)" />
    <radialGradient
       cx="3673.4446"
       cy="4867.5044"
       r="80.964348"
       fx="3673.4446"
       fy="4867.5044"
       id="radialGradient3971"
       xlink:href="#linearGradient4314"
       gradientUnits="userSpaceOnUse"
       gradientTransform="matrix(1,0,0,1.3271106,0,-1592.2125)" />
    <radialGradient
       cx="3673.4446"
       cy="4867.5044"
       r="80.964348"
       fx="3673.4446"
       fy="4867.5044"
       id="radialGradient3973"
       xlink:href="#linearGradient4314"
       gradientUnits="userSpaceOnUse"
       gradientTransform="matrix(1,0,0,1.3271106,0,-1592.2125)" />
    <radialGradient
       cx="3673.4446"
       cy="4867.5044"
       r="80.964348"
       fx="3673.4446"
       fy="4867.5044"
       id="radialGradient3975"
       xlink:href="#linearGradient4314"
       gradientUnits="userSpaceOnUse"
       gradientTransform="matrix(1,0,0,1.3271106,0,-1592.2125)" />
    <radialGradient
       cx="3673.4446"
       cy="4867.5044"
       r="80.964348"
       fx="3673.4446"
       fy="4867.5044"
       id="radialGradient3977"
       xlink:href="#linearGradient4314"
       gradientUnits="userSpaceOnUse"
       gradientTransform="matrix(1,0,0,1.3271106,0,-1592.2125)" />
  </defs>
  <metadata
     id="metadata7">
    <rdf:RDF>
      <cc:Work
         rdf:about="">
        <dc:format>image/svg+xml</dc:format>
        <dc:type
           rdf:resource="http://purl.org/dc/dcmitype/StillImage" />
        <dc:title></dc:title>
      </cc:Work>
    </rdf:RDF>
  </metadata>
  <g
     transform="translate(-80.557786,-797.68684)"
     id="layer1">
    <g
       transform="matrix(1.0036191,0,0,1.0036191,12.660485,386.94254)"
       id="g4774">
      <path
         d="m 67.65246,409.26314 229.1706,0 -27.4691,29.4311 27.4691,29.4312 -229.1706,0 z"
         id="path5278"
         style="fill:#1a1a1a;fill-opacity:1;stroke:none" />
      <g
         transform="matrix(0.38300672,0,0,0.38300672,-25.102501,384.23552)"
         id="g3353"
         style="fill:#ffffff">
        <path
           d="m 82.625,62.8125 c -2.226461,6.5e-5 -4.652506,0.545579 -7.25,1.625 -2.59753,1.04582 -5.07614,2.488452 -7.4375,4.34375 -2.361389,1.855427 -4.265714,3.95119 -5.75,6.3125 -1.450562,2.327702 -2.1875,4.672413 -2.1875,7 0,1.551811 0.327802,2.965674 0.96875,4.28125 0.674671,1.31567 1.653116,2.844604 2.96875,4.53125 1.045741,1.214465 2.13677,2.573275 3.25,4.125 1.146939,1.551797 1.718736,2.724159 1.71875,3.5 -1.4e-5,3.00235 -2.205867,5.78249 -6.625,8.3125 L 63.9375,108 c 3.27218,-1.4168 6.186207,-3.35238 8.75,-5.78125 2.597494,-2.428807 3.906228,-5.096366 3.90625,-8.03125 -2.2e-5,-2.024 -1.662847,-4.966789 -4.96875,-8.8125 -2.9686,-3.339605 -4.437514,-5.928318 -4.4375,-7.75 -1.4e-5,-1.484235 0.435411,-2.790482 1.3125,-3.9375 0.877068,-1.180626 1.994379,-2.077744 3.34375,-2.71875 1.383073,-0.674614 2.773141,-1.031185 4.15625,-1.03125 4.419119,6.5e-5 7.902463,1.445177 10.5,4.3125 2.59748,2.833707 4.370402,6.319531 5.28125,10.46875 0.944514,4.115582 1.406214,8.393395 1.40625,12.8125 -3.6e-5,3.33969 -0.136415,6.3901 -0.40625,9.15625 -0.158622,1.62567 -0.432535,2.96539 -0.8125,4.125 l -9.03125,0 -6.9375,3.875 0,1.75 12.1875,0 c -2.642813,2.7649 -6.176105,5.42105 -10.59375,8 -2.732466,1.75417 -6.926465,4.34039 -12.59375,7.78125 l 1.625,2.8125 c 5.397414,-3.71072 10.163202,-5.59375 14.3125,-5.59375 3.204691,0 8.35334,1.50016 15.4375,4.46875 5.46485,2.1927 10.23064,3.28125 14.3125,3.28125 2.52998,0 4.76709,-0.35161 6.65625,-1.09375 1.5517,-0.60722 3.8126,-1.99728 6.78125,-4.15625 2.96851,-2.15896 6.39929,-4.80272 10.3125,-7.90625 2.19262,-4.48659 3.28117,-8.73564 3.28125,-12.75 -8e-5,-2.63122 -0.46427,-4.94469 -1.375,-6.96875 -0.9109,-2.05774 -2.19087,-3.8019 -3.84375,-5.21875 -1.61931,-1.450526 -3.52363,-2.541548 -5.75,-3.25 -2.22651,-0.74211 -4.62627,-1.093707 -7.15625,-1.09375 1.38302,-0.877039 2.34015,-1.448843 2.8125,-1.71875 0.50594,-0.303566 1.21412,-0.770226 2.125,-1.34375 0.94448,-0.57343 1.65017,-1.03513 2.15625,-1.40625 0.53967,-0.371026 1.27413,-0.887778 2.21875,-1.5625 2.3613,-1.720383 6.06731,-3.574632 11.09375,-5.53125 l -0.5,-2.25 c -2.09158,0.775934 -3.89079,1.1563 -5.375,1.15625 -1.0121,5e-5 -1.83037,-0.437855 -2.4375,-1.28125 -0.60729,-0.843294 -1.04022,-1.766694 -1.34375,-2.8125 -0.26995,-1.045698 -0.54519,-2.244335 -0.78125,-3.59375 -0.70849,-3.440796 -1.22275,-5.7017 -1.59375,-6.78125 -0.33741,-1.113151 -1.10064,-2.122853 -2.28125,-3 -1.18076,-0.877017 -3.03252,-1.312428 -5.5625,-1.3125 -3.33972,7.2e-5 -6.85431,1.036049 -10.53125,3.09375 -3.64331,2.0241 -6.9402,4.473947 -9.875,7.375 -1.922881,-3.238392 -4.375201,-5.8509 -7.34375,-7.875 -2.968614,-2.057701 -6.20797,-3.093685 -9.75,-3.09375 z m 31.46875,6.03125 c 2.63118,6.5e-5 4.34657,0.815849 5.15625,2.46875 0.84329,1.619286 1.52518,4.097903 2.03125,7.4375 1.01195,5.498684 2.26315,8.441474 3.78125,8.8125 l -10.96875,5.5 c -1.78796,0.877125 -5.68292,2.31975 -11.6875,4.34375 0.0674,-0.978251 0.0937,-2.420877 0.0937,-4.34375 -4e-5,-6.915408 -0.16271,-11.30083 -0.5,-13.15625 1.01197,-3.204662 2.50965,-5.845939 4.5,-7.9375 2.02399,-2.091439 4.55764,-3.124935 7.59375,-3.125 z M 110.1875,99.1875 c 3.37333,3.6e-5 6.50756,0.679441 9.375,2.0625 2.90105,1.38312 5.15947,3.40252 6.8125,6 1.68662,2.59754 2.53118,5.59041 2.53125,9.03125 -7e-5,2.42886 -0.43301,4.74481 -1.34375,6.9375 -0.87715,2.19272 -2.21466,3.96315 -3.96875,5.3125 -1.7205,1.34936 -3.7612,2.03126 -6.15625,2.03125 -1.04581,1e-5 -2.2995,-0.16266 -3.75,-0.5 -1.41688,-0.37107 -2.80446,-0.80649 -4.1875,-1.3125 -1.38314,-0.506 -3.15358,-1.18789 -5.3125,-2.03125 -3.47464,-1.41681 -6.637624,-2.50536 -9.4375,-3.28125 -2.799948,-0.77587 -5.522559,-1.18749 -8.1875,-1.1875 l 7.5625,-5.8125 10.4375,0 7.15625,-4.25 0,-1.375 -12.125,0 c 1.23011,-3.06443 2.0636,-6.41191 2.5,-10.09375 2.26013,-1.011982 4.95645,-1.531214 8.09375,-1.53125 z"
           transform="matrix(1.3895507,0,0,1.3895507,184.94617,3.232435)"
           id="path3811"
           style="font-size:144px;font-style:normal;font-variant:normal;font-weight:bold;font-stretch:normal;line-height:125%;letter-spacing:0px;word-spacing:0px;fill:#ffffff;fill-opacity:1;stroke:none;font-family:eufm10;-inkscape-font-specification:eufm10 Bold" />
      </g>
      <path
         d="m 133.5,415.21603 0,46.95652"
         id="path5282"
         style="fill:none;stroke:#ffffff;stroke-width:1.02150786px;stroke-linecap:butt;stroke-linejoin:miter;stroke-opacity:1" />
      <g
         transform="translate(0,0.259415)"
         id="g5338">
        <g
           transform="translate(0,0.5)"
           id="text5284"
           style="font-size:78.07936859px;font-style:normal;font-weight:normal;line-height:125%;letter-spacing:0px;word-spacing:0px;fill:#ffffff;fill-opacity:1;stroke:none;font-family:Sans">
          <path
             d="m 155.35783,430.5543 6.83178,-10.04272 c -0.0455,2.73271 -0.29605,8.42587 -0.501,10.49817 l 1.45745,-0.47822 c 0.77426,-1.18418 1.04754,-1.57131 2.50498,-3.37035 4.30402,-5.28324 5.80702,-7.87932 5.80702,-10.11103 0,-0.61486 -0.0911,-0.97922 -0.34159,-1.48022 -0.31882,-0.18218 -0.38714,-0.20496 -0.91091,-0.36436 -0.63763,0.29604 -0.9109,0.45545 -1.45744,0.93367 0.61486,0.63764 0.84258,1.22973 0.84258,2.1634 0,1.00199 -0.38713,2.25449 -1.09308,3.64362 -0.88813,1.70794 -2.14063,3.41589 -4.89611,6.62683 0.0683,-1.04754 0.11386,-1.7535 0.11386,-2.00399 l 0.13664,-3.21094 c 0.0455,-1.09308 0.11386,-2.43667 0.20495,-4.00798 0.0455,-0.59209 0.0911,-1.18418 0.11386,-1.77626 l -1.32081,0.52377 c -1.04754,1.77626 -5.00997,7.65159 -6.71791,9.9744 0.25049,-1.84458 1.13863,-6.85456 1.68517,-9.58727 0.47822,-0.15941 0.75149,-0.31882 1.18417,-0.72872 -4.41788,0.0455 -4.69115,0.0455 -5.51097,0.31881 -1.95844,0.63764 -3.23371,2.20895 -3.23371,4.00798 0,0.7515 0.18218,1.38913 0.56932,2.04954 l 1.70794,-1.07031 c -0.52377,-0.79705 -0.75149,-1.45745 -0.75149,-2.23172 0,-0.93368 0.45545,-1.63963 1.29804,-1.93567 0.54654,-0.20495 1.09308,-0.2505 2.80103,-0.27327 -0.2505,1.93567 -0.77427,5.16939 -2.00399,12.38829 l 1.48022,-0.45545"
             id="path5305"
             style="font-size:22.77260399px;font-variant:normal;font-weight:bold;font-stretch:normal;fill:#ffffff;font-family:URW Chancery L;-inkscape-font-specification:URW Chancery L Bold Italic" />
          <path
             d="m 176.60146,427.50277 c -1.70794,1.48022 -2.80103,2.11786 -3.66639,2.11786 -0.56931,0 -1.04754,-0.38714 -1.20694,-0.97923 -0.0911,-0.36436 -0.11387,-0.61486 -0.11387,-1.27526 1.02477,-0.63764 1.70795,-1.11586 3.05153,-2.11785 1.22972,-0.93368 1.70795,-1.68518 1.70795,-2.70994 0,-0.79705 -0.501,-1.27527 -1.29804,-1.27527 -0.501,0 -0.86536,0.11386 -1.38913,0.40991 -0.86536,0.50099 -1.63963,1.11585 -2.11785,1.6624 -0.86536,1.04754 -1.63963,3.55252 -1.63963,5.3971 0,1.34359 0.70595,2.18617 1.86735,2.18617 1.34359,0 3.00599,-0.95645 4.80502,-2.75548 l 0,-0.66041 m -4.91888,-0.95645 c 0.38714,-2.43666 1.43468,-4.32679 2.4139,-4.32679 0.38713,0 0.63763,0.38713 0.63763,0.93368 0,1.13862 -0.61486,1.82181 -3.05153,3.39311"
             id="path5307"
             style="font-size:22.77260399px;font-variant:normal;font-weight:bold;font-stretch:normal;fill:#ffffff;font-family:URW Chancery L;-inkscape-font-specification:URW Chancery L Bold Italic" />
          <path
             d="m 181.69221,428.73249 c -0.0228,0.20496 -0.0455,0.38714 -0.0455,0.52377 0,0.97922 0.68318,1.6624 1.68518,1.6624 0.70595,0 1.68517,-0.29604 2.41389,-0.70595 1.34358,-0.77427 2.1634,-1.93567 2.1634,-3.0743 0,-0.84258 -0.15941,-1.02477 -1.43468,-1.82181 -0.77426,-0.50099 -1.09308,-0.93367 -1.09308,-1.52576 0,-0.77427 0.66041,-1.45745 1.43467,-1.45745 0.52377,0 0.91091,0.2505 1.41191,0.88813 0.77426,-0.75149 0.77426,-0.75149 1.07031,-1.18417 -0.45545,-0.54654 -0.88813,-0.77427 -1.52577,-0.77427 -1.6624,0 -3.80302,1.98122 -3.80302,3.48421 0,0.70595 0.36436,1.25249 1.22972,1.86735 1.13863,0.79704 1.29804,1.002 1.29804,1.57131 0,0.81981 -1.04754,1.77626 -1.93567,1.77626 -0.501,0 -0.88814,-0.27327 -1.11586,-0.77426 -0.15941,-0.34159 -0.20495,-0.68318 -0.22773,-1.45745 -0.2505,0.18218 -0.43268,0.29604 -0.52377,0.36436 -0.18218,0.11386 -0.38713,0.22773 -0.59209,0.36436 l -0.4099,0.27327"
             id="path5309"
             style="font-size:22.77260399px;font-variant:normal;font-weight:bold;font-stretch:normal;fill:#ffffff;font-family:URW Chancery L;-inkscape-font-specification:URW Chancery L Bold Italic" />
          <path
             d="m 189.87469,423.79084 c 0.95645,-0.47823 1.38913,-0.66041 1.6624,-0.66041 0.18218,0 0.31882,0.18218 0.31882,0.43268 0,0.29605 -0.22773,1.27527 -0.63764,2.82381 -0.56931,2.11785 -0.70595,2.75548 -0.70595,3.41589 0,0.63763 0.27327,1.11585 0.63764,1.11585 0.34158,0 0.75149,-0.20495 1.89012,-0.95645 l 2.34558,-1.52576 c -0.18218,0.72872 -0.31882,1.54854 -0.31882,1.95844 0,0.29605 0.18218,0.52377 0.40991,0.52377 0.45545,0 2.61885,-1.27526 4.16739,-2.43667 l 0.1594,-0.68317 c -1.77626,1.04754 -2.36835,1.36635 -2.61884,1.36635 -0.15941,0 -0.2505,-0.18218 -0.2505,-0.54654 0,-1.1614 0.84258,-4.55452 1.8218,-7.44664 -0.29604,0.15941 -0.50099,0.27327 -0.59208,0.31882 -0.27327,0.13663 -0.54655,0.27327 -0.84259,0.4099 -0.0683,0.0228 -0.20495,0.0911 -0.45545,0.22773 -0.13664,0.52377 -0.59209,2.34558 -1.34359,5.4882 -1.75348,1.20694 -2.55053,1.6624 -2.8238,1.6624 -0.2505,0 -0.43268,-0.31882 -0.43268,-0.7515 0,-0.52377 0.18218,-1.43468 0.56932,-2.89212 0.2505,-0.9109 0.4099,-1.54854 0.47822,-1.86735 0.20496,-0.84259 0.36436,-1.43468 0.40991,-1.59409 0.0683,-0.25049 0.11386,-0.45545 0.11386,-0.61486 0,-0.18218 -0.11386,-0.29604 -0.27327,-0.29604 -0.22772,0 -1.89013,0.88813 -3.52975,1.9129 l -0.15941,0.61486"
             id="path5311"
             style="font-size:22.77260399px;font-variant:normal;font-weight:bold;font-stretch:normal;fill:#ffffff;font-family:URW Chancery L;-inkscape-font-specification:URW Chancery L Bold Italic" />
          <path
             d="m 199.00508,435.47318 -0.68318,0.72873 c 0.66041,0.0228 3.18817,0.0683 3.87134,0.0683 0.18218,0 0.501,0 1.07032,-0.0228 l 0.70595,-0.56931 -2.55053,-0.13664 1.09308,-4.85056 c 0.45545,0.0911 0.70595,0.11386 1.09309,0.11386 1.00199,0 1.54853,-0.20495 2.45944,-0.93368 1.1614,-0.88813 1.59408,-1.29804 1.89012,-1.70794 0.79704,-1.1614 1.52577,-3.59807 1.52577,-5.07829 0,-1.09309 -0.47823,-1.82181 -1.22972,-1.82181 -0.54655,0 -1.32082,0.34159 -2.25449,1.02477 l -1.86736,1.34358 c 0.0683,-0.2505 0.11387,-0.501 0.15941,-0.63763 0.20496,-0.86536 0.31882,-1.34359 0.31882,-1.43468 0,-0.13663 -0.15941,-0.29604 -0.31882,-0.29604 -0.22772,0 -2.07231,0.97922 -3.75748,1.98122 l -0.13663,0.59208 c 0.29604,-0.11386 0.56931,-0.22772 0.6604,-0.27327 0.66041,-0.29604 0.79704,-0.34159 0.97923,-0.34159 0.27327,0 0.43267,0.22773 0.43267,0.63764 0,0.81981 -1.36635,6.74069 -2.64162,11.56848 l -0.81981,0.0455 m 3.89411,-6.35355 c 0.31882,-1.52577 0.61486,-2.77826 0.84259,-3.75748 0.0228,-0.11386 0.0911,-0.40991 0.18218,-0.81982 1.89013,-1.36635 2.57331,-1.75349 3.16539,-1.75349 0.45546,0 0.7515,0.501 0.7515,1.2525 0,1.02476 -0.31882,2.30003 -0.88813,3.55252 -0.61486,1.34359 -1.38913,2.02677 -2.32281,2.02677 -0.56931,0 -1.18417,-0.18219 -1.73072,-0.501"
             id="path5313"
             style="font-size:22.77260399px;font-variant:normal;font-weight:bold;font-stretch:normal;fill:#ffffff;font-family:URW Chancery L;-inkscape-font-specification:URW Chancery L Bold Italic" />
          <path
             d="m 209.01257,435.47318 -0.68318,0.72873 c 0.66041,0.0228 3.18817,0.0683 3.87135,0.0683 0.18218,0 0.50099,0 1.07031,-0.0228 l 0.70595,-0.56931 -2.55053,-0.13664 1.09308,-4.85056 c 0.45545,0.0911 0.70595,0.11386 1.09309,0.11386 1.00199,0 1.54854,-0.20495 2.45944,-0.93368 1.1614,-0.88813 1.59408,-1.29804 1.89012,-1.70794 0.79704,-1.1614 1.52577,-3.59807 1.52577,-5.07829 0,-1.09309 -0.47823,-1.82181 -1.22972,-1.82181 -0.54654,0 -1.32081,0.34159 -2.25449,1.02477 l -1.86735,1.34358 c 0.0683,-0.2505 0.11386,-0.501 0.15941,-0.63763 0.20495,-0.86536 0.31881,-1.34359 0.31881,-1.43468 0,-0.13663 -0.15941,-0.29604 -0.31881,-0.29604 -0.22773,0 -2.07231,0.97922 -3.75748,1.98122 l -0.13664,0.59208 c 0.29604,-0.11386 0.56932,-0.22772 0.66041,-0.27327 0.6604,-0.29604 0.79704,-0.34159 0.97922,-0.34159 0.27327,0 0.43268,0.22773 0.43268,0.63764 0,0.81981 -1.36636,6.74069 -2.64163,11.56848 l -0.81981,0.0455 m 3.89412,-6.35355 c 0.31881,-1.52577 0.61486,-2.77826 0.84258,-3.75748 0.0228,-0.11386 0.0911,-0.40991 0.18218,-0.81982 1.89013,-1.36635 2.57331,-1.75349 3.1654,-1.75349 0.45545,0 0.75149,0.501 0.75149,1.2525 0,1.02476 -0.31882,2.30003 -0.88813,3.55252 -0.61486,1.34359 -1.38913,2.02677 -2.32281,2.02677 -0.56931,0 -1.18417,-0.18219 -1.73071,-0.501"
             id="path5315"
             style="font-size:22.77260399px;font-variant:normal;font-weight:bold;font-stretch:normal;fill:#ffffff;font-family:URW Chancery L;-inkscape-font-specification:URW Chancery L Bold Italic" />
          <path
             d="m 226.69443,421.26308 c -0.9109,0 -2.36835,0.66041 -3.71193,1.6624 -1.45745,1.09308 -2.48222,3.46144 -2.48222,5.71592 0,1.38913 0.77427,2.27726 1.98122,2.27726 0.63763,0 1.27527,-0.22772 2.3228,-0.77427 1.13863,-0.63763 1.89013,-1.20694 2.30004,-1.75349 0.9109,-1.22971 1.63963,-3.46143 1.63963,-5.03274 0,-1.22972 -0.84259,-2.09508 -2.04954,-2.09508 m -1.18417,1.07031 c 0.9109,0 1.48021,0.88813 1.48021,2.25449 0,0.95645 -0.31881,2.14063 -0.88813,3.25648 -0.63763,1.29804 -1.45744,2.00399 -2.3228,2.00399 -0.93368,0 -1.52577,-0.84259 -1.52577,-2.14062 0,-2.64162 1.6624,-5.37434 3.25649,-5.37434"
             id="path5317"
             style="font-size:22.77260399px;font-variant:normal;font-weight:bold;font-stretch:normal;fill:#ffffff;font-family:URW Chancery L;-inkscape-font-specification:URW Chancery L Bold Italic" />
          <path
             d="m 229.68654,430.85035 1.75349,-0.66041 1.70794,-6.49019 c 0.77427,-0.56932 1.29804,-0.79704 1.9129,-0.79704 0.501,0 0.79704,0.18218 1.20695,0.70595 l 0.68318,-2.1634 c -0.43268,-0.13664 -0.61486,-0.18218 -0.84259,-0.18218 -0.40991,0 -0.88813,0.20495 -1.50299,0.63763 l -1.34359,0.97922 c 0.0228,-0.18218 0.0683,-0.29604 0.0683,-0.36436 0.18218,-0.75149 0.20496,-0.88813 0.20496,-1.00199 0,-0.13664 -0.13664,-0.2505 -0.29605,-0.2505 -0.29604,0 -2.30003,0.97922 -3.68916,1.82181 l -0.0683,0.61486 c 1.22972,-0.63763 1.36636,-0.68318 1.63963,-0.68318 0.29604,0 0.43268,0.15941 0.43268,0.47822 0,0.31882 -0.22773,1.38913 -0.501,2.36836 l -1.36635,4.9872"
             id="path5319"
             style="font-size:22.77260399px;font-variant:normal;font-weight:bold;font-stretch:normal;fill:#ffffff;font-family:URW Chancery L;-inkscape-font-specification:URW Chancery L Bold Italic" />
          <path
             d="m 242.75303,427.75327 c -1.73072,1.02477 -2.45944,1.4119 -2.77826,1.4119 -0.29604,0 -0.66041,-0.59209 -0.66041,-1.07031 0,-0.31882 0.38714,-2.07231 0.97923,-4.46343 0.31881,-0.0228 0.54654,-0.0228 0.6604,-0.0228 l 0.91091,-0.0228 c 0.0911,0 0.31881,-0.0228 0.68317,-0.0683 l 0.86536,-0.66041 -2.91489,0 0.9109,-3.68916 c -0.43268,0.22773 -0.61486,0.29604 -0.95645,0.45545 -0.1594,0.0911 -0.34158,0.15941 -0.52377,0.2505 -0.0911,0.0456 -0.20495,0.0911 -0.31881,0.13664 l -0.63763,2.84657 c -0.20496,0.0228 -0.34159,0.0228 -0.40991,0.0228 l -0.54654,0 c -0.0456,0 -0.15941,0 -0.34159,0.0228 -0.2505,0.1594 -0.27327,0.15941 -0.66041,0.47822 -0.0683,0.0456 -0.18218,0.13664 -0.34159,0.2505 l 0.54654,0 1.04754,0 0.501,0 c -1.20694,5.05551 -1.20695,5.05552 -1.20695,5.76147 0,0.72872 0.47823,1.52576 0.91091,1.52576 0.50099,0 2.04953,-0.95645 4.2357,-2.59607 l 0.0455,-0.56932"
             id="path5321"
             style="font-size:22.77260399px;font-variant:normal;font-weight:bold;font-stretch:normal;fill:#ffffff;font-family:URW Chancery L;-inkscape-font-specification:URW Chancery L Bold Italic" />
        </g>
        <g
           transform="translate(0.04802,0.5)"
           id="text5300"
           style="font-size:125.15394592px;font-style:normal;font-weight:normal;line-height:125%;letter-spacing:0px;word-spacing:0px;fill:#ffffff;fill-opacity:1;stroke:none;font-family:Sans">
          <path
             d="m 150.1439,459.04364 c 0.94906,0 0.98557,0 2.11714,0.0365 l 1.24108,0 1.27758,0 c 2.55516,0.073 2.55517,0.073 3.1392,0.073 2.48216,0 4.38029,-0.47453 6.82595,-1.71561 3.2852,-1.6426 4.89131,-3.75974 4.89131,-6.38791 0,-1.13157 -0.54753,-2.19014 -1.46009,-2.88369 -0.76655,-0.58403 -1.56961,-0.80305 -3.32172,-0.98556 3.61373,-1.64261 5.43885,-3.65024 5.43885,-5.98639 0,-2.40915 -1.97113,-3.46772 -6.46091,-3.46772 l -0.58404,0 0.29202,-1.13158 -2.95669,1.27759 c -3.1392,0.47453 -4.89132,1.02206 -6.57043,2.00763 -2.92018,1.78861 -4.41678,4.34378 -4.41678,7.55599 0,0.73004 0.073,1.27758 0.25551,2.37265 l 2.92019,-1.35059 c -0.32852,-1.6061 -0.36502,-2.00763 -0.36502,-2.70117 0,-2.48216 0.76655,-4.01526 2.62817,-5.21984 1.46009,-0.94906 2.92019,-1.38709 5.21983,-1.5331 l -2.70117,10.8047 c -1.5331,6.3149 -2.15364,7.11796 -5.69437,7.48298 l -1.71561,1.75212 m 10.43968,-10.62219 c 0.73004,-0.073 1.05857,-0.073 1.42359,-0.073 2.81068,0 4.45329,1.27759 4.45329,3.54073 0,1.38709 -0.58404,2.9932 -1.4966,4.01526 -0.98556,1.13158 -2.44566,1.71561 -4.27078,1.71561 -0.91255,0 -1.97113,-0.1095 -5.40235,-0.47453 3.57723,-3.1757 4.16127,-4.05176 4.92782,-7.33697 l 0.36503,-1.38709 m 2.40915,-9.67313 c 1.78862,0.0365 2.19014,0.10951 2.70118,0.36503 0.87605,0.43803 1.42359,1.4966 1.42359,2.66467 0,1.71561 -0.83956,3.46773 -2.11714,4.41679 -1.09507,0.83955 -2.19014,1.16807 -4.16127,1.20457 l 2.15364,-8.65106"
             id="path5324"
             style="font-size:36.5023613px;font-variant:normal;font-weight:bold;font-stretch:normal;fill:#ffffff;font-family:URW Chancery L;-inkscape-font-specification:URW Chancery L Bold Italic" />
          <path
             d="m 177.57942,441.04797 c 1.05856,-0.94906 1.13157,-1.02206 2.37265,-1.97112 -0.21901,-0.43803 -0.40153,-0.73005 -0.47453,-0.83956 -0.21901,-0.43803 -0.25552,-0.47453 -0.54754,-1.16807 -0.073,-0.14601 -0.146,-0.29202 -0.21901,-0.47454 -0.18251,0.14601 -0.40153,0.29202 -0.51103,0.40153 -0.14601,0.14601 -0.43803,0.36502 -0.80305,0.65704 -0.18252,0.14601 -0.43803,0.32852 -0.76655,0.54754 -0.14601,0.10951 -0.29202,0.21901 -0.43803,0.29202 0.25551,0.80305 0.58404,1.38709 1.38709,2.55516 m 2.51866,13.7979 c -3.46772,1.86161 -3.54073,1.89812 -4.01526,1.89812 -0.40153,0 -0.65704,-0.40153 -0.65704,-1.02207 0,-0.36502 0.10951,-1.05857 0.32852,-1.86162 1.86162,-7.66549 2.22664,-9.12559 2.22664,-9.41761 0,-0.21901 -0.18251,-0.36502 -0.43803,-0.36502 -0.62053,0 -2.77418,1.20458 -5.76737,3.21221 l -0.073,1.02206 c 2.15363,-1.16807 2.33615,-1.24108 2.66467,-1.24108 0.29202,0 0.43803,0.21902 0.43803,0.65704 0,0.47454 -0.10951,0.98557 -0.65704,3.0662 -1.71561,6.38791 -1.71562,6.38792 -1.71562,7.30048 0,0.87605 0.36503,1.46009 0.87606,1.46009 0.62054,0 1.60611,-0.47453 3.54073,-1.71561 0.69354,-0.43803 1.38709,-0.87606 2.08063,-1.35059 0.32853,-0.18251 0.65705,-0.40152 1.02207,-0.62054 l 0.14601,-1.02206"
             id="path5326"
             style="font-size:36.5023613px;font-variant:normal;font-weight:bold;font-stretch:normal;fill:#ffffff;font-family:URW Chancery L;-inkscape-font-specification:URW Chancery L Bold Italic" />
          <path
             d="m 190.76533,454.48084 c -2.77418,1.64261 -3.94226,2.26315 -4.45329,2.26315 -0.47453,0 -1.05857,-0.94906 -1.05857,-1.71561 0,-0.51104 0.62054,-3.32172 1.5696,-7.15447 0.51103,-0.0365 0.87606,-0.0365 1.05857,-0.0365 l 1.46009,-0.0365 c 0.14601,0 0.51104,-0.0365 1.09507,-0.10951 l 1.38709,-1.05857 -4.6723,0 1.4601,-5.91338 c -0.69355,0.36502 -0.98557,0.47453 -1.5331,0.73005 -0.25552,0.14601 -0.54754,0.25552 -0.83956,0.40152 -0.14601,0.073 -0.32852,0.14601 -0.51103,0.21902 l -1.02207,4.56279 c -0.32852,0.0365 -0.54753,0.0365 -0.65704,0.0365 l -0.87606,0 c -0.073,0 -0.25551,0 -0.54753,0.0365 -0.40153,0.25551 -0.43803,0.25552 -1.05857,0.76655 -0.10951,0.073 -0.29202,0.21901 -0.54753,0.40152 l 0.87605,0 1.67911,0 0.80305,0 c -1.93462,8.10352 -1.93462,8.10353 -1.93462,9.2351 0,1.16808 0.76655,2.44566 1.46009,2.44566 0.80305,0 3.28522,-1.5331 6.78944,-4.16127 l 0.073,-0.91256"
             id="path5328"
             style="font-size:36.5023613px;font-variant:normal;font-weight:bold;font-stretch:normal;fill:#ffffff;font-family:URW Chancery L;-inkscape-font-specification:URW Chancery L Bold Italic" />
          <path
             d="m 203.18753,454.44434 c -2.81067,2.00763 -4.7453,3.0297 -5.91338,3.0297 -1.31408,0 -2.08063,-1.02207 -2.08063,-2.77418 0,-1.75212 0.43803,-4.08827 1.13157,-5.80388 0.73005,-1.93462 1.67911,-2.92019 2.73768,-2.92019 0.87605,0 1.35059,0.69355 1.5331,2.29965 l 2.11713,-1.24108 c 0.0365,-0.18251 0.0365,-0.36502 0.0365,-0.40153 0,-1.5696 -0.80306,-2.55516 -2.08064,-2.55516 -0.65704,0 -1.05857,0.14601 -2.37265,1.02206 -2.73768,1.71561 -3.32172,2.26315 -4.12477,3.75975 -1.02206,1.97112 -1.78861,5.07383 -1.78861,7.33697 0,2.11714 0.98556,3.35822 2.66467,3.35822 1.75211,0 4.74531,-1.4601 8.06702,-3.94226 l 0.073,-1.16807"
             id="path5330"
             style="font-size:36.5023613px;font-variant:normal;font-weight:bold;font-stretch:normal;fill:#ffffff;font-family:URW Chancery L;-inkscape-font-specification:URW Chancery L Bold Italic" />
          <path
             d="m 214.71658,444.07767 c -1.4601,0 -3.79625,1.05857 -5.94989,2.66467 -2.33615,1.75211 -3.97876,5.54836 -3.97876,9.16209 0,2.22665 1.24109,3.65024 3.17571,3.65024 1.02206,0 2.04413,-0.36502 3.72324,-1.24108 1.82512,-1.02207 3.0297,-1.93463 3.68674,-2.81068 1.46009,-1.97113 2.62817,-5.54836 2.62817,-8.06702 0,-1.97113 -1.35059,-3.35822 -3.28521,-3.35822 m -1.89813,1.71561 c 1.4601,0 2.37266,1.42359 2.37266,3.61373 0,1.5331 -0.51104,3.43123 -1.4236,5.21984 -1.02206,2.08063 -2.33615,3.21221 -3.72324,3.21221 -1.49659,0 -2.44565,-1.35059 -2.44565,-3.43122 0,-4.23427 2.66467,-8.61456 5.21983,-8.61456"
             id="path5332"
             style="font-size:36.5023613px;font-variant:normal;font-weight:bold;font-stretch:normal;fill:#ffffff;font-family:URW Chancery L;-inkscape-font-specification:URW Chancery L Bold Italic" />
          <path
             d="m 225.061,441.04797 c 1.05857,-0.94906 1.13158,-1.02206 2.37266,-1.97112 -0.21902,-0.43803 -0.40153,-0.73005 -0.47453,-0.83956 -0.21902,-0.43803 -0.25552,-0.47453 -0.54754,-1.16807 -0.073,-0.14601 -0.14601,-0.29202 -0.21901,-0.47454 -0.18251,0.14601 -0.40153,0.29202 -0.51104,0.40153 -0.14601,0.14601 -0.43802,0.36502 -0.80305,0.65704 -0.18251,0.14601 -0.43803,0.32852 -0.76655,0.54754 -0.14601,0.10951 -0.29202,0.21901 -0.43803,0.29202 0.25552,0.80305 0.58404,1.38709 1.38709,2.55516 m 2.51867,13.7979 c -3.46772,1.86161 -3.54073,1.89812 -4.01526,1.89812 -0.40153,0 -0.65705,-0.40153 -0.65705,-1.02207 0,-0.36502 0.10951,-1.05857 0.32853,-1.86162 1.86161,-7.66549 2.22664,-9.12559 2.22664,-9.41761 0,-0.21901 -0.18251,-0.36502 -0.43803,-0.36502 -0.62054,0 -2.77418,1.20458 -5.76737,3.21221 l -0.073,1.02206 c 2.15364,-1.16807 2.33615,-1.24108 2.66468,-1.24108 0.29201,0 0.43802,0.21902 0.43802,0.65704 0,0.47454 -0.1095,0.98557 -0.65704,3.0662 -1.71561,6.38791 -1.71561,6.38792 -1.71561,7.30048 0,0.87605 0.36502,1.46009 0.87606,1.46009 0.62054,0 1.6061,-0.47453 3.54073,-1.71561 0.69354,-0.43803 1.38709,-0.87606 2.08063,-1.35059 0.32852,-0.18251 0.65704,-0.40152 1.02207,-0.62054 l 0.14601,-1.02206"
             id="path5334"
             style="font-size:36.5023613px;font-variant:normal;font-weight:bold;font-stretch:normal;fill:#ffffff;font-family:URW Chancery L;-inkscape-font-specification:URW Chancery L Bold Italic" />
          <path
             d="m 230.98294,458.38659 2.15364,-8.57805 c 4.56279,-2.88368 4.6723,-2.92019 5.18333,-2.92019 0.25552,0 0.40153,0.18251 0.40153,0.47453 0,0.54754 -0.29202,1.93463 -1.35059,6.0959 -0.80305,3.2487 -0.94906,3.86925 -0.94906,4.56279 0,0.51103 0.14601,0.98557 0.54754,1.64261 1.6791,-0.76655 4.19777,-2.33616 6.75293,-4.23428 l 0.25552,-1.02206 c -3.65023,2.08063 -3.79625,2.15364 -4.16127,2.15364 -0.36502,0 -0.58404,-0.40153 -0.58404,-0.98557 0,-0.76655 0.25552,-1.97113 0.94906,-4.48979 1.71561,-6.13239 1.71561,-6.13239 1.71561,-6.38791 0,-0.40153 -0.25551,-0.62054 -0.73004,-0.62054 -0.54754,0 -1.35059,0.32852 -2.66467,1.16807 l -5.00083,3.1027 c 0.32852,-1.20457 0.87606,-3.50422 0.87606,-3.79624 0,-0.25552 -0.21902,-0.47453 -0.47453,-0.47453 -0.40153,0 -3.0297,1.35059 -5.73087,2.95669 l -0.21902,0.94906 c 2.33615,-1.05857 2.48216,-1.09507 2.81068,-1.09507 0.25552,0 0.43803,0.21901 0.43803,0.51103 0,0.76655 -0.69354,3.79625 -1.6061,7.11796 l -0.83956,2.9567 c -0.073,0.25551 -0.25551,0.94906 -0.51103,1.97112 l 2.73768,-1.05857"
             id="path5336"
             style="font-size:36.5023613px;font-variant:normal;font-weight:bold;font-stretch:normal;fill:#ffffff;font-family:URW Chancery L;-inkscape-font-specification:URW Chancery L Bold Italic" />
        </g>
      </g>
    </g>
  </g>
</svg>
