<?xml version="1.0" encoding="UTF-8" standalone="no"?>
<!-- Created with Inkscape (http://www.inkscape.org/) -->

<svg
   xmlns:dc="http://purl.org/dc/elements/1.1/"
   xmlns:cc="http://creativecommons.org/ns#"
   xmlns:rdf="http://www.w3.org/1999/02/22-rdf-syntax-ns#"
   xmlns:svg="http://www.w3.org/2000/svg"
   xmlns="http://www.w3.org/2000/svg"
   xmlns:xlink="http://www.w3.org/1999/xlink"
   version="1.1"
   width="230"
   height="57.450619"
   id="svg2">
  <defs
     id="defs4">
    <linearGradient
       id="linearGradient5374">
      <stop
         id="stop5376"
         style="stop-color:#5599ff;stop-opacity:1"
         offset="0" />
      <stop
         id="stop5378"
         style="stop-color:#5599ff;stop-opacity:1"
         offset="0.91189343" />
      <stop
         id="stop5380"
         style="stop-color:#416dff;stop-opacity:1"
         offset="1" />
    </linearGradient>
    <linearGradient
       id="linearGradient5358">
      <stop
         id="stop5360"
         style="stop-color:#5599ff;stop-opacity:1"
         offset="0" />
      <stop
         id="stop5366"
         style="stop-color:#5599ff;stop-opacity:1"
         offset="0.80000001" />
      <stop
         id="stop5362"
         style="stop-color:#41efff;stop-opacity:1"
         offset="1" />
    </linearGradient>
    <linearGradient
       id="linearGradient4938">
      <stop
         id="stop4940"
         style="stop-color:#ffffff;stop-opacity:1"
         offset="0" />
      <stop
         id="stop4942"
         style="stop-color:#ffe04b;stop-opacity:1"
         offset="1" />
    </linearGradient>
    <linearGradient
       id="linearGradient4932">
      <stop
         id="stop4934"
         style="stop-color:#fffb88;stop-opacity:1"
         offset="0" />
      <stop
         id="stop4936"
         style="stop-color:#f5c800;stop-opacity:1"
         offset="1" />
    </linearGradient>
    <linearGradient
       id="linearGradient4548">
      <stop
         id="stop4550"
         style="stop-color:#fffb88;stop-opacity:1"
         offset="0" />
      <stop
         id="stop4552"
         style="stop-color:#ffdb3a;stop-opacity:1"
         offset="1" />
    </linearGradient>
    <linearGradient
       id="linearGradient4540">
      <stop
         id="stop4542"
         style="stop-color:#fffe9c;stop-opacity:1"
         offset="0" />
      <stop
         id="stop4544"
         style="stop-color:#ffda2f;stop-opacity:1"
         offset="1" />
    </linearGradient>
    <linearGradient
       id="linearGradient4314">
      <stop
         id="stop4316"
         style="stop-color:#ffffff;stop-opacity:1"
         offset="0" />
      <stop
         id="stop4318"
         style="stop-color:#ffffff;stop-opacity:0"
         offset="1" />
    </linearGradient>
    <linearGradient
       id="linearGradient4296">
      <stop
         id="stop4298"
         style="stop-color:#d5d5d5;stop-opacity:1"
         offset="0" />
      <stop
         id="stop4300"
         style="stop-color:#999999;stop-opacity:1"
         offset="1" />
    </linearGradient>
    <linearGradient
       id="linearGradient3882">
      <stop
         id="stop3884"
         style="stop-color:#1a1a1a;stop-opacity:1"
         offset="0" />
      <stop
         id="stop3886"
         style="stop-color:#333333;stop-opacity:1"
         offset="1" />
    </linearGradient>
    <filter
       color-interpolation-filters="sRGB"
       id="filter3898">
      <feGaussianBlur
         id="feGaussianBlur3900"
         stdDeviation="2.4574829" />
    </filter>
    <radialGradient
       cx="2908.1287"
       cy="4391.582"
       r="280.50607"
       fx="2908.1287"
       fy="4391.582"
       id="radialGradient4304"
       xlink:href="#linearGradient4296"
       gradientUnits="userSpaceOnUse" />
    <radialGradient
       cx="3673.4446"
       cy="4867.5044"
       r="80.964348"
       fx="3673.4446"
       fy="4867.5044"
       id="radialGradient4320"
       xlink:href="#linearGradient4314"
       gradientUnits="userSpaceOnUse"
       gradientTransform="matrix(1,0,0,1.3271106,0,-1592.2125)" />
    <radialGradient
       cx="3676.9507"
       cy="4802.0479"
       r="80.964348"
       fx="3676.9507"
       fy="4802.0479"
       id="radialGradient4322"
       xlink:href="#linearGradient4314"
       gradientUnits="userSpaceOnUse"
       gradientTransform="matrix(-8.6960027,-2.3907611e-6,2.0179805e-6,-7.340074,35645.445,39987.838)" />
    <radialGradient
       cx="3673.4446"
       cy="4867.5044"
       r="80.964348"
       fx="3673.4446"
       fy="4867.5044"
       id="radialGradient4446"
       xlink:href="#linearGradient4314"
       gradientUnits="userSpaceOnUse"
       gradientTransform="matrix(1,0,0,1.3271106,0,-1592.2125)" />
    <radialGradient
       cx="3673.4446"
       cy="4867.5044"
       r="80.964348"
       fx="3673.4446"
       fy="4867.5044"
       id="radialGradient4538"
       xlink:href="#linearGradient4314"
       gradientUnits="userSpaceOnUse"
       gradientTransform="matrix(1,0,0,1.3271106,0,-1592.2125)" />
    <radialGradient
       cx="591.6795"
       cy="935.63947"
       r="91.086601"
       fx="591.6795"
       fy="935.63947"
       id="radialGradient4807"
       xlink:href="#linearGradient4296"
       gradientUnits="userSpaceOnUse"
       gradientTransform="matrix(1.2955528,-0.00683281,0.00989615,1.8763835,-184.12683,-815.43206)" />
    <radialGradient
       cx="591.6795"
       cy="935.63947"
       r="91.086601"
       fx="591.6795"
       fy="935.63947"
       id="radialGradient4809"
       xlink:href="#linearGradient4296"
       gradientUnits="userSpaceOnUse"
       gradientTransform="matrix(1.2955528,-0.00683281,0.00989615,1.8763835,-184.12683,-815.43206)" />
    <radialGradient
       cx="591.6795"
       cy="935.63947"
       r="91.086601"
       fx="591.6795"
       fy="935.63947"
       id="radialGradient4811"
       xlink:href="#linearGradient4296"
       gradientUnits="userSpaceOnUse"
       gradientTransform="matrix(1.2955528,-0.00683281,0.00989615,1.8763835,-184.12683,-815.43206)" />
    <radialGradient
       cx="591.66632"
       cy="933.9494"
       r="91.086601"
       fx="591.66632"
       fy="933.9494"
       id="radialGradient4813"
       xlink:href="#linearGradient4540"
       gradientUnits="userSpaceOnUse"
       gradientTransform="matrix(1.2955897,1.3023396e-4,-1.8860859e-4,1.8764096,-174.71298,-819.57636)" />
    <radialGradient
       cx="579.83356"
       cy="934.47162"
       r="91.086601"
       fx="579.83356"
       fy="934.47162"
       id="radialGradient4815"
       xlink:href="#linearGradient4932"
       gradientUnits="userSpaceOnUse"
       gradientTransform="matrix(1.5245231,-0.00804041,0.00989616,1.8763835,-316.8915,-814.73185)" />
    <radialGradient
       cx="2908.1287"
       cy="4391.582"
       r="280.50607"
       fx="2908.1287"
       fy="4391.582"
       id="radialGradient4817"
       xlink:href="#linearGradient4296"
       gradientUnits="userSpaceOnUse" />
    <radialGradient
       cx="3676.1523"
       cy="4800.293"
       r="80.964348"
       fx="3676.1523"
       fy="4800.293"
       id="radialGradient4926"
       xlink:href="#linearGradient4938"
       gradientUnits="userSpaceOnUse"
       gradientTransform="matrix(-8.6960027,0,0,-4.0117113,35645.455,24004.873)" />
    <radialGradient
       cx="3676.9507"
       cy="4802.0479"
       r="80.964348"
       fx="3676.9507"
       fy="4802.0479"
       id="radialGradient4928"
       xlink:href="#linearGradient4314"
       gradientUnits="userSpaceOnUse"
       gradientTransform="matrix(-8.6960027,-2.3907611e-6,2.0179805e-6,-7.340074,35645.445,39987.838)" />
    <radialGradient
       cx="3673.4446"
       cy="4867.5044"
       r="80.964348"
       fx="3673.4446"
       fy="4867.5044"
       id="radialGradient4930"
       xlink:href="#linearGradient4314"
       gradientUnits="userSpaceOnUse"
       gradientTransform="matrix(1,0,0,1.3271106,0,-1592.2125)" />
    <radialGradient
       cx="3673.4446"
       cy="4867.5044"
       r="80.964348"
       fx="3673.4446"
       fy="4867.5044"
       id="radialGradient5030"
       xlink:href="#linearGradient4314"
       gradientUnits="userSpaceOnUse"
       gradientTransform="matrix(1,0,0,1.3271106,0,-1592.2125)" />
    <radialGradient
       cx="3673.4446"
       cy="4867.5044"
       r="80.964348"
       fx="3673.4446"
       fy="4867.5044"
       id="radialGradient5118"
       xlink:href="#linearGradient4314"
       gradientUnits="userSpaceOnUse"
       gradientTransform="matrix(1,0,0,1.3271106,0,-1592.2125)" />
    <radialGradient
       cx="3673.4446"
       cy="4867.5044"
       r="80.964348"
       fx="3673.4446"
       fy="4867.5044"
       id="radialGradient3513"
       xlink:href="#linearGradient4314"
       gradientUnits="userSpaceOnUse"
       gradientTransform="matrix(1,0,0,1.3271106,0,-1592.2125)" />
    <linearGradient
       x1="-2549.4382"
       y1="1756.4385"
       x2="-2529.3691"
       y2="1756.4385"
       id="linearGradient5206"
       xlink:href="#linearGradient3882"
       gradientUnits="userSpaceOnUse"
       gradientTransform="translate(2209.9329,-1189.9085)" />
    <linearGradient
       x1="253.65529"
       y1="538.69427"
       x2="125.89417"
       y2="538.69427"
       id="linearGradient4815"
       xlink:href="#linearGradient5374"
       gradientUnits="userSpaceOnUse" />
    <radialGradient
       cx="591.6795"
       cy="935.63947"
       r="91.086601"
       fx="591.6795"
       fy="935.63947"
       id="radialGradient4948"
       xlink:href="#linearGradient4296"
       gradientUnits="userSpaceOnUse"
       gradientTransform="matrix(1.2955528,-0.00683281,0.00989615,1.8763835,-184.12683,-815.43206)" />
    <radialGradient
       cx="591.6795"
       cy="935.63947"
       r="91.086601"
       fx="591.6795"
       fy="935.63947"
       id="radialGradient4950"
       xlink:href="#linearGradient4296"
       gradientUnits="userSpaceOnUse"
       gradientTransform="matrix(1.2955528,-0.00683281,0.00989615,1.8763835,-184.12683,-815.43206)" />
    <radialGradient
       cx="3676.9507"
       cy="4802.0479"
       r="80.964348"
       fx="3676.9507"
       fy="4802.0479"
       id="radialGradient4952"
       xlink:href="#linearGradient4314"
       gradientUnits="userSpaceOnUse"
       gradientTransform="matrix(-8.6960027,-2.3907611e-6,2.0179805e-6,-7.340074,35645.445,39987.838)" />
    <radialGradient
       cx="3673.4446"
       cy="4867.5044"
       r="80.964348"
       fx="3673.4446"
       fy="4867.5044"
       id="radialGradient4954"
       xlink:href="#linearGradient4314"
       gradientUnits="userSpaceOnUse"
       gradientTransform="matrix(1,0,0,1.3271106,0,-1592.2125)" />
    <radialGradient
       cx="591.66632"
       cy="933.9494"
       r="91.086601"
       fx="591.66632"
       fy="933.9494"
       id="radialGradient4956"
       xlink:href="#linearGradient4540"
       gradientUnits="userSpaceOnUse"
       gradientTransform="matrix(1.2955897,1.3023396e-4,-1.8860859e-4,1.8764096,-174.71298,-819.57636)" />
    <radialGradient
       cx="579.83356"
       cy="934.47162"
       r="91.086601"
       fx="579.83356"
       fy="934.47162"
       id="radialGradient4958"
       xlink:href="#linearGradient4932"
       gradientUnits="userSpaceOnUse"
       gradientTransform="matrix(1.5245231,-0.00804041,0.00989616,1.8763835,-316.8915,-814.73185)" />
    <radialGradient
       cx="3676.1523"
       cy="4800.293"
       r="80.964348"
       fx="3676.1523"
       fy="4800.293"
       id="radialGradient4960"
       xlink:href="#linearGradient4938"
       gradientUnits="userSpaceOnUse"
       gradientTransform="matrix(-8.6960027,0,0,-4.0117113,35645.455,24004.873)" />
    <radialGradient
       cx="3673.4446"
       cy="4867.5044"
       r="80.964348"
       fx="3673.4446"
       fy="4867.5044"
       id="radialGradient4962"
       xlink:href="#linearGradient4314"
       gradientUnits="userSpaceOnUse"
       gradientTransform="matrix(1,0,0,1.3271106,0,-1592.2125)" />
    <radialGradient
       cx="3673.4446"
       cy="4867.5044"
       r="80.964348"
       fx="3673.4446"
       fy="4867.5044"
       id="radialGradient3676"
       xlink:href="#linearGradient4314"
       gradientUnits="userSpaceOnUse"
       gradientTransform="matrix(1,0,0,1.3271106,0,-1592.2125)" />
    <radialGradient
       cx="3673.4446"
       cy="4867.5044"
       r="80.964348"
       fx="3673.4446"
       fy="4867.5044"
       id="radialGradient3678"
       xlink:href="#linearGradient4314"
       gradientUnits="userSpaceOnUse"
       gradientTransform="matrix(1,0,0,1.3271106,0,-1592.2125)" />
    <radialGradient
       cx="3673.4446"
       cy="4867.5044"
       r="80.964348"
       fx="3673.4446"
       fy="4867.5044"
       id="radialGradient3680"
       xlink:href="#linearGradient4314"
       gradientUnits="userSpaceOnUse"
       gradientTransform="matrix(1,0,0,1.3271106,0,-1592.2125)" />
    <radialGradient
       cx="3673.4446"
       cy="4867.5044"
       r="80.964348"
       fx="3673.4446"
       fy="4867.5044"
       id="radialGradient3682"
       xlink:href="#linearGradient4314"
       gradientUnits="userSpaceOnUse"
       gradientTransform="matrix(1,0,0,1.3271106,0,-1592.2125)" />
    <radialGradient
       cx="3673.4446"
       cy="4867.5044"
       r="80.964348"
       fx="3673.4446"
       fy="4867.5044"
       id="radialGradient3684"
       xlink:href="#linearGradient4314"
       gradientUnits="userSpaceOnUse"
       gradientTransform="matrix(1,0,0,1.3271106,0,-1592.2125)" />
    <radialGradient
       cx="3673.4446"
       cy="4867.5044"
       r="80.964348"
       fx="3673.4446"
       fy="4867.5044"
       id="radialGradient3783"
       xlink:href="#linearGradient4314"
       gradientUnits="userSpaceOnUse"
       gradientTransform="matrix(1,0,0,1.3271106,0,-1592.2125)" />
    <radialGradient
       cx="3673.4446"
       cy="4867.5044"
       r="80.964348"
       fx="3673.4446"
       fy="4867.5044"
       id="radialGradient3785"
       xlink:href="#linearGradient4314"
       gradientUnits="userSpaceOnUse"
       gradientTransform="matrix(1,0,0,1.3271106,0,-1592.2125)" />
    <radialGradient
       cx="3673.4446"
       cy="4867.5044"
       r="80.964348"
       fx="3673.4446"
       fy="4867.5044"
       id="radialGradient3787"
       xlink:href="#linearGradient4314"
       gradientUnits="userSpaceOnUse"
       gradientTransform="matrix(1,0,0,1.3271106,0,-1592.2125)" />
    <radialGradient
       cx="3673.4446"
       cy="4867.5044"
       r="80.964348"
       fx="3673.4446"
       fy="4867.5044"
       id="radialGradient3789"
       xlink:href="#linearGradient4314"
       gradientUnits="userSpaceOnUse"
       gradientTransform="matrix(1,0,0,1.3271106,0,-1592.2125)" />
    <radialGradient
       cx="3673.4446"
       cy="4867.5044"
       r="80.964348"
       fx="3673.4446"
       fy="4867.5044"
       id="radialGradient3791"
       xlink:href="#linearGradient4314"
       gradientUnits="userSpaceOnUse"
       gradientTransform="matrix(1,0,0,1.3271106,0,-1592.2125)" />
    <radialGradient
       cx="3673.4446"
       cy="4867.5044"
       r="80.964348"
       fx="3673.4446"
       fy="4867.5044"
       id="radialGradient3812"
       xlink:href="#linearGradient4314"
       gradientUnits="userSpaceOnUse"
       gradientTransform="matrix(1,0,0,1.3271106,0,-1592.2125)" />
    <radialGradient
       cx="3673.4446"
       cy="4867.5044"
       r="80.964348"
       fx="3673.4446"
       fy="4867.5044"
       id="radialGradient3814"
       xlink:href="#linearGradient4314"
       gradientUnits="userSpaceOnUse"
       gradientTransform="matrix(1,0,0,1.3271106,0,-1592.2125)" />
    <radialGradient
       cx="3673.4446"
       cy="4867.5044"
       r="80.964348"
       fx="3673.4446"
       fy="4867.5044"
       id="radialGradient3816"
       xlink:href="#linearGradient4314"
       gradientUnits="userSpaceOnUse"
       gradientTransform="matrix(1,0,0,1.3271106,0,-1592.2125)" />
    <radialGradient
       cx="3673.4446"
       cy="4867.5044"
       r="80.964348"
       fx="3673.4446"
       fy="4867.5044"
       id="radialGradient3818"
       xlink:href="#linearGradient4314"
       gradientUnits="userSpaceOnUse"
       gradientTransform="matrix(1,0,0,1.3271106,0,-1592.2125)" />
    <radialGradient
       cx="3673.4446"
       cy="4867.5044"
       r="80.964348"
       fx="3673.4446"
       fy="4867.5044"
       id="radialGradient3820"
       xlink:href="#linearGradient4314"
       gradientUnits="userSpaceOnUse"
       gradientTransform="matrix(1,0,0,1.3271106,0,-1592.2125)" />
  </defs>
  <metadata
     id="metadata7">
    <rdf:RDF>
      <cc:Work
         rdf:about="">
        <dc:format>image/svg+xml</dc:format>
        <dc:type
           rdf:resource="http://purl.org/dc/dcmitype/StillImage" />
        <dc:title></dc:title>
      </cc:Work>
    </rdf:RDF>
  </metadata>
  <g
     transform="translate(-80.557786,-507.35126)"
     id="layer1">
    <g
       transform="matrix(1.0531888,0,0,1.0531888,6.9251907,-346.45781)"
       id="g4696">
      <g
         transform="matrix(0.09460525,0,0,0.09460525,-882.82004,526.55188)"
         id="g4673">
        <path
           d="m 10250.626,3252.8036 328.374,-32.1988 0,247.0725 -328.374,32.1987 z"
           id="path4675"
           style="fill:#dbdbdb;fill-opacity:1;stroke:none" />
        <path
           d="m 10070.626,3156.2075 508.374,64.3973 0,247.0725 -508.374,-64.3974 z"
           id="path4677"
           style="fill:#848484;fill-opacity:1;stroke:none" />
        <path
           d="m 12199,3252.8036 -328.374,-32.1988 0,247.0725 328.374,32.1987 z"
           id="path4679"
           style="fill:#dbdbdb;fill-opacity:1;stroke:none" />
        <path
           d="m 12379,3156.2075 -508.374,64.3973 0,247.0725 508.374,-64.3974 z"
           id="path4681"
           style="fill:#848484;fill-opacity:1;stroke:none" />
        <path
           d="m 10070.625,3119.3599 0,283.9213 c 769.458,0 1538.917,0 2308.375,0 l 0,-283.9213 c -769.458,0 -1538.917,0 -2308.375,0 z"
           id="path4683"
           style="fill:#dbdbdb;fill-opacity:1;stroke:none" />
      </g>
      <g
         transform="matrix(0.09460525,0,0,0.09460525,-870.28997,526.55188)"
         id="g4685">
        <path
           d="m 10969.622,3003.4029 c -87.396,0.267 -184.469,67.1022 -186.891,205.1684 -2.5,142.5614 175.53,288.7195 307.628,370.8595 1.271,0.7406 2.741,0.785 4.015,-0.023 132.095,-82.1425 310.129,-228.2832 307.628,-370.8366 -3.841,-219.0723 -246.001,-258.7698 -309.635,-137.8515 -23.53,-44.7118 -71.469,-67.4736 -122.745,-67.317 z"
           id="path4687"
           style="fill:#ff7e1f;fill-opacity:1;stroke:none" />
        <g
           transform="matrix(1.4274544,0,0,1.4274544,5848.5667,-3668.3903)"
           id="g4689"
           style="font-size:294.78219604px;font-style:normal;font-weight:normal;line-height:125%;letter-spacing:0px;word-spacing:0px;fill:#ffffff;fill-opacity:1;stroke:none;font-family:Sans">
          <path
             d="m 3643.4339,4872.3263 0,28.9313 44.9082,0 0,20.7268 -44.9082,0 0,29.0752 41.8855,0 c 14.1057,1e-4 24.5171,-3.2145 31.2343,-9.6437 6.8129,-6.5251 10.2193,-16.4567 10.2195,-29.7949 -2e-4,-13.434 -3.4066,-23.3176 -10.2195,-29.6509 -6.7172,-6.4291 -17.1286,-9.6437 -31.2343,-9.6438 l -41.8855,0 m 0,-88.3771 0,64.7715 38.7189,0 c 12.7623,1e-4 22.2621,-2.6387 28.4995,-7.9165 6.3331,-5.3735 9.4997,-13.5299 9.4998,-24.4692 -10e-5,-10.8431 -3.1667,-18.9515 -9.4998,-24.3253 -6.2374,-5.3735 -15.7372,-8.0603 -28.4995,-8.0605 l -38.7189,0 m -26.1965,-23.8934 66.7866,0 c 19.9591,2e-4 35.3123,4.6061 46.0597,13.8179 10.8431,9.2121 16.2647,22.3103 16.2649,39.2947 -2e-4,13.1463 -2.783,23.6057 -8.3484,31.3781 -5.4697,7.7727 -13.5781,12.6186 -24.3252,14.5376 12.9541,3.0708 22.9817,9.5 30.0827,19.2876 7.1007,9.6918 10.6512,21.8304 10.6513,36.4159 -1e-4,19.1916 -5.9015,34.0171 -17.7042,44.4764 -11.707,10.4594 -28.4036,15.6891 -50.0899,15.6891 l -69.3775,0 0,-52.9687 -24.7571,0 0,-20.7268 24.7571,0 0,-141.2018"
             id="path4691"
             style="font-variant:normal;font-stretch:semi-condensed;text-align:center;line-height:125%;writing-mode:lr-tb;text-anchor:middle;fill:#ffffff;font-family:DejaVu Sans;-inkscape-font-specification:DejaVu Sans Semi-Condensed" />
        </g>
      </g>
      <g
         transform="matrix(0.69740913,0,0,0.69740913,60.606742,51.734529)"
         id="text4723"
         style="font-size:28.61731148px;font-style:normal;font-weight:normal;line-height:125%;letter-spacing:0px;word-spacing:0px;fill:#4d4d4d;fill-opacity:1;stroke:none;font-family:Sans">
        <path
           d="m 42.397515,1133.308 -3.863337,0 -3.491312,-16.2833 -3.40546,16.2833 -3.863337,0 -5.895166,-20.862 4.550152,0 3.233757,15.625 3.233756,-15.625 4.235362,0 3.376843,15.6536 3.119287,-15.6536 4.550152,0 -5.780697,20.862"
           id="path4978"
           style="letter-spacing:-1.06667745px;fill:#4d4d4d" />
        <path
           d="m 55.982454,1117.5971 c 0.667728,0 1.316387,0.076 1.945977,0.2289 0.62957,0.1527 1.268689,0.4293 1.91736,0.8299 0.667724,0.4007 1.24007,0.9158 1.717039,1.5454 0.496019,0.6105 0.896661,1.4308 1.201927,2.461 0.305236,1.0112 0.457861,2.175 0.457877,3.4914 -1.6e-5,0.2289 -0.0096,0.4578 -0.02862,0.6868 l -10.359466,0 c 0.01907,0.5914 0.06677,1.1065 0.143086,1.5453 0.09539,0.4197 0.248011,0.8395 0.457877,1.2592 0.228933,0.4006 0.553262,0.7154 0.972989,0.9443 0.438791,0.2099 0.98252,0.3148 1.631186,0.3148 1.526247,0 2.54693,-0.6486 3.062053,-1.9459 l 3.949189,0 c -0.438814,1.5262 -1.306871,2.7472 -2.604176,3.663 -1.297329,0.8966 -2.814045,1.345 -4.550152,1.345 -2.194,0 -3.920576,-0.7059 -5.179733,-2.1177 -1.259164,-1.4309 -1.888744,-3.3864 -1.888743,-5.8665 -1e-6,-2.5947 0.639118,-4.636 1.91736,-6.1242 1.278235,-1.5071 3.02389,-2.2607 5.236968,-2.2607 m 3.062052,6.582 c -0.0954,-1.1256 -0.410192,-1.9937 -0.944371,-2.6042 -0.515122,-0.6105 -1.240093,-0.9158 -2.174916,-0.9158 -1.755201,0 -2.766345,1.1734 -3.033435,3.52 l 6.152722,0"
           id="path4981"
           style="letter-spacing:-1.06667745px;fill:#4d4d4d" />
        <path
           d="m 76.009631,1112.446 0,20.862 -4.006424,0 0,-20.862 4.006424,0"
           id="path4983"
           style="letter-spacing:-1.06667745px;fill:#4d4d4d" />
        <path
           d="m 85.546559,1117.5971 c 2.422921,0 4.302122,0.7345 5.63761,2.2035 1.354537,1.45 2.031813,3.4818 2.031829,6.0955 -1.6e-5,2.4802 -0.686831,4.4452 -2.060446,5.8952 -1.373644,1.4499 -3.233768,2.1749 -5.580376,2.1749 -2.384782,0 -4.254445,-0.725 -5.608993,-2.1749 -1.354555,-1.4691 -2.03183,-3.4723 -2.031829,-6.0097 -10e-7,-2.5374 0.677274,-4.531 2.031829,-5.981 1.354548,-1.469 3.214672,-2.2035 5.580376,-2.2035 m 0.02862,3.2337 c -1.087466,0 -1.965062,0.4579 -2.632793,1.3737 -0.667742,0.9157 -1.001611,2.1081 -1.001606,3.5771 -5e-6,1.4691 0.333864,2.6614 1.001606,3.5772 0.667731,0.9158 1.545327,1.3736 2.632793,1.3736 1.06837,0 1.936427,-0.4483 2.604175,-1.345 0.686804,-0.9157 1.030211,-2.0986 1.030224,-3.5485 -1.3e-5,-1.5263 -0.333881,-2.7377 -1.001606,-3.6344 -0.64867,-0.9158 -1.526267,-1.3737 -2.632793,-1.3737"
           id="path4985"
           style="letter-spacing:-1.06667745px;fill:#4d4d4d" />
        <path
           d="m 103.17503,1133.308 -4.20674,0 -5.408672,-15.4534 4.235362,0 3.34823,11.3039 3.11928,-11.3039 4.23536,0 -5.32282,15.4534"
           id="path4987"
           style="letter-spacing:-1.06667745px;fill:#4d4d4d" />
        <path
           d="m 115.9882,1117.5971 c 0.66773,0 1.31639,0.076 1.94598,0.2289 0.62957,0.1527 1.26869,0.4293 1.91736,0.8299 0.66772,0.4007 1.24007,0.9158 1.71703,1.5454 0.49602,0.6105 0.89667,1.4308 1.20193,2.461 0.30524,1.0112 0.45786,2.175 0.45788,3.4914 -2e-5,0.2289 -0.01,0.4578 -0.0286,0.6868 l -10.35947,0 c 0.0191,0.5914 0.0668,1.1065 0.14309,1.5453 0.0954,0.4197 0.24801,0.8395 0.45788,1.2592 0.22893,0.4006 0.55326,0.7154 0.97299,0.9443 0.43879,0.2099 0.98252,0.3148 1.63118,0.3148 1.52625,0 2.54693,-0.6486 3.06206,-1.9459 l 3.94918,0 c -0.43881,1.5262 -1.30687,2.7472 -2.60417,3.663 -1.29733,0.8966 -2.81405,1.345 -4.55015,1.345 -2.194,0 -3.92058,-0.7059 -5.17974,-2.1177 -1.25916,-1.4309 -1.88874,-3.3864 -1.88874,-5.8665 0,-2.5947 0.63912,-4.636 1.91736,-6.1242 1.27824,-1.5071 3.02389,-2.2607 5.23697,-2.2607 m 3.06205,6.582 c -0.0954,-1.1256 -0.41019,-1.9937 -0.94437,-2.6042 -0.51512,-0.6105 -1.24009,-0.9158 -2.17492,-0.9158 -1.7552,0 -2.76634,1.1734 -3.03343,3.52 l 6.15272,0"
           id="path4989"
           style="letter-spacing:-1.06667745px;fill:#4d4d4d" />
        <path
           d="m 236.45588,1127.2983 c -2e-5,0.6869 -0.11449,1.3546 -0.34341,2.0033 -0.22895,0.6486 -0.60098,1.2877 -1.11607,1.9173 -0.49605,0.6296 -1.24964,1.1352 -2.26077,1.5167 -1.01116,0.3816 -2.21308,0.5724 -3.60578,0.5724 l -9.38648,0 0,-20.862 9.30063,0 c 1.2973,0 2.41338,0.1908 3.34822,0.5723 0.9539,0.3816 1.65979,0.8776 2.11768,1.4881 0.47694,0.5915 0.82035,1.1733 1.03023,1.7457 0.20984,0.5723 0.31477,1.1351 0.31479,1.6884 -2e-5,0.8967 -0.21942,1.6693 -0.6582,2.318 -0.43882,0.6487 -1.17333,1.3069 -2.20353,1.9746 2.30844,1.3545 3.46267,3.043 3.46269,5.0652 m -12.41991,-11.2752 0,4.7219 4.66462,0 c 2.02228,0 3.03342,-0.7822 3.03344,-2.3466 -2e-5,-1.5835 -1.01116,-2.3753 -3.03344,-2.3753 l -4.66462,0 m 0,8.299 0,5.4087 5.1225,0 c 2.11766,0 3.1765,-0.8967 3.17652,-2.69 -2e-5,-1.8124 -1.05886,-2.7186 -3.17652,-2.7187 l -5.1225,0"
           id="path4991"
           style="font-variant:normal;font-weight:600;font-stretch:normal;fill:#4d4d4d;font-family:FreeSans;-inkscape-font-specification:FreeSans Semi-Bold" />
        <path
           d="m 243.58517,1117.8546 0,15.4534 -4.00642,0 0,-15.4534 4.00642,0 m 0,-5.4086 0,3.5771 -4.00642,0 0,-3.5771 4.00642,0"
           id="path4993"
           style="font-variant:normal;font-weight:600;font-stretch:normal;fill:#4d4d4d;font-family:FreeSans;-inkscape-font-specification:FreeSans Semi-Bold" />
        <path
           d="m 254.38239,1118.1694 0,2.6614 -2.23215,0 0,8.4135 c 0,0.6868 0.0858,1.1447 0.25756,1.3737 0.17169,0.2098 0.52464,0.3147 1.05884,0.3147 0.20985,0 0.5151,-0.029 0.91575,-0.086 l 0,2.8045 c -0.64867,0.2099 -1.42133,0.3148 -2.318,0.3148 -2.61372,0 -3.92057,-1.2115 -3.92057,-3.6344 l 0,-9.501 -1.9746,0 0,-2.6614 1.9746,0 0,-4.1495 4.00642,0 0,4.1495 2.23215,0"
           id="path4995"
           style="font-variant:normal;font-weight:600;font-stretch:normal;fill:#4d4d4d;font-family:FreeSans;-inkscape-font-specification:FreeSans Semi-Bold" />
        <path
           d="m 263.65127,1120.8308 c -2.17492,0 -3.26237,1.6885 -3.26237,5.0653 0,1.5072 0.28617,2.69 0.85852,3.5485 0.59142,0.8586 1.3927,1.2878 2.40385,1.2878 0.7822,0 1.3927,-0.2098 1.83151,-0.6296 0.43879,-0.4388 0.7822,-1.1542 1.03023,-2.1463 l 3.83472,0 c -0.1908,1.8506 -0.89669,3.3197 -2.11769,4.4071 -1.20193,1.0684 -2.73773,1.6026 -4.60738,1.6026 -2.28939,0 -4.0732,-0.7059 -5.35144,-2.1177 -1.25916,-1.4118 -1.88874,-3.3959 -1.88874,-5.9524 0,-2.6328 0.63912,-4.6741 1.91736,-6.1241 1.27823,-1.4499 3.07158,-2.1749 5.38005,-2.1749 1.92689,0 3.48176,0.5342 4.66462,1.6025 1.20192,1.0684 1.86965,2.547 2.00322,4.4357 l -3.83472,0 c -0.22895,-1.0111 -0.56282,-1.7265 -1.00161,-2.1463 -0.41973,-0.4388 -1.03977,-0.6582 -1.86013,-0.6582"
           id="path4997"
           style="font-variant:normal;font-weight:600;font-stretch:normal;fill:#4d4d4d;font-family:FreeSans;-inkscape-font-specification:FreeSans Semi-Bold" />
        <path
           d="m 279.98013,1117.5971 c 2.42292,0 4.30212,0.7345 5.63761,2.2035 1.35453,1.45 2.03181,3.4818 2.03183,6.0955 -2e-5,2.4802 -0.68684,4.4452 -2.06045,5.8952 -1.37365,1.4499 -3.23377,2.1749 -5.58038,2.1749 -2.38478,0 -4.25444,-0.725 -5.60899,-2.1749 -1.35455,-1.4691 -2.03183,-3.4723 -2.03183,-6.0097 0,-2.5374 0.67728,-4.531 2.03183,-5.981 1.35455,-1.469 3.21467,-2.2035 5.58038,-2.2035 m 0.0286,3.2337 c -1.08746,0 -1.96506,0.4579 -2.63279,1.3737 -0.66774,0.9157 -1.00161,2.1081 -1.00161,3.5771 0,1.4691 0.33387,2.6614 1.00161,3.5772 0.66773,0.9158 1.54533,1.3736 2.63279,1.3736 1.06837,0 1.93643,-0.4483 2.60418,-1.345 0.6868,-0.9157 1.03021,-2.0986 1.03022,-3.5485 -10e-6,-1.5263 -0.33388,-2.7377 -1.0016,-3.6344 -0.64867,-0.9158 -1.52627,-1.3737 -2.6328,-1.3737"
           id="path4999"
           style="font-variant:normal;font-weight:600;font-stretch:normal;fill:#4d4d4d;font-family:FreeSans;-inkscape-font-specification:FreeSans Semi-Bold" />
        <path
           d="m 294.78332,1117.8546 0,15.4534 -4.00642,0 0,-15.4534 4.00642,0 m 0,-5.4086 0,3.5771 -4.00642,0 0,-3.5771 4.00642,0"
           id="path5001"
           style="font-variant:normal;font-weight:600;font-stretch:normal;fill:#4d4d4d;font-family:FreeSans;-inkscape-font-specification:FreeSans Semi-Bold" />
        <path
           d="m 298.62655,1117.8546 4.00642,0 0,2.2322 c 1.10653,-1.6598 2.65187,-2.4897 4.63601,-2.4897 1.64071,0 2.90941,0.4674 3.8061,1.4022 0.91574,0.9349 1.37362,2.2513 1.37363,3.9492 l 0,10.3595 -4.00642,0 0,-9.5296 c -1e-5,-1.8506 -0.85853,-2.7758 -2.57556,-2.7759 -0.973,10e-5 -1.7552,0.2767 -2.34662,0.8299 -0.59143,0.5533 -0.88714,1.2878 -0.88714,2.2036 l 0,9.272 -4.00642,0 0,-15.4534"
           id="path5003"
           style="font-variant:normal;font-weight:600;font-stretch:normal;fill:#4d4d4d;font-family:FreeSans;-inkscape-font-specification:FreeSans Semi-Bold" />
      </g>
    </g>
  </g>
</svg>
