<?xml version="1.0" encoding="UTF-8" standalone="no"?>
<!-- Created with Inkscape (http://www.inkscape.org/) -->

<svg
   xmlns:dc="http://purl.org/dc/elements/1.1/"
   xmlns:cc="http://creativecommons.org/ns#"
   xmlns:rdf="http://www.w3.org/1999/02/22-rdf-syntax-ns#"
   xmlns:svg="http://www.w3.org/2000/svg"
   xmlns="http://www.w3.org/2000/svg"
   xmlns:xlink="http://www.w3.org/1999/xlink"
   version="1.1"
   width="100"
   height="67.286957"
   id="svg2">
  <defs
     id="defs4">
    <linearGradient
       id="linearGradient5374">
      <stop
         id="stop5376"
         style="stop-color:#5599ff;stop-opacity:1"
         offset="0" />
      <stop
         id="stop5378"
         style="stop-color:#5599ff;stop-opacity:1"
         offset="0.91189343" />
      <stop
         id="stop5380"
         style="stop-color:#416dff;stop-opacity:1"
         offset="1" />
    </linearGradient>
    <linearGradient
       id="linearGradient5358">
      <stop
         id="stop5360"
         style="stop-color:#5599ff;stop-opacity:1"
         offset="0" />
      <stop
         id="stop5366"
         style="stop-color:#5599ff;stop-opacity:1"
         offset="0.80000001" />
      <stop
         id="stop5362"
         style="stop-color:#41efff;stop-opacity:1"
         offset="1" />
    </linearGradient>
    <linearGradient
       id="linearGradient4938">
      <stop
         id="stop4940"
         style="stop-color:#ffffff;stop-opacity:1"
         offset="0" />
      <stop
         id="stop4942"
         style="stop-color:#ffe04b;stop-opacity:1"
         offset="1" />
    </linearGradient>
    <linearGradient
       id="linearGradient4932">
      <stop
         id="stop4934"
         style="stop-color:#fffb88;stop-opacity:1"
         offset="0" />
      <stop
         id="stop4936"
         style="stop-color:#f5c800;stop-opacity:1"
         offset="1" />
    </linearGradient>
    <linearGradient
       id="linearGradient4548">
      <stop
         id="stop4550"
         style="stop-color:#fffb88;stop-opacity:1"
         offset="0" />
      <stop
         id="stop4552"
         style="stop-color:#ffdb3a;stop-opacity:1"
         offset="1" />
    </linearGradient>
    <linearGradient
       id="linearGradient4540">
      <stop
         id="stop4542"
         style="stop-color:#fffe9c;stop-opacity:1"
         offset="0" />
      <stop
         id="stop4544"
         style="stop-color:#ffda2f;stop-opacity:1"
         offset="1" />
    </linearGradient>
    <linearGradient
       id="linearGradient4314">
      <stop
         id="stop4316"
         style="stop-color:#ffffff;stop-opacity:1"
         offset="0" />
      <stop
         id="stop4318"
         style="stop-color:#ffffff;stop-opacity:0"
         offset="1" />
    </linearGradient>
    <linearGradient
       id="linearGradient4296">
      <stop
         id="stop4298"
         style="stop-color:#d5d5d5;stop-opacity:1"
         offset="0" />
      <stop
         id="stop4300"
         style="stop-color:#999999;stop-opacity:1"
         offset="1" />
    </linearGradient>
    <linearGradient
       id="linearGradient3882">
      <stop
         id="stop3884"
         style="stop-color:#1a1a1a;stop-opacity:1"
         offset="0" />
      <stop
         id="stop3886"
         style="stop-color:#333333;stop-opacity:1"
         offset="1" />
    </linearGradient>
    <filter
       color-interpolation-filters="sRGB"
       id="filter3898">
      <feGaussianBlur
         stdDeviation="2.4574829"
         id="feGaussianBlur3900" />
    </filter>
    <radialGradient
       cx="2908.1287"
       cy="4391.582"
       r="280.50607"
       fx="2908.1287"
       fy="4391.582"
       id="radialGradient4304"
       xlink:href="#linearGradient4296"
       gradientUnits="userSpaceOnUse" />
    <radialGradient
       cx="3673.4446"
       cy="4867.5044"
       r="80.964348"
       fx="3673.4446"
       fy="4867.5044"
       id="radialGradient4320"
       xlink:href="#linearGradient4314"
       gradientUnits="userSpaceOnUse"
       gradientTransform="matrix(1,0,0,1.3271106,0,-1592.2125)" />
    <radialGradient
       cx="3676.9507"
       cy="4802.0479"
       r="80.964348"
       fx="3676.9507"
       fy="4802.0479"
       id="radialGradient4322"
       xlink:href="#linearGradient4314"
       gradientUnits="userSpaceOnUse"
       gradientTransform="matrix(-8.6960027,-2.3907611e-6,2.0179805e-6,-7.340074,35645.445,39987.838)" />
    <radialGradient
       cx="3673.4446"
       cy="4867.5044"
       r="80.964348"
       fx="3673.4446"
       fy="4867.5044"
       id="radialGradient4446"
       xlink:href="#linearGradient4314"
       gradientUnits="userSpaceOnUse"
       gradientTransform="matrix(1,0,0,1.3271106,0,-1592.2125)" />
    <radialGradient
       cx="3673.4446"
       cy="4867.5044"
       r="80.964348"
       fx="3673.4446"
       fy="4867.5044"
       id="radialGradient4538"
       xlink:href="#linearGradient4314"
       gradientUnits="userSpaceOnUse"
       gradientTransform="matrix(1,0,0,1.3271106,0,-1592.2125)" />
    <radialGradient
       cx="591.6795"
       cy="935.63947"
       r="91.086601"
       fx="591.6795"
       fy="935.63947"
       id="radialGradient4807"
       xlink:href="#linearGradient4296"
       gradientUnits="userSpaceOnUse"
       gradientTransform="matrix(1.2955528,-0.00683281,0.00989615,1.8763835,-184.12683,-815.43206)" />
    <radialGradient
       cx="591.6795"
       cy="935.63947"
       r="91.086601"
       fx="591.6795"
       fy="935.63947"
       id="radialGradient4809"
       xlink:href="#linearGradient4296"
       gradientUnits="userSpaceOnUse"
       gradientTransform="matrix(1.2955528,-0.00683281,0.00989615,1.8763835,-184.12683,-815.43206)" />
    <radialGradient
       cx="591.6795"
       cy="935.63947"
       r="91.086601"
       fx="591.6795"
       fy="935.63947"
       id="radialGradient4811"
       xlink:href="#linearGradient4296"
       gradientUnits="userSpaceOnUse"
       gradientTransform="matrix(1.2955528,-0.00683281,0.00989615,1.8763835,-184.12683,-815.43206)" />
    <radialGradient
       cx="591.66632"
       cy="933.9494"
       r="91.086601"
       fx="591.66632"
       fy="933.9494"
       id="radialGradient4813"
       xlink:href="#linearGradient4540"
       gradientUnits="userSpaceOnUse"
       gradientTransform="matrix(1.2955897,1.3023396e-4,-1.8860859e-4,1.8764096,-174.71298,-819.57636)" />
    <radialGradient
       cx="579.83356"
       cy="934.47162"
       r="91.086601"
       fx="579.83356"
       fy="934.47162"
       id="radialGradient4815"
       xlink:href="#linearGradient4932"
       gradientUnits="userSpaceOnUse"
       gradientTransform="matrix(1.5245231,-0.00804041,0.00989616,1.8763835,-316.8915,-814.73185)" />
    <radialGradient
       cx="2908.1287"
       cy="4391.582"
       r="280.50607"
       fx="2908.1287"
       fy="4391.582"
       id="radialGradient4817"
       xlink:href="#linearGradient4296"
       gradientUnits="userSpaceOnUse" />
    <radialGradient
       cx="3676.1523"
       cy="4800.293"
       r="80.964348"
       fx="3676.1523"
       fy="4800.293"
       id="radialGradient4926"
       xlink:href="#linearGradient4938"
       gradientUnits="userSpaceOnUse"
       gradientTransform="matrix(-8.6960027,0,0,-4.0117113,35645.455,24004.873)" />
    <radialGradient
       cx="3676.9507"
       cy="4802.0479"
       r="80.964348"
       fx="3676.9507"
       fy="4802.0479"
       id="radialGradient4928"
       xlink:href="#linearGradient4314"
       gradientUnits="userSpaceOnUse"
       gradientTransform="matrix(-8.6960027,-2.3907611e-6,2.0179805e-6,-7.340074,35645.445,39987.838)" />
    <radialGradient
       cx="3673.4446"
       cy="4867.5044"
       r="80.964348"
       fx="3673.4446"
       fy="4867.5044"
       id="radialGradient4930"
       xlink:href="#linearGradient4314"
       gradientUnits="userSpaceOnUse"
       gradientTransform="matrix(1,0,0,1.3271106,0,-1592.2125)" />
    <radialGradient
       cx="3673.4446"
       cy="4867.5044"
       r="80.964348"
       fx="3673.4446"
       fy="4867.5044"
       id="radialGradient5030"
       xlink:href="#linearGradient4314"
       gradientUnits="userSpaceOnUse"
       gradientTransform="matrix(1,0,0,1.3271106,0,-1592.2125)" />
    <radialGradient
       cx="3673.4446"
       cy="4867.5044"
       r="80.964348"
       fx="3673.4446"
       fy="4867.5044"
       id="radialGradient5118"
       xlink:href="#linearGradient4314"
       gradientUnits="userSpaceOnUse"
       gradientTransform="matrix(1,0,0,1.3271106,0,-1592.2125)" />
    <radialGradient
       cx="3673.4446"
       cy="4867.5044"
       r="80.964348"
       fx="3673.4446"
       fy="4867.5044"
       id="radialGradient3513"
       xlink:href="#linearGradient4314"
       gradientUnits="userSpaceOnUse"
       gradientTransform="matrix(1,0,0,1.3271106,0,-1592.2125)" />
    <linearGradient
       x1="-2549.4382"
       y1="1756.4385"
       x2="-2529.3691"
       y2="1756.4385"
       id="linearGradient5206"
       xlink:href="#linearGradient3882"
       gradientUnits="userSpaceOnUse"
       gradientTransform="translate(2209.9329,-1189.9085)" />
    <linearGradient
       x1="253.65529"
       y1="538.69427"
       x2="125.89417"
       y2="538.69427"
       id="linearGradient4815"
       xlink:href="#linearGradient5374"
       gradientUnits="userSpaceOnUse" />
    <radialGradient
       cx="591.6795"
       cy="935.63947"
       r="91.086601"
       fx="591.6795"
       fy="935.63947"
       id="radialGradient4948"
       xlink:href="#linearGradient4296"
       gradientUnits="userSpaceOnUse"
       gradientTransform="matrix(1.2955528,-0.00683281,0.00989615,1.8763835,-184.12683,-815.43206)" />
    <radialGradient
       cx="591.6795"
       cy="935.63947"
       r="91.086601"
       fx="591.6795"
       fy="935.63947"
       id="radialGradient4950"
       xlink:href="#linearGradient4296"
       gradientUnits="userSpaceOnUse"
       gradientTransform="matrix(1.2955528,-0.00683281,0.00989615,1.8763835,-184.12683,-815.43206)" />
    <radialGradient
       cx="3676.9507"
       cy="4802.0479"
       r="80.964348"
       fx="3676.9507"
       fy="4802.0479"
       id="radialGradient4952"
       xlink:href="#linearGradient4314"
       gradientUnits="userSpaceOnUse"
       gradientTransform="matrix(-8.6960027,-2.3907611e-6,2.0179805e-6,-7.340074,35645.445,39987.838)" />
    <radialGradient
       cx="3673.4446"
       cy="4867.5044"
       r="80.964348"
       fx="3673.4446"
       fy="4867.5044"
       id="radialGradient4954"
       xlink:href="#linearGradient4314"
       gradientUnits="userSpaceOnUse"
       gradientTransform="matrix(1,0,0,1.3271106,0,-1592.2125)" />
    <radialGradient
       cx="591.66632"
       cy="933.9494"
       r="91.086601"
       fx="591.66632"
       fy="933.9494"
       id="radialGradient4956"
       xlink:href="#linearGradient4540"
       gradientUnits="userSpaceOnUse"
       gradientTransform="matrix(1.2955897,1.3023396e-4,-1.8860859e-4,1.8764096,-174.71298,-819.57636)" />
    <radialGradient
       cx="579.83356"
       cy="934.47162"
       r="91.086601"
       fx="579.83356"
       fy="934.47162"
       id="radialGradient4958"
       xlink:href="#linearGradient4932"
       gradientUnits="userSpaceOnUse"
       gradientTransform="matrix(1.5245231,-0.00804041,0.00989616,1.8763835,-316.8915,-814.73185)" />
    <radialGradient
       cx="3676.1523"
       cy="4800.293"
       r="80.964348"
       fx="3676.1523"
       fy="4800.293"
       id="radialGradient4960"
       xlink:href="#linearGradient4938"
       gradientUnits="userSpaceOnUse"
       gradientTransform="matrix(-8.6960027,0,0,-4.0117113,35645.455,24004.873)" />
    <radialGradient
       cx="3673.4446"
       cy="4867.5044"
       r="80.964348"
       fx="3673.4446"
       fy="4867.5044"
       id="radialGradient4962"
       xlink:href="#linearGradient4314"
       gradientUnits="userSpaceOnUse"
       gradientTransform="matrix(1,0,0,1.3271106,0,-1592.2125)" />
    <radialGradient
       cx="3673.4446"
       cy="4867.5044"
       r="80.964348"
       fx="3673.4446"
       fy="4867.5044"
       id="radialGradient3676"
       xlink:href="#linearGradient4314"
       gradientUnits="userSpaceOnUse"
       gradientTransform="matrix(1,0,0,1.3271106,0,-1592.2125)" />
    <radialGradient
       cx="3673.4446"
       cy="4867.5044"
       r="80.964348"
       fx="3673.4446"
       fy="4867.5044"
       id="radialGradient3678"
       xlink:href="#linearGradient4314"
       gradientUnits="userSpaceOnUse"
       gradientTransform="matrix(1,0,0,1.3271106,0,-1592.2125)" />
    <radialGradient
       cx="3673.4446"
       cy="4867.5044"
       r="80.964348"
       fx="3673.4446"
       fy="4867.5044"
       id="radialGradient3680"
       xlink:href="#linearGradient4314"
       gradientUnits="userSpaceOnUse"
       gradientTransform="matrix(1,0,0,1.3271106,0,-1592.2125)" />
    <radialGradient
       cx="3673.4446"
       cy="4867.5044"
       r="80.964348"
       fx="3673.4446"
       fy="4867.5044"
       id="radialGradient3682"
       xlink:href="#linearGradient4314"
       gradientUnits="userSpaceOnUse"
       gradientTransform="matrix(1,0,0,1.3271106,0,-1592.2125)" />
    <radialGradient
       cx="3673.4446"
       cy="4867.5044"
       r="80.964348"
       fx="3673.4446"
       fy="4867.5044"
       id="radialGradient3684"
       xlink:href="#linearGradient4314"
       gradientUnits="userSpaceOnUse"
       gradientTransform="matrix(1,0,0,1.3271106,0,-1592.2125)" />
    <radialGradient
       cx="3673.4446"
       cy="4867.5044"
       r="80.964348"
       fx="3673.4446"
       fy="4867.5044"
       id="radialGradient3783"
       xlink:href="#linearGradient4314"
       gradientUnits="userSpaceOnUse"
       gradientTransform="matrix(1,0,0,1.3271106,0,-1592.2125)" />
    <radialGradient
       cx="3673.4446"
       cy="4867.5044"
       r="80.964348"
       fx="3673.4446"
       fy="4867.5044"
       id="radialGradient3785"
       xlink:href="#linearGradient4314"
       gradientUnits="userSpaceOnUse"
       gradientTransform="matrix(1,0,0,1.3271106,0,-1592.2125)" />
    <radialGradient
       cx="3673.4446"
       cy="4867.5044"
       r="80.964348"
       fx="3673.4446"
       fy="4867.5044"
       id="radialGradient3787"
       xlink:href="#linearGradient4314"
       gradientUnits="userSpaceOnUse"
       gradientTransform="matrix(1,0,0,1.3271106,0,-1592.2125)" />
    <radialGradient
       cx="3673.4446"
       cy="4867.5044"
       r="80.964348"
       fx="3673.4446"
       fy="4867.5044"
       id="radialGradient3789"
       xlink:href="#linearGradient4314"
       gradientUnits="userSpaceOnUse"
       gradientTransform="matrix(1,0,0,1.3271106,0,-1592.2125)" />
    <radialGradient
       cx="3673.4446"
       cy="4867.5044"
       r="80.964348"
       fx="3673.4446"
       fy="4867.5044"
       id="radialGradient3791"
       xlink:href="#linearGradient4314"
       gradientUnits="userSpaceOnUse"
       gradientTransform="matrix(1,0,0,1.3271106,0,-1592.2125)" />
    <radialGradient
       cx="3673.4446"
       cy="4867.5044"
       r="80.964348"
       fx="3673.4446"
       fy="4867.5044"
       id="radialGradient3812"
       xlink:href="#linearGradient4314"
       gradientUnits="userSpaceOnUse"
       gradientTransform="matrix(1,0,0,1.3271106,0,-1592.2125)" />
    <radialGradient
       cx="3673.4446"
       cy="4867.5044"
       r="80.964348"
       fx="3673.4446"
       fy="4867.5044"
       id="radialGradient3814"
       xlink:href="#linearGradient4314"
       gradientUnits="userSpaceOnUse"
       gradientTransform="matrix(1,0,0,1.3271106,0,-1592.2125)" />
    <radialGradient
       cx="3673.4446"
       cy="4867.5044"
       r="80.964348"
       fx="3673.4446"
       fy="4867.5044"
       id="radialGradient3816"
       xlink:href="#linearGradient4314"
       gradientUnits="userSpaceOnUse"
       gradientTransform="matrix(1,0,0,1.3271106,0,-1592.2125)" />
    <radialGradient
       cx="3673.4446"
       cy="4867.5044"
       r="80.964348"
       fx="3673.4446"
       fy="4867.5044"
       id="radialGradient3818"
       xlink:href="#linearGradient4314"
       gradientUnits="userSpaceOnUse"
       gradientTransform="matrix(1,0,0,1.3271106,0,-1592.2125)" />
    <radialGradient
       cx="3673.4446"
       cy="4867.5044"
       r="80.964348"
       fx="3673.4446"
       fy="4867.5044"
       id="radialGradient3820"
       xlink:href="#linearGradient4314"
       gradientUnits="userSpaceOnUse"
       gradientTransform="matrix(1,0,0,1.3271106,0,-1592.2125)" />
    <radialGradient
       cx="3673.4446"
       cy="4867.5044"
       r="80.964348"
       fx="3673.4446"
       fy="4867.5044"
       id="radialGradient3940"
       xlink:href="#linearGradient4314"
       gradientUnits="userSpaceOnUse"
       gradientTransform="matrix(1,0,0,1.3271106,0,-1592.2125)" />
    <radialGradient
       cx="3673.4446"
       cy="4867.5044"
       r="80.964348"
       fx="3673.4446"
       fy="4867.5044"
       id="radialGradient3942"
       xlink:href="#linearGradient4314"
       gradientUnits="userSpaceOnUse"
       gradientTransform="matrix(1,0,0,1.3271106,0,-1592.2125)" />
    <radialGradient
       cx="3673.4446"
       cy="4867.5044"
       r="80.964348"
       fx="3673.4446"
       fy="4867.5044"
       id="radialGradient3944"
       xlink:href="#linearGradient4314"
       gradientUnits="userSpaceOnUse"
       gradientTransform="matrix(1,0,0,1.3271106,0,-1592.2125)" />
    <radialGradient
       cx="3673.4446"
       cy="4867.5044"
       r="80.964348"
       fx="3673.4446"
       fy="4867.5044"
       id="radialGradient3946"
       xlink:href="#linearGradient4314"
       gradientUnits="userSpaceOnUse"
       gradientTransform="matrix(1,0,0,1.3271106,0,-1592.2125)" />
    <radialGradient
       cx="3673.4446"
       cy="4867.5044"
       r="80.964348"
       fx="3673.4446"
       fy="4867.5044"
       id="radialGradient3948"
       xlink:href="#linearGradient4314"
       gradientUnits="userSpaceOnUse"
       gradientTransform="matrix(1,0,0,1.3271106,0,-1592.2125)" />
    <radialGradient
       cx="3673.4446"
       cy="4867.5044"
       r="80.964348"
       fx="3673.4446"
       fy="4867.5044"
       id="radialGradient3969"
       xlink:href="#linearGradient4314"
       gradientUnits="userSpaceOnUse"
       gradientTransform="matrix(1,0,0,1.3271106,0,-1592.2125)" />
    <radialGradient
       cx="3673.4446"
       cy="4867.5044"
       r="80.964348"
       fx="3673.4446"
       fy="4867.5044"
       id="radialGradient3971"
       xlink:href="#linearGradient4314"
       gradientUnits="userSpaceOnUse"
       gradientTransform="matrix(1,0,0,1.3271106,0,-1592.2125)" />
    <radialGradient
       cx="3673.4446"
       cy="4867.5044"
       r="80.964348"
       fx="3673.4446"
       fy="4867.5044"
       id="radialGradient3973"
       xlink:href="#linearGradient4314"
       gradientUnits="userSpaceOnUse"
       gradientTransform="matrix(1,0,0,1.3271106,0,-1592.2125)" />
    <radialGradient
       cx="3673.4446"
       cy="4867.5044"
       r="80.964348"
       fx="3673.4446"
       fy="4867.5044"
       id="radialGradient3975"
       xlink:href="#linearGradient4314"
       gradientUnits="userSpaceOnUse"
       gradientTransform="matrix(1,0,0,1.3271106,0,-1592.2125)" />
    <radialGradient
       cx="3673.4446"
       cy="4867.5044"
       r="80.964348"
       fx="3673.4446"
       fy="4867.5044"
       id="radialGradient3977"
       xlink:href="#linearGradient4314"
       gradientUnits="userSpaceOnUse"
       gradientTransform="matrix(1,0,0,1.3271106,0,-1592.2125)" />
    <radialGradient
       cx="3673.4446"
       cy="4867.5044"
       r="80.964348"
       fx="3673.4446"
       fy="4867.5044"
       id="radialGradient3998"
       xlink:href="#linearGradient4314"
       gradientUnits="userSpaceOnUse"
       gradientTransform="matrix(1,0,0,1.3271106,0,-1592.2125)" />
    <radialGradient
       cx="3673.4446"
       cy="4867.5044"
       r="80.964348"
       fx="3673.4446"
       fy="4867.5044"
       id="radialGradient4000"
       xlink:href="#linearGradient4314"
       gradientUnits="userSpaceOnUse"
       gradientTransform="matrix(1,0,0,1.3271106,0,-1592.2125)" />
    <radialGradient
       cx="3673.4446"
       cy="4867.5044"
       r="80.964348"
       fx="3673.4446"
       fy="4867.5044"
       id="radialGradient4002"
       xlink:href="#linearGradient4314"
       gradientUnits="userSpaceOnUse"
       gradientTransform="matrix(1,0,0,1.3271106,0,-1592.2125)" />
    <radialGradient
       cx="3673.4446"
       cy="4867.5044"
       r="80.964348"
       fx="3673.4446"
       fy="4867.5044"
       id="radialGradient4004"
       xlink:href="#linearGradient4314"
       gradientUnits="userSpaceOnUse"
       gradientTransform="matrix(1,0,0,1.3271106,0,-1592.2125)" />
    <radialGradient
       cx="3673.4446"
       cy="4867.5044"
       r="80.964348"
       fx="3673.4446"
       fy="4867.5044"
       id="radialGradient4006"
       xlink:href="#linearGradient4314"
       gradientUnits="userSpaceOnUse"
       gradientTransform="matrix(1,0,0,1.3271106,0,-1592.2125)" />
    <radialGradient
       cx="3673.4446"
       cy="4867.5044"
       r="80.964348"
       fx="3673.4446"
       fy="4867.5044"
       id="radialGradient4050"
       xlink:href="#linearGradient4314"
       gradientUnits="userSpaceOnUse"
       gradientTransform="matrix(1,0,0,1.3271106,0,-1592.2125)" />
    <radialGradient
       cx="3673.4446"
       cy="4867.5044"
       r="80.964348"
       fx="3673.4446"
       fy="4867.5044"
       id="radialGradient4052"
       xlink:href="#linearGradient4314"
       gradientUnits="userSpaceOnUse"
       gradientTransform="matrix(1,0,0,1.3271106,0,-1592.2125)" />
    <radialGradient
       cx="3673.4446"
       cy="4867.5044"
       r="80.964348"
       fx="3673.4446"
       fy="4867.5044"
       id="radialGradient4054"
       xlink:href="#linearGradient4314"
       gradientUnits="userSpaceOnUse"
       gradientTransform="matrix(1,0,0,1.3271106,0,-1592.2125)" />
    <radialGradient
       cx="3673.4446"
       cy="4867.5044"
       r="80.964348"
       fx="3673.4446"
       fy="4867.5044"
       id="radialGradient4056"
       xlink:href="#linearGradient4314"
       gradientUnits="userSpaceOnUse"
       gradientTransform="matrix(1,0,0,1.3271106,0,-1592.2125)" />
    <radialGradient
       cx="3673.4446"
       cy="4867.5044"
       r="80.964348"
       fx="3673.4446"
       fy="4867.5044"
       id="radialGradient4058"
       xlink:href="#linearGradient4314"
       gradientUnits="userSpaceOnUse"
       gradientTransform="matrix(1,0,0,1.3271106,0,-1592.2125)" />
    <radialGradient
       cx="3673.4446"
       cy="4867.5044"
       r="80.964348"
       fx="3673.4446"
       fy="4867.5044"
       id="radialGradient4201"
       xlink:href="#linearGradient4314"
       gradientUnits="userSpaceOnUse"
       gradientTransform="matrix(1,0,0,1.3271106,0,-1592.2125)" />
    <radialGradient
       cx="3673.4446"
       cy="4867.5044"
       r="80.964348"
       fx="3673.4446"
       fy="4867.5044"
       id="radialGradient4203"
       xlink:href="#linearGradient4314"
       gradientUnits="userSpaceOnUse"
       gradientTransform="matrix(1,0,0,1.3271106,0,-1592.2125)" />
    <radialGradient
       cx="3673.4446"
       cy="4867.5044"
       r="80.964348"
       fx="3673.4446"
       fy="4867.5044"
       id="radialGradient4205"
       xlink:href="#linearGradient4314"
       gradientUnits="userSpaceOnUse"
       gradientTransform="matrix(1,0,0,1.3271106,0,-1592.2125)" />
    <radialGradient
       cx="3673.4446"
       cy="4867.5044"
       r="80.964348"
       fx="3673.4446"
       fy="4867.5044"
       id="radialGradient4207"
       xlink:href="#linearGradient4314"
       gradientUnits="userSpaceOnUse"
       gradientTransform="matrix(1,0,0,1.3271106,0,-1592.2125)" />
    <radialGradient
       cx="3673.4446"
       cy="4867.5044"
       r="80.964348"
       fx="3673.4446"
       fy="4867.5044"
       id="radialGradient4209"
       xlink:href="#linearGradient4314"
       gradientUnits="userSpaceOnUse"
       gradientTransform="matrix(1,0,0,1.3271106,0,-1592.2125)" />
    <radialGradient
       cx="3673.4446"
       cy="4867.5044"
       r="80.964348"
       fx="3673.4446"
       fy="4867.5044"
       id="radialGradient4343"
       xlink:href="#linearGradient4314"
       gradientUnits="userSpaceOnUse"
       gradientTransform="matrix(1,0,0,1.3271106,0,-1592.2125)" />
    <radialGradient
       cx="3673.4446"
       cy="4867.5044"
       r="80.964348"
       fx="3673.4446"
       fy="4867.5044"
       id="radialGradient4345"
       xlink:href="#linearGradient4314"
       gradientUnits="userSpaceOnUse"
       gradientTransform="matrix(1,0,0,1.3271106,0,-1592.2125)" />
    <radialGradient
       cx="3673.4446"
       cy="4867.5044"
       r="80.964348"
       fx="3673.4446"
       fy="4867.5044"
       id="radialGradient4347"
       xlink:href="#linearGradient4314"
       gradientUnits="userSpaceOnUse"
       gradientTransform="matrix(1,0,0,1.3271106,0,-1592.2125)" />
    <radialGradient
       cx="3673.4446"
       cy="4867.5044"
       r="80.964348"
       fx="3673.4446"
       fy="4867.5044"
       id="radialGradient4349"
       xlink:href="#linearGradient4314"
       gradientUnits="userSpaceOnUse"
       gradientTransform="matrix(1,0,0,1.3271106,0,-1592.2125)" />
    <radialGradient
       cx="3673.4446"
       cy="4867.5044"
       r="80.964348"
       fx="3673.4446"
       fy="4867.5044"
       id="radialGradient4351"
       xlink:href="#linearGradient4314"
       gradientUnits="userSpaceOnUse"
       gradientTransform="matrix(1,0,0,1.3271106,0,-1592.2125)" />
    <radialGradient
       cx="3673.4446"
       cy="4867.5044"
       r="80.964348"
       fx="3673.4446"
       fy="4867.5044"
       id="radialGradient4697"
       xlink:href="#linearGradient4314"
       gradientUnits="userSpaceOnUse"
       gradientTransform="matrix(1,0,0,1.3271106,0,-1592.2125)" />
    <radialGradient
       cx="3673.4446"
       cy="4867.5044"
       r="80.964348"
       fx="3673.4446"
       fy="4867.5044"
       id="radialGradient4699"
       xlink:href="#linearGradient4314"
       gradientUnits="userSpaceOnUse"
       gradientTransform="matrix(1,0,0,1.3271106,0,-1592.2125)" />
    <radialGradient
       cx="3673.4446"
       cy="4867.5044"
       r="80.964348"
       fx="3673.4446"
       fy="4867.5044"
       id="radialGradient4701"
       xlink:href="#linearGradient4314"
       gradientUnits="userSpaceOnUse"
       gradientTransform="matrix(1,0,0,1.3271106,0,-1592.2125)" />
    <radialGradient
       cx="3673.4446"
       cy="4867.5044"
       r="80.964348"
       fx="3673.4446"
       fy="4867.5044"
       id="radialGradient4703"
       xlink:href="#linearGradient4314"
       gradientUnits="userSpaceOnUse"
       gradientTransform="matrix(1,0,0,1.3271106,0,-1592.2125)" />
    <radialGradient
       cx="3673.4446"
       cy="4867.5044"
       r="80.964348"
       fx="3673.4446"
       fy="4867.5044"
       id="radialGradient4705"
       xlink:href="#linearGradient4314"
       gradientUnits="userSpaceOnUse"
       gradientTransform="matrix(1,0,0,1.3271106,0,-1592.2125)" />
    <radialGradient
       cx="3673.4446"
       cy="4867.5044"
       r="80.964348"
       fx="3673.4446"
       fy="4867.5044"
       id="radialGradient6268"
       xlink:href="#linearGradient4314"
       gradientUnits="userSpaceOnUse"
       gradientTransform="matrix(1,0,0,1.3271106,0,-1592.2125)" />
    <radialGradient
       cx="3673.4446"
       cy="4867.5044"
       r="80.964348"
       fx="3673.4446"
       fy="4867.5044"
       id="radialGradient6270"
       xlink:href="#linearGradient4314"
       gradientUnits="userSpaceOnUse"
       gradientTransform="matrix(1,0,0,1.3271106,0,-1592.2125)" />
    <radialGradient
       cx="3673.4446"
       cy="4867.5044"
       r="80.964348"
       fx="3673.4446"
       fy="4867.5044"
       id="radialGradient6272"
       xlink:href="#linearGradient4314"
       gradientUnits="userSpaceOnUse"
       gradientTransform="matrix(1,0,0,1.3271106,0,-1592.2125)" />
    <radialGradient
       cx="3673.4446"
       cy="4867.5044"
       r="80.964348"
       fx="3673.4446"
       fy="4867.5044"
       id="radialGradient6274"
       xlink:href="#linearGradient4314"
       gradientUnits="userSpaceOnUse"
       gradientTransform="matrix(1,0,0,1.3271106,0,-1592.2125)" />
    <radialGradient
       cx="3673.4446"
       cy="4867.5044"
       r="80.964348"
       fx="3673.4446"
       fy="4867.5044"
       id="radialGradient6450"
       xlink:href="#linearGradient4314"
       gradientUnits="userSpaceOnUse"
       gradientTransform="matrix(1,0,0,1.3271106,0,-1592.2125)" />
    <radialGradient
       cx="3673.4446"
       cy="4867.5044"
       r="80.964348"
       fx="3673.4446"
       fy="4867.5044"
       id="radialGradient6452"
       xlink:href="#linearGradient4314"
       gradientUnits="userSpaceOnUse"
       gradientTransform="matrix(1,0,0,1.3271106,0,-1592.2125)" />
    <radialGradient
       cx="3673.4446"
       cy="4867.5044"
       r="80.964348"
       fx="3673.4446"
       fy="4867.5044"
       id="radialGradient6454"
       xlink:href="#linearGradient4314"
       gradientUnits="userSpaceOnUse"
       gradientTransform="matrix(1,0,0,1.3271106,0,-1592.2125)" />
    <radialGradient
       cx="3673.4446"
       cy="4867.5044"
       r="80.964348"
       fx="3673.4446"
       fy="4867.5044"
       id="radialGradient6456"
       xlink:href="#linearGradient4314"
       gradientUnits="userSpaceOnUse"
       gradientTransform="matrix(1,0,0,1.3271106,0,-1592.2125)" />
    <linearGradient
       x1="-2549.4382"
       y1="1756.4385"
       x2="-2529.3691"
       y2="1756.4385"
       id="linearGradient3815"
       xlink:href="#linearGradient3882"
       gradientUnits="userSpaceOnUse"
       gradientTransform="translate(1798.3732,-1859.7931)" />
    <radialGradient
       cx="579.83356"
       cy="934.47162"
       r="91.086601"
       fx="579.83356"
       fy="934.47162"
       id="radialGradient4057"
       xlink:href="#linearGradient4932"
       gradientUnits="userSpaceOnUse"
       gradientTransform="matrix(0,-0.98249389,-1.2092538,-1.0385634e-8,2090.0866,2134.5903)" />
    <radialGradient
       cx="591.66632"
       cy="933.9494"
       r="91.086601"
       fx="591.66632"
       fy="933.9494"
       id="radialGradient4094"
       xlink:href="#linearGradient4540"
       gradientUnits="userSpaceOnUse"
       gradientTransform="matrix(-0.00775195,1.4423355,-2.0889423,-0.01122718,2916.483,571.80166)" />
    <radialGradient
       cx="591.6795"
       cy="935.63947"
       r="91.086601"
       fx="591.6795"
       fy="935.63947"
       id="radialGradient4097"
       xlink:href="#linearGradient4296"
       gradientUnits="userSpaceOnUse"
       gradientTransform="matrix(0,-0.83493173,-1.2092538,0,1788.5175,2049.0288)" />
    <radialGradient
       cx="591.6795"
       cy="935.63947"
       r="91.086601"
       fx="591.6795"
       fy="935.63947"
       id="radialGradient4134"
       xlink:href="#linearGradient4296"
       gradientUnits="userSpaceOnUse"
       gradientTransform="matrix(-1.1152482e-8,1.4423353,-2.0889724,0,2610.3555,561.29721)" />
    <radialGradient
       cx="591.6795"
       cy="935.63947"
       r="91.086601"
       fx="591.6795"
       fy="935.63947"
       id="radialGradient4171"
       xlink:href="#linearGradient4296"
       gradientUnits="userSpaceOnUse"
       gradientTransform="matrix(-1.1152482e-8,1.4423353,-2.0889724,0,2165.9905,561.29721)" />
  </defs>
  <metadata
     id="metadata7">
    <rdf:RDF>
      <cc:Work
         rdf:about="">
        <dc:format>image/svg+xml</dc:format>
        <dc:type
           rdf:resource="http://purl.org/dc/dcmitype/StillImage" />
        <dc:title></dc:title>
      </cc:Work>
    </rdf:RDF>
  </metadata>
  <g
     transform="matrix(0.87244033,0,0,0.87244033,-712.06344,-428.02595)"
     id="g5090">
    <path
       d="m 875.69548,490.60771 c -13.52435,0 -25.42485,7.00546 -32.3125,17.5625 l 3.625,0 c 6.47101,-8.82596 16.89726,-14.5625 28.6875,-14.5625 9.90705,0 18.87322,4.03444 25.3125,10.5625 l 4,0 c -7.06963,-8.2834 -17.58201,-13.5625 -29.3125,-13.5625 z m -29.34375,63.5625 c 7.07911,8.29345 17.59757,13.5625 29.34375,13.5625 11.74624,0 22.27388,-5.26905 29.34375,-13.5625 l -4.03125,0 c -6.43928,6.51959 -15.40545,10.5625 -25.3125,10.5625 -9.90699,0 -18.86472,-4.04291 -25.3125,-10.5625 l -4.03125,0 z"
       id="path4654"
       style="font-size:medium;font-style:normal;font-variant:normal;font-weight:normal;font-stretch:normal;text-indent:0;text-align:start;text-decoration:none;line-height:normal;letter-spacing:normal;word-spacing:normal;text-transform:none;direction:ltr;block-progression:tb;writing-mode:lr-tb;text-anchor:start;baseline-shift:baseline;color:#000000;fill:#71c837;fill-opacity:1;stroke:none;stroke-width:2.78054214;marker:none;visibility:visible;display:inline;overflow:visible;enable-background:accumulate;font-family:Sans;-inkscape-font-specification:Sans" />
    <g
       transform="translate(264.38298,-97.829788)"
       id="text4646"
       style="font-size:23.31574631px;font-style:normal;font-variant:normal;font-weight:500;font-stretch:normal;line-height:100.99999905%;letter-spacing:0px;word-spacing:0px;fill:#71c837;fill-opacity:1;stroke:none;font-family:Whois;-inkscape-font-specification:Whois Medium">
      <path
         d="m 551.79139,622.91656 0.26185,-1.37754 2.17447,0 2.77785,-14.24218 -2.17447,0 0.26185,-1.37755 9.67695,0 c 1.88983,2e-5 3.30532,0.45161 4.24647,1.35478 0.94111,0.8956 1.26367,2.09858 0.96769,3.60893 -0.29602,1.51796 -1.09294,2.73232 -2.39077,3.64308 -1.29028,0.90319 -2.87653,1.35478 -4.75878,1.35478 l -3.11939,0 -1.10432,5.65816 2.7437,0 -0.26184,1.37754 -9.30126,0 m 8.19695,-8.41325 1.27508,0 c 0.98666,10e-6 1.83671,-0.32635 2.55016,-0.97907 0.71342,-0.6603 1.1764,-1.54072 1.38892,-2.64124 0.2125,-1.09291 0.0911,-1.96194 -0.36431,-2.60708 -0.45539,-0.65271 -1.18022,-0.97907 -2.17446,-0.97908 l -1.27508,0 -1.40031,7.20647"
         id="path4604"
         style="font-style:italic;font-weight:bold;text-align:center;line-height:100.99999905%;letter-spacing:0.81px;text-anchor:middle;fill:#71c837;fill-opacity:1;font-family:DejaVu Serif;-inkscape-font-specification:DejaVu Serif Bold Italic" />
      <path
         d="m 579.61715,612.94362 c -0.0228,-0.45538 -0.25047,-0.68307 -0.68308,-0.68308 -1.01704,10e-6 -2.02268,0.60719 -3.01693,1.82154 -0.46298,0.56165 -0.87662,1.77981 -1.24093,3.65447 -0.27323,1.40411 -0.31118,2.3794 -0.11384,2.92586 0.19733,0.53887 0.65651,0.80831 1.37754,0.80831 0.70584,0 1.27887,-0.31498 1.71908,-0.94493 0.44779,-0.62995 0.8083,-1.65077 1.08154,-3.06247 l 0.87662,-4.5197 m 3.87078,-1.76462 -1.99232,10.36002 1.51416,-0.0228 -0.27323,1.40031 -5.05478,0 0.296,-1.53692 c -0.83488,1.24472 -1.99232,1.86708 -3.47232,1.86708 -1.46482,0 -2.52359,-0.48195 -3.17631,-1.44585 -0.65272,-0.97149 -0.81211,-2.29969 -0.47816,-3.98462 0.32636,-1.69251 1.21816,-3.27118 2.6754,-4.73602 1.72287,-1.73045 3.73795,-2.59568 6.04524,-2.59569 2.27692,10e-6 3.58235,0.2315 3.91632,0.69446"
         id="path4606"
         style="font-style:italic;font-weight:bold;text-align:center;line-height:100.99999905%;letter-spacing:0.81px;text-anchor:middle;fill:#71c837;fill-opacity:1;font-family:DejaVu Serif;-inkscape-font-specification:DejaVu Serif Bold Italic" />
      <path
         d="m 591.62964,626.02457 -3.23324,-13.83234 -1.30923,0 0.27323,-1.37754 4.94093,0 2.70955,11.70341 c 0.87281,-1.2599 1.60143,-2.59949 2.18585,-4.01878 0.5844,-1.42687 1.16501,-3.52164 1.74185,-6.28432 l -1.61662,-0.0114 0.26185,-1.37754 3.26739,-0.0114 c -0.18976,0.9715 -0.42125,2.0834 -0.69447,3.3357 -0.6755,3.08145 -1.43447,5.33561 -2.27692,6.76248 -2.22381,3.71898 -4.22751,5.92001 -6.01109,6.60309 -1.00945,0.38707 -2.24278,0.58061 -3.70001,0.58062 -0.71344,-10e-6 -1.59006,-0.16319 -2.62986,-0.48954 l 0.48954,-2.52739 1.28647,0.0114 c -0.0304,0.18215 -0.0455,0.34913 -0.0455,0.50093 0,0.52369 0.17836,0.86902 0.53508,1.036 0.15938,0.0759 0.40225,0.13661 0.72862,0.18215 0.18215,0.0228 0.3643,0.0341 0.54646,0.0342 0.84246,-10e-6 1.69251,-0.27324 2.55016,-0.8197"
         id="path4608"
         style="font-style:italic;font-weight:bold;text-align:center;line-height:100.99999905%;letter-spacing:0.81px;text-anchor:middle;fill:#71c837;fill-opacity:1;font-family:DejaVu Serif;-inkscape-font-specification:DejaVu Serif Bold Italic" />
      <path
         d="m 624.2614,619.50117 c 0.0683,-0.0607 0.63752,-0.75138 1.7077,-2.072 1.07772,-1.38892 1.83291,-3.13457 2.26554,-5.23694 l -1.59385,0.0228 0.27323,-1.40031 3.09662,0 c -0.43263,2.8993 -1.1233,5.09274 -2.072,6.58032 -1.47243,2.31488 -2.93346,4.1554 -4.38309,5.52155 l -2.77785,0 -1.09293,-7.58217 -4.05293,7.58217 -2.75508,0 -1.58247,-10.72433 -1.32062,0 0.26185,-1.37754 4.96371,0 1.16123,7.92371 4.24647,-7.92371 2.40216,0 1.25231,8.68648"
         id="path4610"
         style="font-style:italic;font-weight:bold;text-align:center;line-height:100.99999905%;letter-spacing:0.81px;text-anchor:middle;fill:#71c837;fill-opacity:1;font-family:DejaVu Serif;-inkscape-font-specification:DejaVu Serif Bold Italic" />
      <path
         d="m 633.5985,607.38791 c 0.12143,-0.61475 0.43261,-1.13085 0.93354,-1.54831 0.50851,-0.42501 1.07015,-0.63752 1.68493,-0.63754 0.59958,2e-5 1.07015,0.21253 1.41169,0.63754 0.25046,0.3112 0.37569,0.67551 0.37569,1.09293 0,0.14422 -0.0152,0.29601 -0.0455,0.45538 -0.11386,0.59961 -0.42504,1.11192 -0.93354,1.53693 -0.50094,0.41745 -1.05119,0.62617 -1.65078,0.62616 -0.61477,10e-6 -1.09293,-0.20871 -1.43446,-0.62616 -0.25806,-0.31117 -0.38708,-0.67547 -0.38708,-1.09293 0,-0.14419 0.0152,-0.29219 0.0455,-0.444 m 1.65077,14.15111 1.73047,0 -0.26185,1.37754 -5.76063,0 2.08339,-10.72433 -1.71908,0 0.26185,-1.37754 5.74924,0 -2.08339,10.72433"
         id="path4612"
         style="font-style:italic;font-weight:bold;text-align:center;line-height:100.99999905%;letter-spacing:0.81px;text-anchor:middle;fill:#71c837;fill-opacity:1;font-family:DejaVu Serif;-inkscape-font-specification:DejaVu Serif Bold Italic" />
      <path
         d="m 642.74205,612.19223 -1.75323,0 0.26185,-1.37754 1.75323,0 0.72862,-3.75693 4.03016,0 -0.72862,3.75693 3.35847,0 -0.26184,1.37754 -3.35847,0 -1.44585,7.4114 c -0.12903,0.6755 -0.19355,1.18401 -0.19354,1.52555 -10e-6,0.20492 0.019,0.35292 0.0569,0.444 0.12143,0.25805 0.40225,0.38708 0.84246,0.38708 0.48574,0 0.87662,-0.16318 1.17262,-0.48954 0.296,-0.32636 0.51989,-0.83108 0.6717,-1.51416 l 1.69631,0 c -0.3036,1.21436 -0.80073,2.06821 -1.49139,2.56154 -0.69068,0.48575 -1.76463,0.72862 -3.22185,0.72862 -1.66216,0 -2.73991,-0.26185 -3.23324,-0.78554 -0.31877,-0.33395 -0.47816,-0.85005 -0.47816,-1.54831 0,-0.37949 0.0493,-0.8159 0.148,-1.30924 l 1.44585,-7.4114"
         id="path4614"
         style="font-style:italic;font-weight:bold;text-align:center;line-height:100.99999905%;letter-spacing:0.81px;text-anchor:middle;fill:#71c837;fill-opacity:1;font-family:DejaVu Serif;-inkscape-font-specification:DejaVu Serif Bold Italic" />
      <path
         d="m 652.24992,622.91656 3.17631,-16.34834 -1.79877,0 0.26185,-1.36616 5.82893,0 -1.42308,7.32033 c 0.62994,-0.72102 1.28646,-1.24092 1.96955,-1.5597 0.68306,-0.31876 1.49896,-0.47814 2.44769,-0.47815 1.35856,10e-6 2.30728,0.40227 2.84616,1.20677 0.34153,0.50852 0.5123,1.17263 0.51231,1.99231 -10e-6,0.46298 -0.0531,0.97529 -0.15938,1.53693 l -1.22954,6.31847 1.73046,0 -0.26184,1.37754 -5.76063,0 1.51415,-7.80986 c 0.10625,-0.53127 0.15938,-0.97907 0.15939,-1.34339 -10e-6,-0.33394 -0.0456,-0.59958 -0.13662,-0.79692 -0.18216,-0.39466 -0.5958,-0.59199 -1.24092,-0.592 -0.81212,1e-5 -1.46863,0.2998 -1.96955,0.89938 -0.49334,0.59201 -0.86524,1.53694 -1.11569,2.83478 l -1.32062,6.80801 -4.03016,0"
         id="path4616"
         style="font-style:italic;font-weight:bold;text-align:center;line-height:100.99999905%;letter-spacing:0.81px;text-anchor:middle;fill:#71c837;fill-opacity:1;font-family:DejaVu Serif;-inkscape-font-specification:DejaVu Serif Bold Italic" />
      <path
         d="m 554.91079,642.33284 0.30738,-1.55969 2.41355,0 1.93538,-9.92741 -2.17446,0 0.26185,-1.37754 10.0754,0 c 2.07199,2e-5 3.55958,0.34914 4.46278,1.04739 0.90317,0.69827 1.21814,1.74945 0.94493,3.15354 -0.19735,1.00945 -0.71346,1.81017 -1.54831,2.40216 -0.8273,0.59201 -1.96197,0.96391 -3.40401,1.1157 1.67732,0.15939 2.89927,0.61477 3.66585,1.36615 0.76655,0.7514 1.0284,1.74945 0.78554,2.99416 -0.32637,1.68493 -1.20299,2.92586 -2.62985,3.72278 -1.42689,0.79693 -3.4951,1.19539 -6.20463,1.19539 l -9.44925,0 0.26185,-1.37754 2.17446,0 0.53508,-2.75509 -2.41354,0 m 7.92371,-5.77201 1.49139,0 c 1.30542,10e-6 2.31866,-0.23527 3.03969,-0.70585 0.72102,-0.47814 1.1764,-1.20676 1.36616,-2.18585 0.18973,-0.98665 0.0228,-1.70389 -0.50092,-2.1517 -0.51612,-0.44778 -1.44586,-0.67167 -2.78924,-0.67169 l -1.49139,0 -1.11569,5.71509 m -1.66216,8.5271 1.628,0 c 1.44964,0 2.58051,-0.28841 3.39263,-0.86524 0.81209,-0.57681 1.33578,-1.46861 1.57108,-2.67539 0.23527,-1.21435 0.0569,-2.12133 -0.53508,-2.72093 -0.58442,-0.59958 -1.59386,-0.89937 -3.02832,-0.89938 l -1.628,0 -0.55785,2.84616 3.79109,0 -0.30739,1.55969 -3.79108,0 -0.53508,2.75509"
         id="path4618"
         style="font-style:italic;font-weight:bold;text-align:center;line-height:100.99999905%;letter-spacing:0.81px;text-anchor:middle;fill:#71c837;fill-opacity:1;font-family:DejaVu Serif;-inkscape-font-specification:DejaVu Serif Bold Italic" />
      <path
         d="m 578.87715,630.93682 c 0.12143,-0.61476 0.43261,-1.13086 0.93354,-1.54831 0.50851,-0.42501 1.07015,-0.63753 1.68492,-0.63754 0.59959,10e-6 1.07015,0.21253 1.4117,0.63754 0.25045,0.31119 0.37568,0.6755 0.37569,1.09292 -10e-6,0.14422 -0.0152,0.29602 -0.0455,0.45539 -0.11385,0.5996 -0.42503,1.11191 -0.93354,1.53692 -0.50093,0.41745 -1.05118,0.62617 -1.65077,0.62616 -0.61477,10e-6 -1.09293,-0.20871 -1.43446,-0.62616 -0.25806,-0.31116 -0.38709,-0.67547 -0.38708,-1.09292 -10e-6,-0.14419 0.0152,-0.29219 0.0455,-0.444 m 1.65077,14.15111 1.73047,0 -0.26185,1.37754 -5.76063,0 2.08339,-10.72433 -1.71908,0 0.26184,-1.37755 5.74925,0 -2.08339,10.72434"
         id="path4620"
         style="font-style:italic;font-weight:bold;text-align:center;line-height:100.99999905%;letter-spacing:0.81px;text-anchor:middle;fill:#71c837;fill-opacity:1;font-family:DejaVu Serif;-inkscape-font-specification:DejaVu Serif Bold Italic" />
      <path
         d="m 588.02071,635.74114 -1.75324,0 0.26185,-1.37755 1.75323,0 0.72862,-3.75693 4.03016,0 -0.72861,3.75693 3.35846,0 -0.26184,1.37755 -3.35847,0 -1.44585,7.4114 c -0.12903,0.67549 -0.19355,1.184 -0.19354,1.52554 -10e-6,0.20492 0.019,0.35293 0.0569,0.444 0.12143,0.25805 0.40225,0.38708 0.84247,0.38708 0.48573,0 0.87661,-0.16318 1.17261,-0.48954 0.296,-0.32636 0.5199,-0.83108 0.6717,-1.51416 l 1.69631,0 c -0.3036,1.21437 -0.80073,2.06821 -1.49139,2.56155 -0.69067,0.48574 -1.76462,0.72861 -3.22185,0.72861 -1.66216,0 -2.73991,-0.26184 -3.23324,-0.78554 -0.31877,-0.33395 -0.47816,-0.85005 -0.47815,-1.54831 -10e-6,-0.37948 0.0493,-0.81589 0.148,-1.30923 l 1.44585,-7.4114"
         id="path4622"
         style="font-style:italic;font-weight:bold;text-align:center;line-height:100.99999905%;letter-spacing:0.81px;text-anchor:middle;fill:#71c837;fill-opacity:1;font-family:DejaVu Serif;-inkscape-font-specification:DejaVu Serif Bold Italic" />
      <path
         d="m 609.4369,642.68577 c -0.55406,1.38134 -1.34339,2.41354 -2.368,3.09662 -1.02463,0.67549 -2.3035,1.01323 -3.83663,1.01323 -2.15549,0 -3.71519,-0.55784 -4.67908,-1.67354 -0.69067,-0.78933 -1.03601,-1.81395 -1.03601,-3.07385 0,-0.50851 0.0569,-1.05497 0.17077,-1.63939 0.38708,-2.00369 1.27508,-3.56718 2.66401,-4.69047 1.38892,-1.12328 3.12318,-1.68492 5.20278,-1.68493 0.84246,10e-6 1.67733,0.0797 2.50462,0.23908 0.82727,0.15939 1.65456,0.39847 2.48185,0.71723 l -0.6603,3.35847 -1.27508,0 c 0.0152,-0.17456 0.0228,-0.34153 0.0228,-0.50093 -2e-5,-0.77414 -0.1594,-1.36994 -0.47816,-1.78738 -0.3795,-0.49333 -1.00186,-0.73999 -1.86708,-0.74001 -1.12329,2e-5 -1.99612,0.3795 -2.61847,1.13847 -0.62237,0.75898 -1.1157,2.07581 -1.48,3.95047 -0.18975,0.97908 -0.28462,1.80637 -0.28462,2.48185 0,0.59201 0.0721,1.07016 0.21631,1.43447 0.31117,0.78933 0.99046,1.184 2.03785,1.184 0.8121,0 1.51035,-0.24287 2.09477,-0.72862 0.58441,-0.48574 1.01702,-1.184 1.29785,-2.09477 l 1.88985,0"
         id="path4624"
         style="font-style:italic;font-weight:bold;text-align:center;line-height:100.99999905%;letter-spacing:0.81px;text-anchor:middle;fill:#71c837;fill-opacity:1;font-family:DejaVu Serif;-inkscape-font-specification:DejaVu Serif Bold Italic" />
      <path
         d="m 618.54631,645.50916 c 0.85005,0 1.51795,-0.36431 2.0037,-1.09293 0.48573,-0.72861 0.91835,-2.06441 1.29785,-4.00739 0.25045,-1.26748 0.37568,-2.27692 0.37569,-3.02832 -1e-5,-0.39465 -0.038,-0.72101 -0.11385,-0.97907 -0.19734,-0.72102 -0.72483,-1.08153 -1.58246,-1.08155 -0.85765,2e-5 -1.53314,0.36812 -2.02647,1.10431 -0.49334,0.72863 -0.92595,2.05684 -1.29785,3.98463 -0.24287,1.24472 -0.36431,2.23898 -0.3643,2.98278 -10e-6,0.41743 0.0379,0.75518 0.11384,1.01323 0.20492,0.73621 0.7362,1.10431 1.59385,1.10431 m 5.08894,-0.40985 c -1.42689,1.13088 -3.20669,1.69631 -5.3394,1.69631 -2.13273,0 -3.69242,-0.56543 -4.67909,-1.69631 -0.71344,-0.81969 -1.07016,-1.85949 -1.07015,-3.11939 -10e-6,-0.48574 0.0531,-1.00943 0.15938,-1.57108 0.38708,-1.9961 1.29405,-3.55579 2.72093,-4.67909 1.43446,-1.13086 3.21805,-1.6963 5.35078,-1.69631 2.1403,10e-6 3.70379,0.56165 4.69047,1.68493 0.71343,0.81211 1.07015,1.84811 1.07016,3.108 -10e-6,0.49335 -0.0569,1.02083 -0.17077,1.58247 -0.38709,1.98852 -1.29786,3.55201 -2.73231,4.69047"
         id="path4626"
         style="font-style:italic;font-weight:bold;text-align:center;line-height:100.99999905%;letter-spacing:0.81px;text-anchor:middle;fill:#71c837;fill-opacity:1;font-family:DejaVu Serif;-inkscape-font-specification:DejaVu Serif Bold Italic" />
      <path
         d="m 631.57203,630.93682 c 0.12143,-0.61476 0.43261,-1.13086 0.93354,-1.54831 0.50851,-0.42501 1.07015,-0.63753 1.68493,-0.63754 0.59958,10e-6 1.07015,0.21253 1.41169,0.63754 0.25046,0.31119 0.37569,0.6755 0.3757,1.09292 -10e-6,0.14422 -0.0152,0.29602 -0.0455,0.45539 -0.11385,0.5996 -0.42503,1.11191 -0.93354,1.53692 -0.50093,0.41745 -1.05119,0.62617 -1.65077,0.62616 -0.61478,10e-6 -1.09293,-0.20871 -1.43447,-0.62616 -0.25805,-0.31116 -0.38708,-0.67547 -0.38708,-1.09292 0,-0.14419 0.0152,-0.29219 0.0455,-0.444 m 1.65077,14.15111 1.73047,0 -0.26185,1.37754 -5.76063,0 2.08339,-10.72433 -1.71908,0 0.26185,-1.37755 5.74924,0 -2.08339,10.72434"
         id="path4628"
         style="font-style:italic;font-weight:bold;text-align:center;line-height:100.99999905%;letter-spacing:0.81px;text-anchor:middle;fill:#71c837;fill-opacity:1;font-family:DejaVu Serif;-inkscape-font-specification:DejaVu Serif Bold Italic" />
      <path
         d="m 639.13312,646.46547 2.08339,-10.72433 -1.71908,0 0.26185,-1.37755 5.74924,0 -0.33015,1.7077 c 0.62994,-0.72102 1.28645,-1.24091 1.96954,-1.5597 0.68307,-0.31875 1.49897,-0.47814 2.4477,-0.47815 1.35855,10e-6 2.30727,0.40227 2.84616,1.20677 0.34911,0.50853 0.52368,1.17263 0.52369,1.99231 -10e-6,0.46299 -0.0569,0.9753 -0.17077,1.53693 l -1.22954,6.31848 1.73047,0 -0.26185,1.37754 -5.76063,0 1.51416,-7.80987 c 0.10624,-0.53127 0.15937,-0.97907 0.15938,-1.34338 -10e-6,-0.33394 -0.0456,-0.59958 -0.13661,-0.79693 -0.18217,-0.39466 -0.59581,-0.59199 -1.24093,-0.592 -0.81211,1e-5 -1.46863,0.29981 -1.96954,0.89939 -0.49334,0.59201 -0.86524,1.53693 -1.1157,2.83477 l -1.32062,6.80802 -4.03016,0"
         id="path4630"
         style="font-style:italic;font-weight:bold;text-align:center;line-height:100.99999905%;letter-spacing:0.81px;text-anchor:middle;fill:#71c837;fill-opacity:1;font-family:DejaVu Serif;-inkscape-font-specification:DejaVu Serif Bold Italic" />
      <path
         d="m 657.27055,644.62116 c 0.11384,-0.592 0.42123,-1.10052 0.92216,-1.52555 0.50851,-0.42502 1.05876,-0.63753 1.65077,-0.63754 0.592,10e-6 1.05877,0.21252 1.40031,0.63754 0.34153,0.42503 0.45538,0.93355 0.34154,1.52555 -0.11385,0.59959 -0.42503,1.1119 -0.93354,1.53692 -0.50852,0.42503 -1.05878,0.63754 -1.65077,0.63754 -0.59201,0 -1.05878,-0.21251 -1.40032,-0.63754 -0.33395,-0.42502 -0.444,-0.93733 -0.33015,-1.53692 m 2.97139,-15.15296 4.26924,0 -3.22185,9.58587 -0.42123,2.16308 -1.58247,0 0.42123,-2.16308 0.53508,-9.58587"
         id="path4632"
         style="font-style:italic;font-weight:bold;text-align:center;line-height:100.99999905%;letter-spacing:0.81px;text-anchor:middle;fill:#71c837;fill-opacity:1;font-family:DejaVu Serif;-inkscape-font-specification:DejaVu Serif Bold Italic" />
    </g>
  </g>
</svg>
