<?xml version="1.0" encoding="UTF-8" standalone="no"?>
<!-- Created with Inkscape (http://www.inkscape.org/) -->

<svg
   xmlns:dc="http://purl.org/dc/elements/1.1/"
   xmlns:cc="http://creativecommons.org/ns#"
   xmlns:rdf="http://www.w3.org/1999/02/22-rdf-syntax-ns#"
   xmlns:svg="http://www.w3.org/2000/svg"
   xmlns="http://www.w3.org/2000/svg"
   xmlns:xlink="http://www.w3.org/1999/xlink"
   version="1.1"
   width="229.65793"
   height="100.5699"
   id="svg2">
  <defs
     id="defs4">
    <linearGradient
       id="linearGradient5374">
      <stop
         id="stop5376"
         style="stop-color:#5599ff;stop-opacity:1"
         offset="0" />
      <stop
         id="stop5378"
         style="stop-color:#5599ff;stop-opacity:1"
         offset="0.91189343" />
      <stop
         id="stop5380"
         style="stop-color:#416dff;stop-opacity:1"
         offset="1" />
    </linearGradient>
    <linearGradient
       id="linearGradient5358">
      <stop
         id="stop5360"
         style="stop-color:#5599ff;stop-opacity:1"
         offset="0" />
      <stop
         id="stop5366"
         style="stop-color:#5599ff;stop-opacity:1"
         offset="0.80000001" />
      <stop
         id="stop5362"
         style="stop-color:#41efff;stop-opacity:1"
         offset="1" />
    </linearGradient>
    <linearGradient
       id="linearGradient4938">
      <stop
         id="stop4940"
         style="stop-color:#ffffff;stop-opacity:1"
         offset="0" />
      <stop
         id="stop4942"
         style="stop-color:#ffe04b;stop-opacity:1"
         offset="1" />
    </linearGradient>
    <linearGradient
       id="linearGradient4932">
      <stop
         id="stop4934"
         style="stop-color:#fffb88;stop-opacity:1"
         offset="0" />
      <stop
         id="stop4936"
         style="stop-color:#f5c800;stop-opacity:1"
         offset="1" />
    </linearGradient>
    <linearGradient
       id="linearGradient4548">
      <stop
         id="stop4550"
         style="stop-color:#fffb88;stop-opacity:1"
         offset="0" />
      <stop
         id="stop4552"
         style="stop-color:#ffdb3a;stop-opacity:1"
         offset="1" />
    </linearGradient>
    <linearGradient
       id="linearGradient4540">
      <stop
         id="stop4542"
         style="stop-color:#fffe9c;stop-opacity:1"
         offset="0" />
      <stop
         id="stop4544"
         style="stop-color:#ffda2f;stop-opacity:1"
         offset="1" />
    </linearGradient>
    <linearGradient
       id="linearGradient4314">
      <stop
         id="stop4316"
         style="stop-color:#ffffff;stop-opacity:1"
         offset="0" />
      <stop
         id="stop4318"
         style="stop-color:#ffffff;stop-opacity:0"
         offset="1" />
    </linearGradient>
    <linearGradient
       id="linearGradient4296">
      <stop
         id="stop4298"
         style="stop-color:#d5d5d5;stop-opacity:1"
         offset="0" />
      <stop
         id="stop4300"
         style="stop-color:#999999;stop-opacity:1"
         offset="1" />
    </linearGradient>
    <linearGradient
       id="linearGradient3882">
      <stop
         id="stop3884"
         style="stop-color:#1a1a1a;stop-opacity:1"
         offset="0" />
      <stop
         id="stop3886"
         style="stop-color:#333333;stop-opacity:1"
         offset="1" />
    </linearGradient>
    <filter
       color-interpolation-filters="sRGB"
       id="filter3898">
      <feGaussianBlur
         id="feGaussianBlur3900"
         stdDeviation="2.4574829" />
    </filter>
    <radialGradient
       cx="2908.1287"
       cy="4391.582"
       r="280.50607"
       fx="2908.1287"
       fy="4391.582"
       id="radialGradient4304"
       xlink:href="#linearGradient4296"
       gradientUnits="userSpaceOnUse" />
    <radialGradient
       cx="3673.4446"
       cy="4867.5044"
       r="80.964348"
       fx="3673.4446"
       fy="4867.5044"
       id="radialGradient4320"
       xlink:href="#linearGradient4314"
       gradientUnits="userSpaceOnUse"
       gradientTransform="matrix(1,0,0,1.3271106,0,-1592.2125)" />
    <radialGradient
       cx="3676.9507"
       cy="4802.0479"
       r="80.964348"
       fx="3676.9507"
       fy="4802.0479"
       id="radialGradient4322"
       xlink:href="#linearGradient4314"
       gradientUnits="userSpaceOnUse"
       gradientTransform="matrix(-8.6960027,-2.3907611e-6,2.0179805e-6,-7.340074,35645.445,39987.838)" />
    <radialGradient
       cx="3673.4446"
       cy="4867.5044"
       r="80.964348"
       fx="3673.4446"
       fy="4867.5044"
       id="radialGradient4446"
       xlink:href="#linearGradient4314"
       gradientUnits="userSpaceOnUse"
       gradientTransform="matrix(1,0,0,1.3271106,0,-1592.2125)" />
    <radialGradient
       cx="3673.4446"
       cy="4867.5044"
       r="80.964348"
       fx="3673.4446"
       fy="4867.5044"
       id="radialGradient4538"
       xlink:href="#linearGradient4314"
       gradientUnits="userSpaceOnUse"
       gradientTransform="matrix(1,0,0,1.3271106,0,-1592.2125)" />
    <radialGradient
       cx="591.6795"
       cy="935.63947"
       r="91.086601"
       fx="591.6795"
       fy="935.63947"
       id="radialGradient4807"
       xlink:href="#linearGradient4296"
       gradientUnits="userSpaceOnUse"
       gradientTransform="matrix(1.2955528,-0.00683281,0.00989615,1.8763835,-184.12683,-815.43206)" />
    <radialGradient
       cx="591.6795"
       cy="935.63947"
       r="91.086601"
       fx="591.6795"
       fy="935.63947"
       id="radialGradient4809"
       xlink:href="#linearGradient4296"
       gradientUnits="userSpaceOnUse"
       gradientTransform="matrix(1.2955528,-0.00683281,0.00989615,1.8763835,-184.12683,-815.43206)" />
    <radialGradient
       cx="591.6795"
       cy="935.63947"
       r="91.086601"
       fx="591.6795"
       fy="935.63947"
       id="radialGradient4811"
       xlink:href="#linearGradient4296"
       gradientUnits="userSpaceOnUse"
       gradientTransform="matrix(1.2955528,-0.00683281,0.00989615,1.8763835,-184.12683,-815.43206)" />
    <radialGradient
       cx="591.66632"
       cy="933.9494"
       r="91.086601"
       fx="591.66632"
       fy="933.9494"
       id="radialGradient4813"
       xlink:href="#linearGradient4540"
       gradientUnits="userSpaceOnUse"
       gradientTransform="matrix(1.2955897,1.3023396e-4,-1.8860859e-4,1.8764096,-174.71298,-819.57636)" />
    <radialGradient
       cx="579.83356"
       cy="934.47162"
       r="91.086601"
       fx="579.83356"
       fy="934.47162"
       id="radialGradient4815"
       xlink:href="#linearGradient4932"
       gradientUnits="userSpaceOnUse"
       gradientTransform="matrix(1.5245231,-0.00804041,0.00989616,1.8763835,-316.8915,-814.73185)" />
    <radialGradient
       cx="2908.1287"
       cy="4391.582"
       r="280.50607"
       fx="2908.1287"
       fy="4391.582"
       id="radialGradient4817"
       xlink:href="#linearGradient4296"
       gradientUnits="userSpaceOnUse" />
    <radialGradient
       cx="3676.1523"
       cy="4800.293"
       r="80.964348"
       fx="3676.1523"
       fy="4800.293"
       id="radialGradient4926"
       xlink:href="#linearGradient4938"
       gradientUnits="userSpaceOnUse"
       gradientTransform="matrix(-8.6960027,0,0,-4.0117113,35645.455,24004.873)" />
    <radialGradient
       cx="3676.9507"
       cy="4802.0479"
       r="80.964348"
       fx="3676.9507"
       fy="4802.0479"
       id="radialGradient4928"
       xlink:href="#linearGradient4314"
       gradientUnits="userSpaceOnUse"
       gradientTransform="matrix(-8.6960027,-2.3907611e-6,2.0179805e-6,-7.340074,35645.445,39987.838)" />
    <radialGradient
       cx="3673.4446"
       cy="4867.5044"
       r="80.964348"
       fx="3673.4446"
       fy="4867.5044"
       id="radialGradient4930"
       xlink:href="#linearGradient4314"
       gradientUnits="userSpaceOnUse"
       gradientTransform="matrix(1,0,0,1.3271106,0,-1592.2125)" />
    <radialGradient
       cx="3673.4446"
       cy="4867.5044"
       r="80.964348"
       fx="3673.4446"
       fy="4867.5044"
       id="radialGradient5030"
       xlink:href="#linearGradient4314"
       gradientUnits="userSpaceOnUse"
       gradientTransform="matrix(1,0,0,1.3271106,0,-1592.2125)" />
    <radialGradient
       cx="3673.4446"
       cy="4867.5044"
       r="80.964348"
       fx="3673.4446"
       fy="4867.5044"
       id="radialGradient5118"
       xlink:href="#linearGradient4314"
       gradientUnits="userSpaceOnUse"
       gradientTransform="matrix(1,0,0,1.3271106,0,-1592.2125)" />
    <radialGradient
       cx="3673.4446"
       cy="4867.5044"
       r="80.964348"
       fx="3673.4446"
       fy="4867.5044"
       id="radialGradient3513"
       xlink:href="#linearGradient4314"
       gradientUnits="userSpaceOnUse"
       gradientTransform="matrix(1,0,0,1.3271106,0,-1592.2125)" />
    <linearGradient
       x1="-2549.4382"
       y1="1756.4385"
       x2="-2529.3691"
       y2="1756.4385"
       id="linearGradient5206"
       xlink:href="#linearGradient3882"
       gradientUnits="userSpaceOnUse"
       gradientTransform="translate(2209.9329,-1189.9085)" />
    <linearGradient
       x1="253.65529"
       y1="538.69427"
       x2="125.89417"
       y2="538.69427"
       id="linearGradient4815"
       xlink:href="#linearGradient5374"
       gradientUnits="userSpaceOnUse" />
    <radialGradient
       cx="591.6795"
       cy="935.63947"
       r="91.086601"
       fx="591.6795"
       fy="935.63947"
       id="radialGradient4948"
       xlink:href="#linearGradient4296"
       gradientUnits="userSpaceOnUse"
       gradientTransform="matrix(1.2955528,-0.00683281,0.00989615,1.8763835,-184.12683,-815.43206)" />
    <radialGradient
       cx="591.6795"
       cy="935.63947"
       r="91.086601"
       fx="591.6795"
       fy="935.63947"
       id="radialGradient4950"
       xlink:href="#linearGradient4296"
       gradientUnits="userSpaceOnUse"
       gradientTransform="matrix(1.2955528,-0.00683281,0.00989615,1.8763835,-184.12683,-815.43206)" />
    <radialGradient
       cx="3676.9507"
       cy="4802.0479"
       r="80.964348"
       fx="3676.9507"
       fy="4802.0479"
       id="radialGradient4952"
       xlink:href="#linearGradient4314"
       gradientUnits="userSpaceOnUse"
       gradientTransform="matrix(-8.6960027,-2.3907611e-6,2.0179805e-6,-7.340074,35645.445,39987.838)" />
    <radialGradient
       cx="3673.4446"
       cy="4867.5044"
       r="80.964348"
       fx="3673.4446"
       fy="4867.5044"
       id="radialGradient4954"
       xlink:href="#linearGradient4314"
       gradientUnits="userSpaceOnUse"
       gradientTransform="matrix(1,0,0,1.3271106,0,-1592.2125)" />
    <radialGradient
       cx="591.66632"
       cy="933.9494"
       r="91.086601"
       fx="591.66632"
       fy="933.9494"
       id="radialGradient4956"
       xlink:href="#linearGradient4540"
       gradientUnits="userSpaceOnUse"
       gradientTransform="matrix(1.2955897,1.3023396e-4,-1.8860859e-4,1.8764096,-174.71298,-819.57636)" />
    <radialGradient
       cx="579.83356"
       cy="934.47162"
       r="91.086601"
       fx="579.83356"
       fy="934.47162"
       id="radialGradient4958"
       xlink:href="#linearGradient4932"
       gradientUnits="userSpaceOnUse"
       gradientTransform="matrix(1.5245231,-0.00804041,0.00989616,1.8763835,-316.8915,-814.73185)" />
    <radialGradient
       cx="3676.1523"
       cy="4800.293"
       r="80.964348"
       fx="3676.1523"
       fy="4800.293"
       id="radialGradient4960"
       xlink:href="#linearGradient4938"
       gradientUnits="userSpaceOnUse"
       gradientTransform="matrix(-8.6960027,0,0,-4.0117113,35645.455,24004.873)" />
    <radialGradient
       cx="3673.4446"
       cy="4867.5044"
       r="80.964348"
       fx="3673.4446"
       fy="4867.5044"
       id="radialGradient4962"
       xlink:href="#linearGradient4314"
       gradientUnits="userSpaceOnUse"
       gradientTransform="matrix(1,0,0,1.3271106,0,-1592.2125)" />
  </defs>
  <metadata
     id="metadata7">
    <rdf:RDF>
      <cc:Work
         rdf:about="">
        <dc:format>image/svg+xml</dc:format>
        <dc:type
           rdf:resource="http://purl.org/dc/dcmitype/StillImage" />
        <dc:title></dc:title>
      </cc:Work>
    </rdf:RDF>
  </metadata>
  <g
     transform="translate(-432.02414,-798.00982)"
     id="layer1">
    <g
       transform="matrix(1.2103185,0,0,1.2103185,2.7392982,60.547624)"
       id="g4530">
      <rect
         width="81.315102"
         height="187.95169"
         ry="9.1982908"
         x="-691.5238"
         y="355.58298"
         transform="matrix(0,-1,1,0,0,0)"
         id="rect4532"
         style="fill:#ffffff;fill-opacity:1;stroke:#ff7e1f;stroke-width:1.7949456;stroke-miterlimit:4;stroke-opacity:1;stroke-dasharray:none" />
      <g
         transform="matrix(1.1382497,0,0,1.1382497,-81.158705,-42.667337)"
         id="g4534">
        <path
           d="m 417.0681,632.69071 c -12.91928,-0.0681 -23.33719,-10.59652 -23.26905,-23.51579 0.0681,-12.91929 10.59652,-23.3372 23.51579,-23.26906 12.91928,0.0681 23.33719,10.59652 23.26905,23.5158 -0.0681,12.91926 -10.59652,23.33717 -23.51579,23.26905 z"
           id="path4536"
           style="fill:#ff7e1f;fill-opacity:1;stroke:none" />
        <g
           transform="matrix(0.12203849,0,0,0.12203849,-31.110145,15.275433)"
           id="g4538"
           style="font-size:294.78219604px;font-style:normal;font-weight:normal;line-height:125%;letter-spacing:0px;word-spacing:0px;fill:#ffffff;fill-opacity:1;stroke:none;font-family:Sans">
          <path
             d="m 3643.4339,4872.3263 0,28.9313 44.9082,0 0,20.7268 -44.9082,0 0,29.0752 41.8855,0 c 14.1057,1e-4 24.5171,-3.2145 31.2343,-9.6437 6.8129,-6.5251 10.2193,-16.4567 10.2195,-29.7949 -2e-4,-13.434 -3.4066,-23.3176 -10.2195,-29.6509 -6.7172,-6.4291 -17.1286,-9.6437 -31.2343,-9.6438 l -41.8855,0 m 0,-88.3771 0,64.7715 38.7189,0 c 12.7623,1e-4 22.2621,-2.6387 28.4995,-7.9165 6.3331,-5.3735 9.4997,-13.5299 9.4998,-24.4692 -10e-5,-10.8431 -3.1667,-18.9515 -9.4998,-24.3253 -6.2374,-5.3735 -15.7372,-8.0603 -28.4995,-8.0605 l -38.7189,0 m -26.1965,-23.8934 66.7866,0 c 19.9591,2e-4 35.3123,4.6061 46.0597,13.8179 10.8431,9.2121 16.2647,22.3103 16.2649,39.2947 -2e-4,13.1463 -2.783,23.6057 -8.3484,31.3781 -5.4697,7.7727 -13.5781,12.6186 -24.3252,14.5376 12.9541,3.0708 22.9817,9.5 30.0827,19.2876 7.1007,9.6918 10.6512,21.8304 10.6513,36.4159 -1e-4,19.1916 -5.9015,34.0171 -17.7042,44.4764 -11.707,10.4594 -28.4036,15.6891 -50.0899,15.6891 l -69.3775,0 0,-52.9687 -24.7571,0 0,-20.7268 24.7571,0 0,-141.2018"
             id="path4540"
             style="font-variant:normal;font-stretch:semi-condensed;text-align:center;line-height:125%;writing-mode:lr-tb;text-anchor:middle;fill:#ffffff;font-family:DejaVu Sans;-inkscape-font-specification:DejaVu Sans Semi-Condensed" />
        </g>
      </g>
      <path
         d="m 431.6407,610.60644 105.60572,0 c 3.66976,0 6.62411,3.78626 6.62411,8.48937 l 0,63.39829 c 0,4.70311 -2.95435,8.48937 -6.62411,8.48937 l -105.60572,0 z"
         id="path4542"
         style="fill:#ff7e1f;fill-opacity:1;stroke:none" />
      <g
         transform="translate(15.325956,4.6609799)"
         id="g4588">
        <g
           transform="translate(53.640848,-36.399147)"
           id="g4544"
           style="font-size:19.49894333px;font-style:normal;font-variant:normal;font-weight:900;font-stretch:normal;text-align:start;line-height:125%;letter-spacing:0px;word-spacing:0px;writing-mode:lr-tb;text-anchor:start;fill:#ffffff;fill-opacity:1;stroke:none;font-family:Lato;-inkscape-font-specification:Lato Heavy">
          <path
             d="m 377.99998,684.57629 0,-14.20498 5.22572,0 c 0.98144,2e-5 1.81664,0.091 2.50562,0.27299 0.68895,0.182 1.25117,0.43874 1.68665,0.77021 0.43547,0.33149 0.7507,0.73447 0.9457,1.20893 0.20148,0.47449 0.30222,1.00421 0.30224,1.58917 -2e-5,0.31849 -0.0455,0.62722 -0.1365,0.9262 -0.091,0.29249 -0.234,0.56872 -0.42897,0.8287 -0.195,0.25999 -0.44524,0.49723 -0.75071,0.71171 -0.3055,0.208 -0.67273,0.38999 -1.10169,0.54597 0.93594,0.2275 1.62815,0.59798 2.07663,1.11144 0.44847,0.50698 0.67271,1.16019 0.67272,1.95965 -10e-6,0.60447 -0.11701,1.16669 -0.35098,1.68665 -0.234,0.51998 -0.57848,0.97495 -1.03345,1.36493 -0.44848,0.38348 -1.0042,0.68571 -1.66716,0.9067 -0.66297,0.21449 -1.42018,0.32173 -2.27162,0.32173 l -5.6742,0 m 3.29533,-6.02517 0,3.53906 2.32037,0 c 0.43547,0 0.7897,-0.0553 1.06269,-0.16574 0.27948,-0.11049 0.49722,-0.25349 0.65322,-0.42898 0.15598,-0.17549 0.26322,-0.37373 0.32173,-0.59472 0.0585,-0.22098 0.0877,-0.44522 0.0877,-0.67271 0,-0.25998 -0.0358,-0.49397 -0.10724,-0.70196 -0.065,-0.20799 -0.182,-0.38348 -0.35098,-0.52647 -0.1625,-0.14299 -0.38024,-0.25348 -0.65322,-0.33149 -0.27299,-0.078 -0.61747,-0.11698 -1.03344,-0.11699 l -2.30087,0 m 0,-2.20338 1.7159,0 c 0.36398,10e-6 0.69221,-0.026 0.9847,-0.078 0.29248,-0.052 0.53946,-0.14298 0.74096,-0.27298 0.20798,-0.12999 0.36397,-0.30873 0.46797,-0.53622 0.11049,-0.22748 0.16574,-0.51346 0.16574,-0.85796 0,-0.33797 -0.0423,-0.61745 -0.12674,-0.83845 -0.0845,-0.22748 -0.21449,-0.40947 -0.38998,-0.54597 -0.1755,-0.13648 -0.39973,-0.23398 -0.67271,-0.29248 -0.26649,-0.0585 -0.58498,-0.0877 -0.95545,-0.0878 l -1.93039,0 0,3.50981"
             id="path4546"
             style="line-height:125%;letter-spacing:0.46332043px;fill:#ffffff;font-family:Lato;-inkscape-font-specification:Lato Heavy" />
          <path
             d="m 394.86679,684.57629 -3.31482,0 0,-14.20498 3.31482,0 0,14.20498"
             id="path4548"
             style="line-height:125%;letter-spacing:0.46332043px;fill:#ffffff;font-family:Lato;-inkscape-font-specification:Lato Heavy" />
          <path
             d="m 408.2835,670.37131 0,2.61286 -3.99728,0 0,11.59212 -3.29532,0 0,-11.59212 -3.99728,0 0,-2.61286 11.28988,0"
             id="path4550"
             style="line-height:125%;letter-spacing:0.46332043px;fill:#ffffff;font-family:Lato;-inkscape-font-specification:Lato Heavy" />
          <path
             d="m 419.09711,680.90074 c 0.078,10e-6 0.15598,0.0163 0.23398,0.0487 0.078,0.026 0.15273,0.0747 0.22424,0.14624 l 1.30643,1.37468 c -0.57198,0.74746 -1.29019,1.31293 -2.15463,1.69641 -0.85797,0.37698 -1.87516,0.56547 -3.05159,0.56547 -1.07895,0 -2.04739,-0.18199 -2.90534,-0.54597 -0.85146,-0.37048 -1.57617,-0.87746 -2.17413,-1.52092 -0.59147,-0.64996 -1.04645,-1.41692 -1.36493,-2.30088 -0.31848,-0.89044 -0.47772,-1.85564 -0.47772,-2.89559 0,-1.05944 0.18199,-2.03113 0.54597,-2.91509 0.36398,-0.89044 0.87095,-1.6574 1.52092,-2.30088 0.65646,-0.64345 1.43966,-1.14392 2.34962,-1.50142 0.90994,-0.35746 1.91414,-0.5362 3.01259,-0.53622 0.53296,2e-5 1.03343,0.0488 1.50141,0.14624 0.47447,0.091 0.91644,0.22101 1.32593,0.38998 0.40947,0.16251 0.78645,0.36075 1.13094,0.59472 0.34447,0.2275 0.64995,0.48099 0.91645,0.76046 l -1.11144,1.49167 c -0.0715,0.091 -0.156,0.1755 -0.25349,0.25349 -0.0975,0.0715 -0.23399,0.10725 -0.40947,0.10724 -0.11701,10e-6 -0.2275,-0.026 -0.33148,-0.078 -0.10401,-0.052 -0.2145,-0.11373 -0.33149,-0.18524 -0.117,-0.078 -0.24699,-0.15923 -0.38998,-0.24373 -0.1365,-0.091 -0.30224,-0.17223 -0.49722,-0.24374 -0.1885,-0.078 -0.41274,-0.14298 -0.67271,-0.19499 -0.2535,-0.052 -0.55248,-0.078 -0.89695,-0.078 -0.59798,2e-5 -1.14395,0.10726 -1.63792,0.32174 -0.49397,0.208 -0.9197,0.51023 -1.27718,0.9067 -0.35098,0.38999 -0.62722,0.86446 -0.8287,1.42342 -0.19499,0.55898 -0.29249,1.18619 -0.29249,1.88165 0,0.72797 0.0975,1.37468 0.29249,1.94014 0.20148,0.56548 0.47122,1.0432 0.80921,1.43318 0.34447,0.38348 0.7442,0.67596 1.19918,0.87745 0.45497,0.20149 0.94244,0.30223 1.46242,0.30223 0.29898,0 0.57196,-0.013 0.81896,-0.039 0.24697,-0.0325 0.47446,-0.0845 0.68246,-0.15599 0.21448,-0.0715 0.41597,-0.16249 0.60447,-0.27298 0.19498,-0.11699 0.38997,-0.25998 0.58497,-0.42898 0.078,-0.065 0.16248,-0.11699 0.25348,-0.15599 0.091,-0.0455 0.18523,-0.0682 0.28274,-0.0682"
             id="path4552"
             style="line-height:125%;letter-spacing:0.46332043px;fill:#ffffff;font-family:Lato;-inkscape-font-specification:Lato Heavy" />
          <path
             d="m 436.83161,677.46893 c -1e-5,1.02695 -0.17875,1.9824 -0.53622,2.86634 -0.35099,0.88396 -0.84821,1.65417 -1.49167,2.31063 -0.64347,0.64996 -1.42018,1.16019 -2.33012,1.53067 -0.90346,0.37048 -1.90766,0.55572 -3.01259,0.55572 -1.10494,0 -2.11239,-0.18524 -3.02233,-0.55572 -0.90996,-0.37048 -1.68991,-0.88071 -2.33988,-1.53067 -0.64346,-0.65646 -1.14394,-1.42667 -1.50141,-2.31063 -0.35099,-0.88394 -0.52648,-1.83939 -0.52648,-2.86634 0,-1.02694 0.17549,-1.98238 0.52648,-2.86635 0.35747,-0.88394 0.85795,-1.65089 1.50141,-2.30087 0.64997,-0.64995 1.42992,-1.16017 2.33988,-1.53067 0.90994,-0.37046 1.91739,-0.5557 3.02233,-0.55572 1.10493,2e-5 2.10913,0.18851 3.01259,0.56547 0.90994,0.37049 1.68665,0.88072 2.33012,1.53067 0.64346,0.64997 1.14068,1.41693 1.49167,2.30087 0.35747,0.88397 0.53621,1.83616 0.53622,2.8566 m -3.37331,0 c -1e-5,-0.70196 -0.091,-1.33242 -0.27299,-1.8914 -0.182,-0.56546 -0.44524,-1.04318 -0.78971,-1.43317 -0.33799,-0.38997 -0.75396,-0.68895 -1.24793,-0.89695 -0.49398,-0.20798 -1.0562,-0.31197 -1.68666,-0.31199 -0.63697,2e-5 -1.20569,0.10401 -1.70615,0.31199 -0.49398,0.208 -0.91321,0.50698 -1.25769,0.89695 -0.33798,0.38999 -0.59797,0.86771 -0.77995,1.43317 -0.182,0.55898 -0.27299,1.18944 -0.27299,1.8914 0,0.70847 0.091,1.34543 0.27299,1.9109 0.18198,0.55897 0.44197,1.03344 0.77995,1.42342 0.34448,0.38998 0.76371,0.68896 1.25769,0.89695 0.50046,0.20149 1.06918,0.30224 1.70615,0.30223 0.63046,10e-6 1.19268,-0.10074 1.68666,-0.30223 0.49397,-0.20799 0.90994,-0.50697 1.24793,-0.89695 0.34447,-0.38998 0.60771,-0.86445 0.78971,-1.42342 0.18198,-0.56547 0.27298,-1.20243 0.27299,-1.9109"
             id="path4554"
             style="line-height:125%;letter-spacing:0.46332043px;fill:#ffffff;font-family:Lato;-inkscape-font-specification:Lato Heavy" />
          <path
             d="m 442.49689,684.57629 -3.31482,0 0,-14.20498 3.31482,0 0,14.20498"
             id="path4556"
             style="line-height:125%;letter-spacing:0.46332043px;fill:#ffffff;font-family:Lato;-inkscape-font-specification:Lato Heavy" />
          <path
             d="m 447.33407,670.37131 c 0.14299,2e-5 0.26323,0.007 0.36073,0.0195 0.0975,0.013 0.18524,0.039 0.26323,0.078 0.078,0.0325 0.15274,0.0813 0.22424,0.14624 0.0715,0.065 0.15274,0.15276 0.24374,0.26324 l 6.74663,8.53078 c -0.026,-0.27298 -0.0455,-0.53621 -0.0585,-0.7897 -0.013,-0.25998 -0.0195,-0.50372 -0.0195,-0.73121 l 0,-7.51685 2.90534,0 0,14.20498 -1.71591,0 c -0.25349,0 -0.46798,-0.039 -0.64346,-0.11699 -0.1755,-0.078 -0.34449,-0.22099 -0.50697,-0.42898 l -6.69789,-8.46254 c 0.0195,0.247 0.0357,0.49073 0.0487,0.73121 0.013,0.234 0.0195,0.45499 0.0195,0.66297 l 0,7.61433 -2.90535,0 0,-14.20498 1.73541,0 0,0"
             id="path4559"
             style="line-height:125%;letter-spacing:0.46332043px;fill:#ffffff;font-family:Lato;-inkscape-font-specification:Lato Heavy" />
        </g>
        <g
           transform="translate(53.640848,-36.399147)"
           id="g4561"
           style="font-size:9.55197525px;font-style:normal;font-variant:normal;font-weight:900;font-stretch:normal;text-align:start;line-height:125%;letter-spacing:0px;word-spacing:0px;writing-mode:lr-tb;text-anchor:start;fill:#ffffff;fill-opacity:1;stroke:none;font-family:Lato;-inkscape-font-specification:Lato Heavy">
          <path
             d="m 385.03981,694.91718 -1.25131,0 c -0.1401,0 -0.25632,-0.0318 -0.34865,-0.0955 -0.0892,-0.0669 -0.15125,-0.15124 -0.18626,-0.25313 l -0.41074,-1.2131 -2.6459,0 -0.41073,1.2131 c -0.0318,0.0892 -0.0939,0.17034 -0.18626,0.24357 -0.0923,0.0701 -0.20537,0.10508 -0.3391,0.10508 l -1.26086,0 2.69366,-6.95862 1.65249,0 2.69366,6.95862 m -4.47033,-2.66023 1.90084,0 -0.63998,-1.90562 c -0.0414,-0.12099 -0.0907,-0.26267 -0.14805,-0.42506 -0.0541,-0.16556 -0.10826,-0.34387 -0.16239,-0.53491 -0.0509,0.19423 -0.10348,0.37412 -0.1576,0.53968 -0.0541,0.16558 -0.10508,0.30886 -0.15284,0.42984 l -0.63998,1.89607"
             id="path4563"
             style="line-height:125%;letter-spacing:0.43030873px;fill:#ffffff;font-family:Lato;-inkscape-font-specification:Lato Heavy" />
          <path
             d="m 390.42311,693.11663 c 0.0382,0 0.0764,0.008 0.11463,0.0239 0.0382,0.0127 0.0748,0.0366 0.10984,0.0716 l 0.63999,0.67341 c -0.2802,0.36616 -0.63203,0.64317 -1.0555,0.83102 -0.42029,0.18468 -0.91858,0.27701 -1.49488,0.27701 -0.52855,0 -1.00296,-0.0892 -1.42325,-0.26745 -0.4171,-0.18149 -0.77212,-0.42984 -1.06504,-0.74506 -0.28975,-0.3184 -0.51262,-0.69411 -0.66864,-1.12713 -0.15602,-0.43621 -0.23402,-0.90903 -0.23402,-1.41847 0,-0.51899 0.0891,-0.99499 0.26745,-1.42802 0.17831,-0.4362 0.42666,-0.81191 0.74506,-1.12713 0.32158,-0.31521 0.70525,-0.56038 1.15101,-0.73551 0.44576,-0.17511 0.93768,-0.26267 1.47578,-0.26267 0.26108,0 0.50625,0.0239 0.7355,0.0716 0.23243,0.0446 0.44894,0.10826 0.64954,0.19103 0.20058,0.0796 0.38525,0.17672 0.55401,0.29134 0.16875,0.11145 0.31839,0.23562 0.44894,0.37253 l -0.54446,0.73072 c -0.035,0.0446 -0.0764,0.086 -0.12417,0.12418 -0.0478,0.035 -0.11463,0.0525 -0.2006,0.0525 -0.0573,10e-6 -0.11144,-0.0127 -0.16238,-0.0382 -0.051,-0.0255 -0.10508,-0.0557 -0.16238,-0.0907 -0.0573,-0.0382 -0.121,-0.078 -0.19104,-0.1194 -0.0669,-0.0446 -0.14806,-0.0844 -0.24358,-0.1194 -0.0923,-0.0382 -0.20219,-0.07 -0.32954,-0.0955 -0.12418,-0.0255 -0.27064,-0.0382 -0.43939,-0.0382 -0.29293,0 -0.56039,0.0525 -0.80237,0.1576 -0.24198,0.1019 -0.45054,0.24995 -0.62565,0.44417 -0.17194,0.19104 -0.30726,0.42348 -0.40596,0.69729 -0.0955,0.27383 -0.14328,0.58109 -0.14328,0.92177 0,0.35661 0.0478,0.67342 0.14328,0.95042 0.0987,0.27701 0.23084,0.51103 0.39641,0.70207 0.16874,0.18786 0.36456,0.33114 0.58744,0.42984 0.22288,0.0987 0.46168,0.14806 0.7164,0.14806 0.14646,0 0.28019,-0.006 0.40118,-0.0191 0.12099,-0.0159 0.23243,-0.0414 0.33432,-0.0764 0.10507,-0.035 0.20377,-0.0796 0.29611,-0.13373 0.0955,-0.0573 0.19104,-0.12736 0.28656,-0.21014 0.0382,-0.0318 0.0796,-0.0573 0.12418,-0.0764 0.0446,-0.0223 0.0907,-0.0334 0.1385,-0.0334"
             id="path4565"
             style="line-height:125%;letter-spacing:0.43030873px;fill:#ffffff;font-family:Lato;-inkscape-font-specification:Lato Heavy" />
          <path
             d="m 397.1219,693.11663 c 0.0382,0 0.0764,0.008 0.11463,0.0239 0.0382,0.0127 0.0748,0.0366 0.10985,0.0716 l 0.63998,0.67341 c -0.2802,0.36616 -0.63203,0.64317 -1.0555,0.83102 -0.42029,0.18468 -0.91858,0.27701 -1.49488,0.27701 -0.52855,0 -1.00296,-0.0892 -1.42324,-0.26745 -0.41711,-0.18149 -0.77212,-0.42984 -1.06505,-0.74506 -0.28974,-0.3184 -0.51262,-0.69411 -0.66864,-1.12713 -0.15601,-0.43621 -0.23402,-0.90903 -0.23402,-1.41847 0,-0.51899 0.0892,-0.99499 0.26745,-1.42802 0.17831,-0.4362 0.42666,-0.81191 0.74506,-1.12713 0.32158,-0.31521 0.70525,-0.56038 1.15101,-0.73551 0.44576,-0.17511 0.93768,-0.26267 1.47578,-0.26267 0.26108,0 0.50625,0.0239 0.7355,0.0716 0.23243,0.0446 0.44894,0.10826 0.64954,0.19103 0.20058,0.0796 0.38526,0.17672 0.55401,0.29134 0.16875,0.11145 0.3184,0.23562 0.44895,0.37253 l -0.54447,0.73072 c -0.035,0.0446 -0.0764,0.086 -0.12417,0.12418 -0.0478,0.035 -0.11463,0.0525 -0.20059,0.0525 -0.0573,10e-6 -0.11145,-0.0127 -0.16239,-0.0382 -0.051,-0.0255 -0.10507,-0.0557 -0.16238,-0.0907 -0.0573,-0.0382 -0.121,-0.078 -0.19104,-0.1194 -0.0669,-0.0446 -0.14806,-0.0844 -0.24358,-0.1194 -0.0923,-0.0382 -0.20218,-0.07 -0.32954,-0.0955 -0.12418,-0.0255 -0.27064,-0.0382 -0.43939,-0.0382 -0.29293,0 -0.56039,0.0525 -0.80237,0.1576 -0.24198,0.1019 -0.45053,0.24995 -0.62565,0.44417 -0.17194,0.19104 -0.30726,0.42348 -0.40596,0.69729 -0.0955,0.27383 -0.14328,0.58109 -0.14328,0.92177 0,0.35661 0.0478,0.67342 0.14328,0.95042 0.0987,0.27701 0.23084,0.51103 0.39641,0.70207 0.16875,0.18786 0.36456,0.33114 0.58744,0.42984 0.22288,0.0987 0.46168,0.14806 0.7164,0.14806 0.14646,0 0.28019,-0.006 0.40119,-0.0191 0.12098,-0.0159 0.23242,-0.0414 0.33431,-0.0764 0.10507,-0.035 0.20378,-0.0796 0.29612,-0.13373 0.0955,-0.0573 0.19103,-0.12736 0.28655,-0.21014 0.0382,-0.0318 0.0796,-0.0573 0.12418,-0.0764 0.0446,-0.0223 0.0907,-0.0334 0.1385,-0.0334"
             id="path4567"
             style="line-height:125%;letter-spacing:0.43030873px;fill:#ffffff;font-family:Lato;-inkscape-font-specification:Lato Heavy" />
          <path
             d="m 403.62488,687.95856 0,1.24176 -2.85604,0 0,1.62383 2.1874,0 0,1.194 -2.1874,0 0,1.65727 2.85604,0 0,1.24176 -4.47988,0 0,-6.95862 4.47988,0"
             id="path4569"
             style="line-height:125%;letter-spacing:0.43030873px;fill:#ffffff;font-family:Lato;-inkscape-font-specification:Lato Heavy" />
          <path
             d="m 406.58124,692.59127 0,2.32591 -1.61428,0 0,-6.95862 2.45485,0 c 0.49033,10e-6 0.91062,0.0589 1.26086,0.17671 0.35342,0.11463 0.64317,0.27383 0.86923,0.4776 0.22925,0.20378 0.398,0.44417 0.50626,0.72118 0.10825,0.27701 0.16238,0.5763 0.16238,0.89788 0,0.34706 -0.0557,0.66546 -0.16716,0.9552 -0.11144,0.28975 -0.28179,0.5381 -0.51103,0.74505 -0.22925,0.20697 -0.52059,0.36935 -0.874,0.48715 -0.35025,0.11463 -0.76576,0.17194 -1.24654,0.17194 l -0.84057,0 m 0,-1.21788 0.84057,0 c 0.42029,10e-6 0.72277,-0.10029 0.90744,-0.30088 0.18467,-0.20059 0.277,-0.48078 0.27701,-0.84058 -1e-5,-0.15919 -0.0239,-0.30406 -0.0716,-0.43461 -0.0478,-0.13054 -0.121,-0.24198 -0.2197,-0.33432 -0.0955,-0.0955 -0.2181,-0.16875 -0.36775,-0.2197 -0.14647,-0.0509 -0.32158,-0.0764 -0.52536,-0.0764 l -0.84057,0 0,2.2065"
             id="path4571"
             style="line-height:125%;letter-spacing:0.43030873px;fill:#ffffff;font-family:Lato;-inkscape-font-specification:Lato Heavy" />
          <path
             d="m 416.55084,687.95856 0,1.27997 -1.95816,0 0,5.67865 -1.61428,0 0,-5.67865 -1.95816,0 0,-1.27997 5.5306,0"
             id="path4573"
             style="line-height:125%;letter-spacing:0.43030873px;fill:#ffffff;font-family:Lato;-inkscape-font-specification:Lato Heavy" />
          <path
             d="m 422.13548,687.95856 0,1.24176 -2.85604,0 0,1.62383 2.1874,0 0,1.194 -2.1874,0 0,1.65727 2.85604,0 0,1.24176 -4.47988,0 0,-6.95862 4.47988,0"
             id="path4575"
             style="line-height:125%;letter-spacing:0.43030873px;fill:#ffffff;font-family:Lato;-inkscape-font-specification:Lato Heavy" />
          <path
             d="m 429.79141,691.43548 c 0,0.50307 -0.0876,0.96794 -0.26268,1.39459 -0.17194,0.42347 -0.41551,0.79122 -0.73072,1.10325 -0.31522,0.30885 -0.69571,0.55083 -1.14146,0.72595 -0.44258,0.17194 -0.93451,0.25791 -1.47578,0.25791 l -2.70321,0 0,-6.95862 2.70321,0 c 0.54127,10e-6 1.0332,0.0876 1.47578,0.26268 0.44575,0.17513 0.82624,0.41711 1.14146,0.72595 0.31521,0.30885 0.55878,0.6766 0.73072,1.10325 0.17512,0.42348 0.26268,0.88516 0.26268,1.38504 m -1.65249,0 c 0,-0.34387 -0.0446,-0.65431 -0.13373,-0.93132 -0.0892,-0.277 -0.21811,-0.51102 -0.38685,-0.70207 -0.16557,-0.19422 -0.36935,-0.34227 -0.61133,-0.44416 -0.24199,-0.10507 -0.5174,-0.15761 -0.82624,-0.15761 l -1.07938,0 0,4.4751 1.07938,0 c 0.30884,0 0.58425,-0.0509 0.82624,-0.15283 0.24198,-0.10507 0.44576,-0.25313 0.61133,-0.44417 0.16874,-0.19422 0.2977,-0.42984 0.38685,-0.70685 0.0891,-0.277 0.13373,-0.58903 0.13373,-0.93609"
             id="path4577"
             style="line-height:125%;letter-spacing:0.43030873px;fill:#ffffff;font-family:Lato;-inkscape-font-specification:Lato Heavy" />
          <path
             d="m 439.34955,694.91718 -1.62384,0 0,-2.94201 -2.82738,0 0,2.94201 -1.62384,0 0,-6.95862 1.62384,0 0,2.90858 2.82738,0 0,-2.90858 1.62384,0 0,6.95862"
             id="path4579"
             style="line-height:125%;letter-spacing:0.43030873px;fill:#ffffff;font-family:Lato;-inkscape-font-specification:Lato Heavy" />
          <path
             d="m 445.40463,687.95856 0,1.24176 -2.85604,0 0,1.62383 2.1874,0 0,1.194 -2.1874,0 0,1.65727 2.85604,0 0,1.24176 -4.47988,0 0,-6.95862 4.47988,0"
             id="path4581"
             style="line-height:125%;letter-spacing:0.43030873px;fill:#ffffff;font-family:Lato;-inkscape-font-specification:Lato Heavy" />
          <path
             d="m 448.36099,692.34292 0,2.57426 -1.61429,0 0,-6.95862 2.26382,0 c 0.50307,10e-6 0.93131,0.0525 1.28474,0.15761 0.3566,0.10189 0.64635,0.24517 0.86923,0.42984 0.22606,0.18468 0.39003,0.40278 0.49193,0.65431 0.10188,0.25154 0.15282,0.52536 0.15283,0.82147 -1e-5,0.22607 -0.0303,0.43939 -0.0907,0.63998 -0.0605,0.2006 -0.15125,0.38686 -0.27224,0.55879 -0.11781,0.16876 -0.26427,0.32 -0.43939,0.45372 -0.17194,0.13373 -0.37094,0.24358 -0.59699,0.32954 0.10825,0.0541 0.20854,0.121 0.30088,0.20059 0.0955,0.0796 0.1783,0.17672 0.24835,0.29134 l 1.48056,2.42143 -1.46145,0 c -0.27065,0 -0.46487,-0.10189 -0.58267,-0.30567 l -1.15579,-2.02024 c -0.051,-0.0892 -0.11144,-0.15283 -0.18149,-0.19104 -0.0669,-0.0382 -0.16239,-0.0573 -0.28656,-0.0573 l -0.41073,0 m 0,-1.11281 0.64953,0 c 0.21969,10e-6 0.40596,-0.0271 0.55879,-0.0812 0.15601,-0.0573 0.28337,-0.13531 0.38208,-0.23402 0.0987,-0.0987 0.17034,-0.21333 0.21492,-0.34387 0.0446,-0.13373 0.0669,-0.27701 0.0669,-0.42984 0,-0.30566 -0.1003,-0.54446 -0.30088,-0.7164 -0.19741,-0.17193 -0.50467,-0.2579 -0.92177,-0.2579 l -0.64953,0 0,2.06322"
             id="path4584"
             style="line-height:125%;letter-spacing:0.43030873px;fill:#ffffff;font-family:Lato;-inkscape-font-specification:Lato Heavy" />
          <path
             d="m 457.99999,687.95856 0,1.24176 -2.85604,0 0,1.62383 2.18741,0 0,1.194 -2.18741,0 0,1.65727 2.85604,0 0,1.24176 -4.47987,0 0,-6.95862 4.47987,0"
             id="path4586"
             style="line-height:125%;letter-spacing:0.43030873px;fill:#ffffff;font-family:Lato;-inkscape-font-specification:Lato Heavy" />
        </g>
      </g>
    </g>
  </g>
</svg>
