<?xml version="1.0" encoding="UTF-8" standalone="no"?>
<!-- Created with Inkscape (http://www.inkscape.org/) -->

<svg
   xmlns:dc="http://purl.org/dc/elements/1.1/"
   xmlns:cc="http://creativecommons.org/ns#"
   xmlns:rdf="http://www.w3.org/1999/02/22-rdf-syntax-ns#"
   xmlns:svg="http://www.w3.org/2000/svg"
   xmlns="http://www.w3.org/2000/svg"
   xmlns:xlink="http://www.w3.org/1999/xlink"
   version="1.1"
   width="100.0078"
   height="100.0078"
   id="svg2">
  <defs
     id="defs4">
    <linearGradient
       id="linearGradient5374">
      <stop
         id="stop5376"
         style="stop-color:#5599ff;stop-opacity:1"
         offset="0" />
      <stop
         id="stop5378"
         style="stop-color:#5599ff;stop-opacity:1"
         offset="0.91189343" />
      <stop
         id="stop5380"
         style="stop-color:#416dff;stop-opacity:1"
         offset="1" />
    </linearGradient>
    <linearGradient
       id="linearGradient5358">
      <stop
         id="stop5360"
         style="stop-color:#5599ff;stop-opacity:1"
         offset="0" />
      <stop
         id="stop5366"
         style="stop-color:#5599ff;stop-opacity:1"
         offset="0.80000001" />
      <stop
         id="stop5362"
         style="stop-color:#41efff;stop-opacity:1"
         offset="1" />
    </linearGradient>
    <linearGradient
       id="linearGradient4938">
      <stop
         id="stop4940"
         style="stop-color:#ffffff;stop-opacity:1"
         offset="0" />
      <stop
         id="stop4942"
         style="stop-color:#ffe04b;stop-opacity:1"
         offset="1" />
    </linearGradient>
    <linearGradient
       id="linearGradient4932">
      <stop
         id="stop4934"
         style="stop-color:#fffb88;stop-opacity:1"
         offset="0" />
      <stop
         id="stop4936"
         style="stop-color:#f5c800;stop-opacity:1"
         offset="1" />
    </linearGradient>
    <linearGradient
       id="linearGradient4548">
      <stop
         id="stop4550"
         style="stop-color:#fffb88;stop-opacity:1"
         offset="0" />
      <stop
         id="stop4552"
         style="stop-color:#ffdb3a;stop-opacity:1"
         offset="1" />
    </linearGradient>
    <linearGradient
       id="linearGradient4540">
      <stop
         id="stop4542"
         style="stop-color:#fffe9c;stop-opacity:1"
         offset="0" />
      <stop
         id="stop4544"
         style="stop-color:#ffda2f;stop-opacity:1"
         offset="1" />
    </linearGradient>
    <linearGradient
       id="linearGradient4314">
      <stop
         id="stop4316"
         style="stop-color:#ffffff;stop-opacity:1"
         offset="0" />
      <stop
         id="stop4318"
         style="stop-color:#ffffff;stop-opacity:0"
         offset="1" />
    </linearGradient>
    <linearGradient
       id="linearGradient4296">
      <stop
         id="stop4298"
         style="stop-color:#d5d5d5;stop-opacity:1"
         offset="0" />
      <stop
         id="stop4300"
         style="stop-color:#999999;stop-opacity:1"
         offset="1" />
    </linearGradient>
    <linearGradient
       id="linearGradient3882">
      <stop
         id="stop3884"
         style="stop-color:#1a1a1a;stop-opacity:1"
         offset="0" />
      <stop
         id="stop3886"
         style="stop-color:#333333;stop-opacity:1"
         offset="1" />
    </linearGradient>
    <filter
       color-interpolation-filters="sRGB"
       id="filter3898">
      <feGaussianBlur
         id="feGaussianBlur3900"
         stdDeviation="2.4574829" />
    </filter>
    <radialGradient
       cx="2908.1287"
       cy="4391.582"
       r="280.50607"
       fx="2908.1287"
       fy="4391.582"
       id="radialGradient4304"
       xlink:href="#linearGradient4296"
       gradientUnits="userSpaceOnUse" />
    <radialGradient
       cx="3673.4446"
       cy="4867.5044"
       r="80.964348"
       fx="3673.4446"
       fy="4867.5044"
       id="radialGradient4320"
       xlink:href="#linearGradient4314"
       gradientUnits="userSpaceOnUse"
       gradientTransform="matrix(1,0,0,1.3271106,0,-1592.2125)" />
    <radialGradient
       cx="3676.9507"
       cy="4802.0479"
       r="80.964348"
       fx="3676.9507"
       fy="4802.0479"
       id="radialGradient4322"
       xlink:href="#linearGradient4314"
       gradientUnits="userSpaceOnUse"
       gradientTransform="matrix(-8.6960027,-2.3907611e-6,2.0179805e-6,-7.340074,35645.445,39987.838)" />
    <radialGradient
       cx="3673.4446"
       cy="4867.5044"
       r="80.964348"
       fx="3673.4446"
       fy="4867.5044"
       id="radialGradient4446"
       xlink:href="#linearGradient4314"
       gradientUnits="userSpaceOnUse"
       gradientTransform="matrix(1,0,0,1.3271106,0,-1592.2125)" />
    <radialGradient
       cx="3673.4446"
       cy="4867.5044"
       r="80.964348"
       fx="3673.4446"
       fy="4867.5044"
       id="radialGradient4538"
       xlink:href="#linearGradient4314"
       gradientUnits="userSpaceOnUse"
       gradientTransform="matrix(1,0,0,1.3271106,0,-1592.2125)" />
    <radialGradient
       cx="591.6795"
       cy="935.63947"
       r="91.086601"
       fx="591.6795"
       fy="935.63947"
       id="radialGradient4807"
       xlink:href="#linearGradient4296"
       gradientUnits="userSpaceOnUse"
       gradientTransform="matrix(1.2955528,-0.00683281,0.00989615,1.8763835,-184.12683,-815.43206)" />
    <radialGradient
       cx="591.6795"
       cy="935.63947"
       r="91.086601"
       fx="591.6795"
       fy="935.63947"
       id="radialGradient4809"
       xlink:href="#linearGradient4296"
       gradientUnits="userSpaceOnUse"
       gradientTransform="matrix(1.2955528,-0.00683281,0.00989615,1.8763835,-184.12683,-815.43206)" />
    <radialGradient
       cx="591.6795"
       cy="935.63947"
       r="91.086601"
       fx="591.6795"
       fy="935.63947"
       id="radialGradient4811"
       xlink:href="#linearGradient4296"
       gradientUnits="userSpaceOnUse"
       gradientTransform="matrix(1.2955528,-0.00683281,0.00989615,1.8763835,-184.12683,-815.43206)" />
    <radialGradient
       cx="591.66632"
       cy="933.9494"
       r="91.086601"
       fx="591.66632"
       fy="933.9494"
       id="radialGradient4813"
       xlink:href="#linearGradient4540"
       gradientUnits="userSpaceOnUse"
       gradientTransform="matrix(1.2955897,1.3023396e-4,-1.8860859e-4,1.8764096,-174.71298,-819.57636)" />
    <radialGradient
       cx="579.83356"
       cy="934.47162"
       r="91.086601"
       fx="579.83356"
       fy="934.47162"
       id="radialGradient4815"
       xlink:href="#linearGradient4932"
       gradientUnits="userSpaceOnUse"
       gradientTransform="matrix(1.5245231,-0.00804041,0.00989616,1.8763835,-316.8915,-814.73185)" />
    <radialGradient
       cx="2908.1287"
       cy="4391.582"
       r="280.50607"
       fx="2908.1287"
       fy="4391.582"
       id="radialGradient4817"
       xlink:href="#linearGradient4296"
       gradientUnits="userSpaceOnUse" />
    <radialGradient
       cx="3676.1523"
       cy="4800.293"
       r="80.964348"
       fx="3676.1523"
       fy="4800.293"
       id="radialGradient4926"
       xlink:href="#linearGradient4938"
       gradientUnits="userSpaceOnUse"
       gradientTransform="matrix(-8.6960027,0,0,-4.0117113,35645.455,24004.873)" />
    <radialGradient
       cx="3676.9507"
       cy="4802.0479"
       r="80.964348"
       fx="3676.9507"
       fy="4802.0479"
       id="radialGradient4928"
       xlink:href="#linearGradient4314"
       gradientUnits="userSpaceOnUse"
       gradientTransform="matrix(-8.6960027,-2.3907611e-6,2.0179805e-6,-7.340074,35645.445,39987.838)" />
    <radialGradient
       cx="3673.4446"
       cy="4867.5044"
       r="80.964348"
       fx="3673.4446"
       fy="4867.5044"
       id="radialGradient4930"
       xlink:href="#linearGradient4314"
       gradientUnits="userSpaceOnUse"
       gradientTransform="matrix(1,0,0,1.3271106,0,-1592.2125)" />
    <radialGradient
       cx="3673.4446"
       cy="4867.5044"
       r="80.964348"
       fx="3673.4446"
       fy="4867.5044"
       id="radialGradient5030"
       xlink:href="#linearGradient4314"
       gradientUnits="userSpaceOnUse"
       gradientTransform="matrix(1,0,0,1.3271106,0,-1592.2125)" />
    <radialGradient
       cx="3673.4446"
       cy="4867.5044"
       r="80.964348"
       fx="3673.4446"
       fy="4867.5044"
       id="radialGradient5118"
       xlink:href="#linearGradient4314"
       gradientUnits="userSpaceOnUse"
       gradientTransform="matrix(1,0,0,1.3271106,0,-1592.2125)" />
    <radialGradient
       cx="3673.4446"
       cy="4867.5044"
       r="80.964348"
       fx="3673.4446"
       fy="4867.5044"
       id="radialGradient3513"
       xlink:href="#linearGradient4314"
       gradientUnits="userSpaceOnUse"
       gradientTransform="matrix(1,0,0,1.3271106,0,-1592.2125)" />
    <linearGradient
       x1="-2549.4382"
       y1="1756.4385"
       x2="-2529.3691"
       y2="1756.4385"
       id="linearGradient5206"
       xlink:href="#linearGradient3882"
       gradientUnits="userSpaceOnUse"
       gradientTransform="translate(2209.9329,-1189.9085)" />
    <linearGradient
       x1="253.65529"
       y1="538.69427"
       x2="125.89417"
       y2="538.69427"
       id="linearGradient4815"
       xlink:href="#linearGradient5374"
       gradientUnits="userSpaceOnUse" />
    <radialGradient
       cx="591.6795"
       cy="935.63947"
       r="91.086601"
       fx="591.6795"
       fy="935.63947"
       id="radialGradient4948"
       xlink:href="#linearGradient4296"
       gradientUnits="userSpaceOnUse"
       gradientTransform="matrix(1.2955528,-0.00683281,0.00989615,1.8763835,-184.12683,-815.43206)" />
    <radialGradient
       cx="591.6795"
       cy="935.63947"
       r="91.086601"
       fx="591.6795"
       fy="935.63947"
       id="radialGradient4950"
       xlink:href="#linearGradient4296"
       gradientUnits="userSpaceOnUse"
       gradientTransform="matrix(1.2955528,-0.00683281,0.00989615,1.8763835,-184.12683,-815.43206)" />
    <radialGradient
       cx="3676.9507"
       cy="4802.0479"
       r="80.964348"
       fx="3676.9507"
       fy="4802.0479"
       id="radialGradient4952"
       xlink:href="#linearGradient4314"
       gradientUnits="userSpaceOnUse"
       gradientTransform="matrix(-8.6960027,-2.3907611e-6,2.0179805e-6,-7.340074,35645.445,39987.838)" />
    <radialGradient
       cx="3673.4446"
       cy="4867.5044"
       r="80.964348"
       fx="3673.4446"
       fy="4867.5044"
       id="radialGradient4954"
       xlink:href="#linearGradient4314"
       gradientUnits="userSpaceOnUse"
       gradientTransform="matrix(1,0,0,1.3271106,0,-1592.2125)" />
    <radialGradient
       cx="591.66632"
       cy="933.9494"
       r="91.086601"
       fx="591.66632"
       fy="933.9494"
       id="radialGradient4956"
       xlink:href="#linearGradient4540"
       gradientUnits="userSpaceOnUse"
       gradientTransform="matrix(1.2955897,1.3023396e-4,-1.8860859e-4,1.8764096,-174.71298,-819.57636)" />
    <radialGradient
       cx="579.83356"
       cy="934.47162"
       r="91.086601"
       fx="579.83356"
       fy="934.47162"
       id="radialGradient4958"
       xlink:href="#linearGradient4932"
       gradientUnits="userSpaceOnUse"
       gradientTransform="matrix(1.5245231,-0.00804041,0.00989616,1.8763835,-316.8915,-814.73185)" />
    <radialGradient
       cx="3676.1523"
       cy="4800.293"
       r="80.964348"
       fx="3676.1523"
       fy="4800.293"
       id="radialGradient4960"
       xlink:href="#linearGradient4938"
       gradientUnits="userSpaceOnUse"
       gradientTransform="matrix(-8.6960027,0,0,-4.0117113,35645.455,24004.873)" />
    <radialGradient
       cx="3673.4446"
       cy="4867.5044"
       r="80.964348"
       fx="3673.4446"
       fy="4867.5044"
       id="radialGradient4962"
       xlink:href="#linearGradient4314"
       gradientUnits="userSpaceOnUse"
       gradientTransform="matrix(1,0,0,1.3271106,0,-1592.2125)" />
    <radialGradient
       cx="3673.4446"
       cy="4867.5044"
       r="80.964348"
       fx="3673.4446"
       fy="4867.5044"
       id="radialGradient3676"
       xlink:href="#linearGradient4314"
       gradientUnits="userSpaceOnUse"
       gradientTransform="matrix(1,0,0,1.3271106,0,-1592.2125)" />
    <radialGradient
       cx="3673.4446"
       cy="4867.5044"
       r="80.964348"
       fx="3673.4446"
       fy="4867.5044"
       id="radialGradient3678"
       xlink:href="#linearGradient4314"
       gradientUnits="userSpaceOnUse"
       gradientTransform="matrix(1,0,0,1.3271106,0,-1592.2125)" />
    <radialGradient
       cx="3673.4446"
       cy="4867.5044"
       r="80.964348"
       fx="3673.4446"
       fy="4867.5044"
       id="radialGradient3680"
       xlink:href="#linearGradient4314"
       gradientUnits="userSpaceOnUse"
       gradientTransform="matrix(1,0,0,1.3271106,0,-1592.2125)" />
    <radialGradient
       cx="3673.4446"
       cy="4867.5044"
       r="80.964348"
       fx="3673.4446"
       fy="4867.5044"
       id="radialGradient3682"
       xlink:href="#linearGradient4314"
       gradientUnits="userSpaceOnUse"
       gradientTransform="matrix(1,0,0,1.3271106,0,-1592.2125)" />
    <radialGradient
       cx="3673.4446"
       cy="4867.5044"
       r="80.964348"
       fx="3673.4446"
       fy="4867.5044"
       id="radialGradient3684"
       xlink:href="#linearGradient4314"
       gradientUnits="userSpaceOnUse"
       gradientTransform="matrix(1,0,0,1.3271106,0,-1592.2125)" />
    <radialGradient
       cx="3673.4446"
       cy="4867.5044"
       r="80.964348"
       fx="3673.4446"
       fy="4867.5044"
       id="radialGradient3783"
       xlink:href="#linearGradient4314"
       gradientUnits="userSpaceOnUse"
       gradientTransform="matrix(1,0,0,1.3271106,0,-1592.2125)" />
    <radialGradient
       cx="3673.4446"
       cy="4867.5044"
       r="80.964348"
       fx="3673.4446"
       fy="4867.5044"
       id="radialGradient3785"
       xlink:href="#linearGradient4314"
       gradientUnits="userSpaceOnUse"
       gradientTransform="matrix(1,0,0,1.3271106,0,-1592.2125)" />
    <radialGradient
       cx="3673.4446"
       cy="4867.5044"
       r="80.964348"
       fx="3673.4446"
       fy="4867.5044"
       id="radialGradient3787"
       xlink:href="#linearGradient4314"
       gradientUnits="userSpaceOnUse"
       gradientTransform="matrix(1,0,0,1.3271106,0,-1592.2125)" />
    <radialGradient
       cx="3673.4446"
       cy="4867.5044"
       r="80.964348"
       fx="3673.4446"
       fy="4867.5044"
       id="radialGradient3789"
       xlink:href="#linearGradient4314"
       gradientUnits="userSpaceOnUse"
       gradientTransform="matrix(1,0,0,1.3271106,0,-1592.2125)" />
    <radialGradient
       cx="3673.4446"
       cy="4867.5044"
       r="80.964348"
       fx="3673.4446"
       fy="4867.5044"
       id="radialGradient3791"
       xlink:href="#linearGradient4314"
       gradientUnits="userSpaceOnUse"
       gradientTransform="matrix(1,0,0,1.3271106,0,-1592.2125)" />
    <radialGradient
       cx="3673.4446"
       cy="4867.5044"
       r="80.964348"
       fx="3673.4446"
       fy="4867.5044"
       id="radialGradient3812"
       xlink:href="#linearGradient4314"
       gradientUnits="userSpaceOnUse"
       gradientTransform="matrix(1,0,0,1.3271106,0,-1592.2125)" />
    <radialGradient
       cx="3673.4446"
       cy="4867.5044"
       r="80.964348"
       fx="3673.4446"
       fy="4867.5044"
       id="radialGradient3814"
       xlink:href="#linearGradient4314"
       gradientUnits="userSpaceOnUse"
       gradientTransform="matrix(1,0,0,1.3271106,0,-1592.2125)" />
    <radialGradient
       cx="3673.4446"
       cy="4867.5044"
       r="80.964348"
       fx="3673.4446"
       fy="4867.5044"
       id="radialGradient3816"
       xlink:href="#linearGradient4314"
       gradientUnits="userSpaceOnUse"
       gradientTransform="matrix(1,0,0,1.3271106,0,-1592.2125)" />
    <radialGradient
       cx="3673.4446"
       cy="4867.5044"
       r="80.964348"
       fx="3673.4446"
       fy="4867.5044"
       id="radialGradient3818"
       xlink:href="#linearGradient4314"
       gradientUnits="userSpaceOnUse"
       gradientTransform="matrix(1,0,0,1.3271106,0,-1592.2125)" />
    <radialGradient
       cx="3673.4446"
       cy="4867.5044"
       r="80.964348"
       fx="3673.4446"
       fy="4867.5044"
       id="radialGradient3820"
       xlink:href="#linearGradient4314"
       gradientUnits="userSpaceOnUse"
       gradientTransform="matrix(1,0,0,1.3271106,0,-1592.2125)" />
    <radialGradient
       cx="3673.4446"
       cy="4867.5044"
       r="80.964348"
       fx="3673.4446"
       fy="4867.5044"
       id="radialGradient3940"
       xlink:href="#linearGradient4314"
       gradientUnits="userSpaceOnUse"
       gradientTransform="matrix(1,0,0,1.3271106,0,-1592.2125)" />
    <radialGradient
       cx="3673.4446"
       cy="4867.5044"
       r="80.964348"
       fx="3673.4446"
       fy="4867.5044"
       id="radialGradient3942"
       xlink:href="#linearGradient4314"
       gradientUnits="userSpaceOnUse"
       gradientTransform="matrix(1,0,0,1.3271106,0,-1592.2125)" />
    <radialGradient
       cx="3673.4446"
       cy="4867.5044"
       r="80.964348"
       fx="3673.4446"
       fy="4867.5044"
       id="radialGradient3944"
       xlink:href="#linearGradient4314"
       gradientUnits="userSpaceOnUse"
       gradientTransform="matrix(1,0,0,1.3271106,0,-1592.2125)" />
    <radialGradient
       cx="3673.4446"
       cy="4867.5044"
       r="80.964348"
       fx="3673.4446"
       fy="4867.5044"
       id="radialGradient3946"
       xlink:href="#linearGradient4314"
       gradientUnits="userSpaceOnUse"
       gradientTransform="matrix(1,0,0,1.3271106,0,-1592.2125)" />
    <radialGradient
       cx="3673.4446"
       cy="4867.5044"
       r="80.964348"
       fx="3673.4446"
       fy="4867.5044"
       id="radialGradient3948"
       xlink:href="#linearGradient4314"
       gradientUnits="userSpaceOnUse"
       gradientTransform="matrix(1,0,0,1.3271106,0,-1592.2125)" />
    <radialGradient
       cx="3673.4446"
       cy="4867.5044"
       r="80.964348"
       fx="3673.4446"
       fy="4867.5044"
       id="radialGradient3969"
       xlink:href="#linearGradient4314"
       gradientUnits="userSpaceOnUse"
       gradientTransform="matrix(1,0,0,1.3271106,0,-1592.2125)" />
    <radialGradient
       cx="3673.4446"
       cy="4867.5044"
       r="80.964348"
       fx="3673.4446"
       fy="4867.5044"
       id="radialGradient3971"
       xlink:href="#linearGradient4314"
       gradientUnits="userSpaceOnUse"
       gradientTransform="matrix(1,0,0,1.3271106,0,-1592.2125)" />
    <radialGradient
       cx="3673.4446"
       cy="4867.5044"
       r="80.964348"
       fx="3673.4446"
       fy="4867.5044"
       id="radialGradient3973"
       xlink:href="#linearGradient4314"
       gradientUnits="userSpaceOnUse"
       gradientTransform="matrix(1,0,0,1.3271106,0,-1592.2125)" />
    <radialGradient
       cx="3673.4446"
       cy="4867.5044"
       r="80.964348"
       fx="3673.4446"
       fy="4867.5044"
       id="radialGradient3975"
       xlink:href="#linearGradient4314"
       gradientUnits="userSpaceOnUse"
       gradientTransform="matrix(1,0,0,1.3271106,0,-1592.2125)" />
    <radialGradient
       cx="3673.4446"
       cy="4867.5044"
       r="80.964348"
       fx="3673.4446"
       fy="4867.5044"
       id="radialGradient3977"
       xlink:href="#linearGradient4314"
       gradientUnits="userSpaceOnUse"
       gradientTransform="matrix(1,0,0,1.3271106,0,-1592.2125)" />
    <radialGradient
       cx="3673.4446"
       cy="4867.5044"
       r="80.964348"
       fx="3673.4446"
       fy="4867.5044"
       id="radialGradient3998"
       xlink:href="#linearGradient4314"
       gradientUnits="userSpaceOnUse"
       gradientTransform="matrix(1,0,0,1.3271106,0,-1592.2125)" />
    <radialGradient
       cx="3673.4446"
       cy="4867.5044"
       r="80.964348"
       fx="3673.4446"
       fy="4867.5044"
       id="radialGradient4000"
       xlink:href="#linearGradient4314"
       gradientUnits="userSpaceOnUse"
       gradientTransform="matrix(1,0,0,1.3271106,0,-1592.2125)" />
    <radialGradient
       cx="3673.4446"
       cy="4867.5044"
       r="80.964348"
       fx="3673.4446"
       fy="4867.5044"
       id="radialGradient4002"
       xlink:href="#linearGradient4314"
       gradientUnits="userSpaceOnUse"
       gradientTransform="matrix(1,0,0,1.3271106,0,-1592.2125)" />
    <radialGradient
       cx="3673.4446"
       cy="4867.5044"
       r="80.964348"
       fx="3673.4446"
       fy="4867.5044"
       id="radialGradient4004"
       xlink:href="#linearGradient4314"
       gradientUnits="userSpaceOnUse"
       gradientTransform="matrix(1,0,0,1.3271106,0,-1592.2125)" />
    <radialGradient
       cx="3673.4446"
       cy="4867.5044"
       r="80.964348"
       fx="3673.4446"
       fy="4867.5044"
       id="radialGradient4006"
       xlink:href="#linearGradient4314"
       gradientUnits="userSpaceOnUse"
       gradientTransform="matrix(1,0,0,1.3271106,0,-1592.2125)" />
    <radialGradient
       cx="3673.4446"
       cy="4867.5044"
       r="80.964348"
       fx="3673.4446"
       fy="4867.5044"
       id="radialGradient4050"
       xlink:href="#linearGradient4314"
       gradientUnits="userSpaceOnUse"
       gradientTransform="matrix(1,0,0,1.3271106,0,-1592.2125)" />
    <radialGradient
       cx="3673.4446"
       cy="4867.5044"
       r="80.964348"
       fx="3673.4446"
       fy="4867.5044"
       id="radialGradient4052"
       xlink:href="#linearGradient4314"
       gradientUnits="userSpaceOnUse"
       gradientTransform="matrix(1,0,0,1.3271106,0,-1592.2125)" />
    <radialGradient
       cx="3673.4446"
       cy="4867.5044"
       r="80.964348"
       fx="3673.4446"
       fy="4867.5044"
       id="radialGradient4054"
       xlink:href="#linearGradient4314"
       gradientUnits="userSpaceOnUse"
       gradientTransform="matrix(1,0,0,1.3271106,0,-1592.2125)" />
    <radialGradient
       cx="3673.4446"
       cy="4867.5044"
       r="80.964348"
       fx="3673.4446"
       fy="4867.5044"
       id="radialGradient4056"
       xlink:href="#linearGradient4314"
       gradientUnits="userSpaceOnUse"
       gradientTransform="matrix(1,0,0,1.3271106,0,-1592.2125)" />
    <radialGradient
       cx="3673.4446"
       cy="4867.5044"
       r="80.964348"
       fx="3673.4446"
       fy="4867.5044"
       id="radialGradient4058"
       xlink:href="#linearGradient4314"
       gradientUnits="userSpaceOnUse"
       gradientTransform="matrix(1,0,0,1.3271106,0,-1592.2125)" />
    <radialGradient
       cx="3673.4446"
       cy="4867.5044"
       r="80.964348"
       fx="3673.4446"
       fy="4867.5044"
       id="radialGradient4201"
       xlink:href="#linearGradient4314"
       gradientUnits="userSpaceOnUse"
       gradientTransform="matrix(1,0,0,1.3271106,0,-1592.2125)" />
    <radialGradient
       cx="3673.4446"
       cy="4867.5044"
       r="80.964348"
       fx="3673.4446"
       fy="4867.5044"
       id="radialGradient4203"
       xlink:href="#linearGradient4314"
       gradientUnits="userSpaceOnUse"
       gradientTransform="matrix(1,0,0,1.3271106,0,-1592.2125)" />
    <radialGradient
       cx="3673.4446"
       cy="4867.5044"
       r="80.964348"
       fx="3673.4446"
       fy="4867.5044"
       id="radialGradient4205"
       xlink:href="#linearGradient4314"
       gradientUnits="userSpaceOnUse"
       gradientTransform="matrix(1,0,0,1.3271106,0,-1592.2125)" />
    <radialGradient
       cx="3673.4446"
       cy="4867.5044"
       r="80.964348"
       fx="3673.4446"
       fy="4867.5044"
       id="radialGradient4207"
       xlink:href="#linearGradient4314"
       gradientUnits="userSpaceOnUse"
       gradientTransform="matrix(1,0,0,1.3271106,0,-1592.2125)" />
    <radialGradient
       cx="3673.4446"
       cy="4867.5044"
       r="80.964348"
       fx="3673.4446"
       fy="4867.5044"
       id="radialGradient4209"
       xlink:href="#linearGradient4314"
       gradientUnits="userSpaceOnUse"
       gradientTransform="matrix(1,0,0,1.3271106,0,-1592.2125)" />
    <radialGradient
       cx="3673.4446"
       cy="4867.5044"
       r="80.964348"
       fx="3673.4446"
       fy="4867.5044"
       id="radialGradient4343"
       xlink:href="#linearGradient4314"
       gradientUnits="userSpaceOnUse"
       gradientTransform="matrix(1,0,0,1.3271106,0,-1592.2125)" />
    <radialGradient
       cx="3673.4446"
       cy="4867.5044"
       r="80.964348"
       fx="3673.4446"
       fy="4867.5044"
       id="radialGradient4345"
       xlink:href="#linearGradient4314"
       gradientUnits="userSpaceOnUse"
       gradientTransform="matrix(1,0,0,1.3271106,0,-1592.2125)" />
    <radialGradient
       cx="3673.4446"
       cy="4867.5044"
       r="80.964348"
       fx="3673.4446"
       fy="4867.5044"
       id="radialGradient4347"
       xlink:href="#linearGradient4314"
       gradientUnits="userSpaceOnUse"
       gradientTransform="matrix(1,0,0,1.3271106,0,-1592.2125)" />
    <radialGradient
       cx="3673.4446"
       cy="4867.5044"
       r="80.964348"
       fx="3673.4446"
       fy="4867.5044"
       id="radialGradient4349"
       xlink:href="#linearGradient4314"
       gradientUnits="userSpaceOnUse"
       gradientTransform="matrix(1,0,0,1.3271106,0,-1592.2125)" />
    <radialGradient
       cx="3673.4446"
       cy="4867.5044"
       r="80.964348"
       fx="3673.4446"
       fy="4867.5044"
       id="radialGradient4351"
       xlink:href="#linearGradient4314"
       gradientUnits="userSpaceOnUse"
       gradientTransform="matrix(1,0,0,1.3271106,0,-1592.2125)" />
    <radialGradient
       cx="3673.4446"
       cy="4867.5044"
       r="80.964348"
       fx="3673.4446"
       fy="4867.5044"
       id="radialGradient4697"
       xlink:href="#linearGradient4314"
       gradientUnits="userSpaceOnUse"
       gradientTransform="matrix(1,0,0,1.3271106,0,-1592.2125)" />
    <radialGradient
       cx="3673.4446"
       cy="4867.5044"
       r="80.964348"
       fx="3673.4446"
       fy="4867.5044"
       id="radialGradient4699"
       xlink:href="#linearGradient4314"
       gradientUnits="userSpaceOnUse"
       gradientTransform="matrix(1,0,0,1.3271106,0,-1592.2125)" />
    <radialGradient
       cx="3673.4446"
       cy="4867.5044"
       r="80.964348"
       fx="3673.4446"
       fy="4867.5044"
       id="radialGradient4701"
       xlink:href="#linearGradient4314"
       gradientUnits="userSpaceOnUse"
       gradientTransform="matrix(1,0,0,1.3271106,0,-1592.2125)" />
    <radialGradient
       cx="3673.4446"
       cy="4867.5044"
       r="80.964348"
       fx="3673.4446"
       fy="4867.5044"
       id="radialGradient4703"
       xlink:href="#linearGradient4314"
       gradientUnits="userSpaceOnUse"
       gradientTransform="matrix(1,0,0,1.3271106,0,-1592.2125)" />
    <radialGradient
       cx="3673.4446"
       cy="4867.5044"
       r="80.964348"
       fx="3673.4446"
       fy="4867.5044"
       id="radialGradient4705"
       xlink:href="#linearGradient4314"
       gradientUnits="userSpaceOnUse"
       gradientTransform="matrix(1,0,0,1.3271106,0,-1592.2125)" />
  </defs>
  <metadata
     id="metadata7">
    <rdf:RDF>
      <cc:Work
         rdf:about="">
        <dc:format>image/svg+xml</dc:format>
        <dc:type
           rdf:resource="http://purl.org/dc/dcmitype/StillImage" />
        <dc:title></dc:title>
      </cc:Work>
    </rdf:RDF>
  </metadata>
  <g
     transform="translate(-411.55604,-518.00697)"
     id="layer1">
    <g
       transform="matrix(0.94196563,0,0,0.94196563,23.451825,-320.15709)"
       id="g4906">
      <path
         d="m 762.5855,933.03168 c 0,50.30574 -40.78086,91.08662 -91.0866,91.08662 -50.30574,0 -91.0866,-40.78088 -91.0866,-91.08662 0,-50.30574 40.78086,-91.0866 91.0866,-91.0866 50.30574,0 91.0866,40.78086 91.0866,91.0866 z"
         transform="matrix(-0.00305662,0.57955785,-0.57955785,-0.00305662,1007.898,556.56669)"
         id="path4944"
         style="fill:url(#radialGradient4948);fill-opacity:1;stroke:#808080" />
      <g
         transform="matrix(0.18819808,0,0,0.18819808,-56.473332,417.39221)"
         id="g4946"
         style="font-size:132.77729797px;font-style:normal;font-variant:normal;font-weight:normal;font-stretch:normal;line-height:125.99999905%;letter-spacing:0px;word-spacing:0px;fill:#808080;fill-opacity:1;stroke:none;font-family:Lato;-inkscape-font-specification:Lato">
        <path
           d="m 2628.8845,2678.7093 -41.4027,-43.4243 14.9853,-14.2876 c 2.8429,-2.7105 5.5231,-4.7499 8.0405,-6.1183 2.5374,-1.3873 4.924,-2.1913 7.1597,-2.412 2.2558,-0.2396 4.3616,0.065 6.3175,0.9136 1.9559,0.8489 3.7832,2.1642 5.4821,3.9459 0.9735,1.0212 1.7587,2.1453 2.3555,3.3725 0.5778,1.2074 0.9376,2.5268 1.0796,3.9584 0.1429,1.3926 0.039,2.8869 -0.3122,4.4829 -0.3311,1.5769 -0.9478,3.2351 -1.8501,4.9744 7.2449,-4.3469 13.3012,-3.9678 18.1688,1.1374 1.7561,1.8419 3.0282,3.8777 3.8164,6.1073 0.7882,2.2297 1.0556,4.5546 0.8023,6.9747 -0.2724,2.4001 -1.0842,4.8558 -2.4354,7.367 -1.3512,2.5114 -3.2881,4.9696 -5.8106,7.3747 l -16.3967,15.6334 m -10.0748,-26.7416 12.1402,12.733 8.1983,-7.8167 c 1.5016,-1.4316 2.581,-2.8048 3.2385,-4.1196 0.6774,-1.3338 1.0301,-2.5874 1.0581,-3.7607 0.048,-1.1923 -0.1797,-2.313 -0.6829,-3.362 -0.4833,-1.068 -1.1544,-2.0525 -2.0134,-2.9534 -0.8971,-0.941 -1.849,-1.6387 -2.8556,-2.0931 -1.0256,-0.4744 -2.107,-0.6665 -3.2439,-0.5763 -1.156,0.07 -2.3682,0.4426 -3.6364,1.1167 -1.2683,0.6741 -2.6132,1.6888 -4.0346,3.0441 l -8.1683,7.788 m -5.3257,-5.5857 6.4566,-6.156 c 2.7428,-2.615 4.3477,-5.1007 4.8147,-7.4571 0.4671,-2.3562 -0.3397,-4.6255 -2.4204,-6.8077 -2.1569,-2.2623 -4.3342,-3.2631 -6.5318,-3.0025 -2.1975,0.2607 -4.6577,1.6891 -7.3805,4.2851 l -6.907,6.5854 11.9684,12.5528"
           id="path4948"
           style="font-size:82.98580933px;font-weight:bold;text-align:center;line-height:125.99999905%;text-anchor:middle;fill:#808080;fill-opacity:1;stroke:none;-inkscape-font-specification:Lato Bold" />
        <path
           d="m 2680.6538,2636.9786 -9.5801,5.8078 -31.1039,-51.3069 9.5801,-5.8078 31.1039,51.3069"
           id="path4950"
           style="font-size:82.98580933px;font-weight:bold;text-align:center;line-height:125.99999905%;text-anchor:middle;fill:#808080;fill-opacity:1;stroke:none;-inkscape-font-specification:Lato Bold" />
        <path
           d="m 2711.6727,2559.2689 3.1297,8.6193 -16.9657,6.1602 17.3478,47.7768 -10.4914,3.8095 -17.3478,-47.7768 -17.0436,6.1885 -3.1297,-8.6193 44.5007,-16.1582"
           id="path4952"
           style="font-size:82.98580933px;font-weight:bold;text-align:center;line-height:125.99999905%;text-anchor:middle;fill:#808080;fill-opacity:1;stroke:none;-inkscape-font-specification:Lato Bold" />
        <path
           d="m 2776.4832,2598.2141 c 0.6069,-0.044 1.148,0.1531 1.6233,0.5903 l 4.7295,4.4436 c -2.2115,3.1822 -5.0392,5.7015 -8.4831,7.558 -3.4165,1.8544 -7.6078,2.9605 -12.5741,3.318 -4.4421,0.3198 -8.4973,-0.151 -12.1657,-1.4122 -3.6409,-1.2633 -6.814,-3.1564 -9.5193,-5.6796 -2.7054,-2.5231 -4.8692,-5.6121 -6.4912,-9.2671 -1.5945,-3.657 -2.5516,-7.7065 -2.8714,-12.1486 -0.3238,-4.4972 0.1252,-8.6618 1.347,-12.4939 1.2197,-3.8595 3.0842,-7.2385 5.5934,-10.1371 2.5092,-2.8985 5.5864,-5.2277 9.2315,-6.9878 3.6706,-1.7896 7.7821,-2.8482 12.3346,-3.176 4.442,-0.3197 8.3702,0.1186 11.7843,1.3149 3.4397,1.1668 6.4304,2.8374 8.9721,5.0117 l -3.3523,5.4414 c -0.1969,0.347 -0.4658,0.6575 -0.8065,0.9316 -0.3133,0.2722 -0.7734,0.4302 -1.3803,0.4738 -0.6347,0.046 -1.3009,-0.1559 -1.9988,-0.6049 -0.698,-0.4489 -1.5782,-0.9264 -2.6407,-1.4323 -1.0626,-0.5059 -2.3981,-0.9505 -4.0065,-1.334 -1.5809,-0.3854 -3.5715,-0.4917 -5.9718,-0.3189 -2.8143,0.2026 -5.372,0.886 -7.6733,2.05 -2.2757,1.1346 -4.2033,2.6739 -5.7828,4.6179 -1.5519,1.9422 -2.7164,4.2586 -3.4933,6.9492 -0.7514,2.6611 -1.0099,5.6194 -0.7755,8.8751 0.2423,3.366 0.9268,6.3258 2.0536,8.8794 1.1544,2.5516 2.61,4.6655 4.367,6.3417 1.7569,1.6762 3.7738,2.9176 6.0506,3.7244 2.2747,0.7792 4.6812,1.0774 7.2196,0.8947 1.5175,-0.1093 2.8772,-0.2904 4.0793,-0.5433 1.2296,-0.2549 2.342,-0.5985 3.3371,-1.0306 1.0225,-0.4342 1.9692,-0.9599 2.84,-1.5773 0.8964,-0.6469 1.77,-1.417 2.6209,-2.3103 0.258,-0.2682 0.5338,-0.4822 0.8274,-0.642 0.2916,-0.1873 0.6167,-0.294 0.9754,-0.3198"
           id="path4954"
           style="font-size:82.98580933px;font-weight:bold;text-align:center;line-height:125.99999905%;text-anchor:middle;fill:#808080;fill-opacity:1;stroke:none;-inkscape-font-specification:Lato Bold" />
        <path
           d="m 2855.5499,2598.0439 c -1.119,4.2535 -2.8659,8.0129 -5.2408,11.2782 -2.368,3.2385 -5.1844,5.8441 -8.4492,7.817 -3.2649,1.9728 -6.9001,3.2332 -10.9057,3.7813 -3.9986,0.5213 -8.1915,0.2048 -12.5787,-0.9493 -4.3874,-1.1542 -8.2066,-2.9455 -11.4577,-5.3739 -3.2175,-2.4481 -5.7752,-5.3377 -7.6734,-8.6688 -1.8715,-3.324 -3.0411,-6.9783 -3.5089,-10.9628 -0.4608,-4.0112 -0.1317,-8.1435 0.9873,-12.3971 1.1189,-4.2535 2.8624,-7.9995 5.2303,-11.238 2.3749,-3.2652 5.1948,-5.8843 8.4597,-7.8572 3.2916,-1.9657 6.9367,-3.2092 10.9353,-3.7306 4.0323,-0.5409 8.2421,-0.2344 12.6294,0.9197 4.3873,1.1542 8.1896,2.9554 11.407,5.4035 3.2174,2.4482 5.7618,5.3343 7.6333,8.6583 1.8784,3.2973 3.0481,6.9515 3.5089,10.9627 0.4677,3.9845 0.1421,8.1035 -0.9768,12.357 m -11.0752,-2.9135 c 0.8374,-3.1834 1.1589,-6.1451 0.9644,-8.885 -0.1608,-2.7595 -0.7981,-5.2297 -1.912,-7.4106 -1.1139,-2.1808 -2.6846,-4.0385 -4.7122,-5.573 -2.0008,-1.5274 -4.4191,-2.6641 -7.2547,-3.4101 -2.8358,-0.746 -5.5137,-0.9499 -8.0339,-0.6118 -2.5202,0.3382 -4.8151,1.1789 -6.8847,2.5222 -2.0428,1.3505 -3.8266,3.1838 -5.3511,5.5 -1.5176,2.2895 -2.6952,5.0259 -3.5326,8.2094 -0.8375,3.1835 -1.1625,6.1585 -0.9749,8.9251 0.1945,2.7399 0.8487,5.2002 1.9626,7.381 1.1476,2.1611 2.7353,4.0089 4.7629,5.5434 2.0275,1.5345 4.4592,2.6748 7.2949,3.4207 2.8356,0.746 5.5002,0.9464 7.9937,0.6012 2.5202,-0.3381 4.7982,-1.169 6.834,-2.4926 2.0428,-1.3504 3.8096,-3.1739 5.3005,-5.4704 1.5245,-2.3162 2.7056,-5.066 3.5431,-8.2495"
           id="path4956"
           style="font-size:82.98580933px;font-weight:bold;text-align:center;line-height:125.99999905%;text-anchor:middle;fill:#808080;fill-opacity:1;stroke:none;-inkscape-font-specification:Lato Bold" />
        <path
           d="m 2866.0631,2639.25 -9.7832,-5.4587 29.2344,-52.3947 9.7832,5.4587 -29.2344,52.3947"
           id="path4958"
           style="font-size:82.98580933px;font-weight:bold;text-align:center;line-height:125.99999905%;text-anchor:middle;fill:#808080;fill-opacity:1;stroke:none;-inkscape-font-specification:Lato Bold" />
        <path
           d="m 2923.6118,2605.4117 c 0.3646,0.339 0.6497,0.6418 0.8552,0.9083 0.2242,0.2463 0.3804,0.5048 0.4687,0.7756 0.1272,0.2694 0.1972,0.58 0.2101,0.9319 0.032,0.3316 0.027,0.7428 -0.014,1.2335 l -4.2533,50.8295 c 0.5781,-0.7845 1.1577,-1.5298 1.7387,-2.236 0.6201,-0.7077 1.2032,-1.3553 1.7495,-1.9428 l 24.8329,-26.7124 7.2023,6.6956 -40.8514,43.9432 -4.2241,-3.9269 c -0.6484,-0.6027 -1.0911,-1.2031 -1.3282,-1.8012 -0.2371,-0.5982 -0.3134,-1.3489 -0.2289,-2.2523 l 4.2315,-50.6232 c -0.5419,0.7049 -1.1041,1.3908 -1.6865,2.058 -0.5434,0.6657 -1.0599,1.2619 -1.5495,1.7887 l -25.0872,26.9859 -7.2023,-6.6956 40.8514,-43.9433 4.2849,3.9835 0,0"
           id="path4960"
           style="font-size:82.98580933px;font-weight:bold;text-align:center;line-height:125.99999905%;text-anchor:middle;fill:#808080;fill-opacity:1;stroke:none;-inkscape-font-specification:Lato Bold" />
      </g>
      <g
         transform="matrix(0.18819808,0,0,0.18819808,-56.473332,416.35254)"
         id="g4962"
         style="font-size:132.77729797px;font-style:normal;font-variant:normal;font-weight:normal;font-stretch:normal;line-height:125.99999905%;letter-spacing:0px;word-spacing:0px;fill:#f9f9f9;fill-opacity:1;stroke:none;font-family:Lato;-inkscape-font-specification:Lato">
        <path
           d="m 2628.8845,2678.7093 -41.4027,-43.4243 14.9853,-14.2876 c 2.8429,-2.7105 5.5231,-4.7499 8.0405,-6.1183 2.5374,-1.3873 4.924,-2.1913 7.1597,-2.412 2.2558,-0.2396 4.3616,0.065 6.3175,0.9136 1.9559,0.8489 3.7832,2.1642 5.4821,3.9459 0.9735,1.0212 1.7587,2.1453 2.3555,3.3725 0.5778,1.2074 0.9376,2.5268 1.0796,3.9584 0.1429,1.3926 0.039,2.8869 -0.3122,4.4829 -0.3311,1.5769 -0.9478,3.2351 -1.8501,4.9744 7.2449,-4.3469 13.3012,-3.9678 18.1688,1.1374 1.7561,1.8419 3.0282,3.8777 3.8164,6.1073 0.7882,2.2297 1.0556,4.5546 0.8023,6.9747 -0.2724,2.4001 -1.0842,4.8558 -2.4354,7.367 -1.3512,2.5114 -3.2881,4.9696 -5.8106,7.3747 l -16.3967,15.6334 m -10.0748,-26.7416 12.1402,12.733 8.1983,-7.8167 c 1.5016,-1.4316 2.581,-2.8048 3.2385,-4.1196 0.6774,-1.3338 1.0301,-2.5874 1.0581,-3.7607 0.048,-1.1923 -0.1797,-2.313 -0.6829,-3.362 -0.4833,-1.068 -1.1544,-2.0525 -2.0134,-2.9534 -0.8971,-0.941 -1.849,-1.6387 -2.8556,-2.0931 -1.0256,-0.4744 -2.107,-0.6665 -3.2439,-0.5763 -1.156,0.07 -2.3682,0.4426 -3.6364,1.1167 -1.2683,0.6741 -2.6132,1.6888 -4.0346,3.0441 l -8.1683,7.788 m -5.3257,-5.5857 6.4566,-6.156 c 2.7428,-2.615 4.3477,-5.1007 4.8147,-7.4571 0.4671,-2.3562 -0.3397,-4.6255 -2.4204,-6.8077 -2.1569,-2.2623 -4.3342,-3.2631 -6.5318,-3.0025 -2.1975,0.2607 -4.6577,1.6891 -7.3805,4.2851 l -6.907,6.5854 11.9684,12.5528"
           id="path4964"
           style="font-size:82.98580933px;font-weight:bold;text-align:center;line-height:125.99999905%;text-anchor:middle;fill:#f9f9f9;fill-opacity:1;stroke:none;-inkscape-font-specification:Lato Bold" />
        <path
           d="m 2680.6538,2636.9786 -9.5801,5.8078 -31.1039,-51.3069 9.5801,-5.8078 31.1039,51.3069"
           id="path4966"
           style="font-size:82.98580933px;font-weight:bold;text-align:center;line-height:125.99999905%;text-anchor:middle;fill:#f9f9f9;fill-opacity:1;stroke:none;-inkscape-font-specification:Lato Bold" />
        <path
           d="m 2711.6727,2559.2689 3.1297,8.6193 -16.9657,6.1602 17.3478,47.7768 -10.4914,3.8095 -17.3478,-47.7768 -17.0436,6.1885 -3.1297,-8.6193 44.5007,-16.1582"
           id="path4968"
           style="font-size:82.98580933px;font-weight:bold;text-align:center;line-height:125.99999905%;text-anchor:middle;fill:#f9f9f9;fill-opacity:1;stroke:none;-inkscape-font-specification:Lato Bold" />
        <path
           d="m 2776.4832,2598.2141 c 0.6069,-0.044 1.148,0.1531 1.6233,0.5903 l 4.7295,4.4436 c -2.2115,3.1822 -5.0392,5.7015 -8.4831,7.558 -3.4165,1.8544 -7.6078,2.9605 -12.5741,3.318 -4.4421,0.3198 -8.4973,-0.151 -12.1657,-1.4122 -3.6409,-1.2633 -6.814,-3.1564 -9.5193,-5.6796 -2.7054,-2.5231 -4.8692,-5.6121 -6.4912,-9.2671 -1.5945,-3.657 -2.5516,-7.7065 -2.8714,-12.1486 -0.3238,-4.4972 0.1252,-8.6618 1.347,-12.4939 1.2197,-3.8595 3.0842,-7.2385 5.5934,-10.1371 2.5092,-2.8985 5.5864,-5.2277 9.2315,-6.9878 3.6706,-1.7896 7.7821,-2.8482 12.3346,-3.176 4.442,-0.3197 8.3702,0.1186 11.7843,1.3149 3.4397,1.1668 6.4304,2.8374 8.9721,5.0117 l -3.3523,5.4414 c -0.1969,0.347 -0.4658,0.6575 -0.8065,0.9316 -0.3133,0.2722 -0.7734,0.4302 -1.3803,0.4738 -0.6347,0.046 -1.3009,-0.1559 -1.9988,-0.6049 -0.698,-0.4489 -1.5782,-0.9264 -2.6407,-1.4323 -1.0626,-0.5059 -2.3981,-0.9505 -4.0065,-1.334 -1.5809,-0.3854 -3.5715,-0.4917 -5.9718,-0.3189 -2.8143,0.2026 -5.372,0.886 -7.6733,2.05 -2.2757,1.1346 -4.2033,2.6739 -5.7828,4.6179 -1.5519,1.9422 -2.7164,4.2586 -3.4933,6.9492 -0.7514,2.6611 -1.0099,5.6194 -0.7755,8.8751 0.2423,3.366 0.9268,6.3258 2.0536,8.8794 1.1544,2.5516 2.61,4.6655 4.367,6.3417 1.7569,1.6762 3.7738,2.9176 6.0506,3.7244 2.2747,0.7792 4.6812,1.0774 7.2196,0.8947 1.5175,-0.1093 2.8772,-0.2904 4.0793,-0.5433 1.2296,-0.2549 2.342,-0.5985 3.3371,-1.0306 1.0225,-0.4342 1.9692,-0.9599 2.84,-1.5773 0.8964,-0.6469 1.77,-1.417 2.6209,-2.3103 0.258,-0.2682 0.5338,-0.4822 0.8274,-0.642 0.2916,-0.1873 0.6167,-0.294 0.9754,-0.3198"
           id="path4970"
           style="font-size:82.98580933px;font-weight:bold;text-align:center;line-height:125.99999905%;text-anchor:middle;fill:#f9f9f9;fill-opacity:1;stroke:none;-inkscape-font-specification:Lato Bold" />
        <path
           d="m 2855.5499,2598.0439 c -1.119,4.2535 -2.8659,8.0129 -5.2408,11.2782 -2.368,3.2385 -5.1844,5.8441 -8.4492,7.817 -3.2649,1.9728 -6.9001,3.2332 -10.9057,3.7813 -3.9986,0.5213 -8.1915,0.2048 -12.5787,-0.9493 -4.3874,-1.1542 -8.2066,-2.9455 -11.4577,-5.3739 -3.2175,-2.4481 -5.7752,-5.3377 -7.6734,-8.6688 -1.8715,-3.324 -3.0411,-6.9783 -3.5089,-10.9628 -0.4608,-4.0112 -0.1317,-8.1435 0.9873,-12.3971 1.1189,-4.2535 2.8624,-7.9995 5.2303,-11.238 2.3749,-3.2652 5.1948,-5.8843 8.4597,-7.8572 3.2916,-1.9657 6.9367,-3.2092 10.9353,-3.7306 4.0323,-0.5409 8.2421,-0.2344 12.6294,0.9197 4.3873,1.1542 8.1896,2.9554 11.407,5.4035 3.2174,2.4482 5.7618,5.3343 7.6333,8.6583 1.8784,3.2973 3.0481,6.9515 3.5089,10.9627 0.4677,3.9845 0.1421,8.1035 -0.9768,12.357 m -11.0752,-2.9135 c 0.8374,-3.1834 1.1589,-6.1451 0.9644,-8.885 -0.1608,-2.7595 -0.7981,-5.2297 -1.912,-7.4106 -1.1139,-2.1808 -2.6846,-4.0385 -4.7122,-5.573 -2.0008,-1.5274 -4.4191,-2.6641 -7.2547,-3.4101 -2.8358,-0.746 -5.5137,-0.9499 -8.0339,-0.6118 -2.5202,0.3382 -4.8151,1.1789 -6.8847,2.5222 -2.0428,1.3505 -3.8266,3.1838 -5.3511,5.5 -1.5176,2.2895 -2.6952,5.0259 -3.5326,8.2094 -0.8375,3.1835 -1.1625,6.1585 -0.9749,8.9251 0.1945,2.7399 0.8487,5.2002 1.9626,7.381 1.1476,2.1611 2.7353,4.0089 4.7629,5.5434 2.0275,1.5345 4.4592,2.6748 7.2949,3.4207 2.8356,0.746 5.5002,0.9464 7.9937,0.6012 2.5202,-0.3381 4.7982,-1.169 6.834,-2.4926 2.0428,-1.3504 3.8096,-3.1739 5.3005,-5.4704 1.5245,-2.3162 2.7056,-5.066 3.5431,-8.2495"
           id="path4972"
           style="font-size:82.98580933px;font-weight:bold;text-align:center;line-height:125.99999905%;text-anchor:middle;fill:#f9f9f9;fill-opacity:1;stroke:none;-inkscape-font-specification:Lato Bold" />
        <path
           d="m 2866.0631,2639.25 -9.7832,-5.4587 29.2344,-52.3947 9.7832,5.4587 -29.2344,52.3947"
           id="path4974"
           style="font-size:82.98580933px;font-weight:bold;text-align:center;line-height:125.99999905%;text-anchor:middle;fill:#f9f9f9;fill-opacity:1;stroke:none;-inkscape-font-specification:Lato Bold" />
        <path
           d="m 2923.6118,2605.4117 c 0.3646,0.339 0.6497,0.6418 0.8552,0.9083 0.2242,0.2463 0.3804,0.5048 0.4687,0.7756 0.1272,0.2694 0.1972,0.58 0.2101,0.9319 0.032,0.3316 0.027,0.7428 -0.014,1.2335 l -4.2533,50.8295 c 0.5781,-0.7845 1.1577,-1.5298 1.7387,-2.236 0.6201,-0.7077 1.2032,-1.3553 1.7495,-1.9428 l 24.8329,-26.7124 7.2023,6.6956 -40.8514,43.9432 -4.2241,-3.9269 c -0.6484,-0.6027 -1.0911,-1.2031 -1.3282,-1.8012 -0.2371,-0.5982 -0.3134,-1.3489 -0.2289,-2.2523 l 4.2315,-50.6232 c -0.5419,0.7049 -1.1041,1.3908 -1.6865,2.058 -0.5434,0.6657 -1.0599,1.2619 -1.5495,1.7887 l -25.0872,26.9859 -7.2023,-6.6956 40.8514,-43.9433 4.2849,3.9835 0,0"
           id="path4976"
           style="font-size:82.98580933px;font-weight:bold;text-align:center;line-height:125.99999905%;text-anchor:middle;fill:#f9f9f9;fill-opacity:1;stroke:none;-inkscape-font-specification:Lato Bold" />
      </g>
      <g
         transform="matrix(0.18819808,0,0,0.18819808,-56.473332,416.35103)"
         id="g4978"
         style="font-size:132.77729797px;font-style:normal;font-variant:normal;font-weight:normal;font-stretch:normal;line-height:125%;letter-spacing:0px;word-spacing:0px;fill:#808080;fill-opacity:1;stroke:none;font-family:Lato;-inkscape-font-specification:Lato">
        <path
           d="m 2580.1347,2966.2909 -4.6261,-6.5943 c -0.519,-0.7398 -0.7693,-1.4787 -0.751,-2.2169 0.054,-0.7319 0.2819,-1.3962 0.6832,-1.9931 l 6.9504,-9.985 -13.3224,-18.9903 -11.7545,3.1372 c -0.6047,0.1719 -1.2858,0.1451 -2.0432,-0.08 -0.7426,-0.2044 -1.366,-0.6659 -1.8701,-1.3845 l -4.6484,-6.6259 58.4758,-14.1532 6.1163,8.7184 -33.21,50.168 m -3.5076,-41.8178 10.2531,14.6151 11.3348,-16.2777 c 0.4984,-0.7281 1.0908,-1.5694 1.7772,-2.524 0.7224,-0.9483 1.5187,-1.9485 2.3891,-3.0006 -1.2855,0.4603 -2.4971,0.8687 -3.6346,1.2252 -1.1227,0.3776 -2.1292,0.6737 -3.0194,0.8883 l -19.1002,5.0737"
           id="path4980"
           style="font-size:77.45342255px;font-weight:bold;text-align:center;letter-spacing:19.36335564px;text-anchor:middle;fill:#808080;fill-opacity:1;stroke:none;-inkscape-font-specification:Lato Bold" />
        <path
           d="m 2635.3058,2996.46 c 0.4428,0.3557 0.6878,0.834 0.7351,1.4349 l 0.4114,6.0428 c -3.5337,0.7712 -7.0676,0.6977 -10.6019,-0.2205 -3.5142,-0.9021 -7.0829,-2.8082 -10.706,-5.7184 -3.2407,-2.6031 -5.7147,-5.501 -7.422,-8.6937 -1.6872,-3.1766 -2.6544,-6.4868 -2.9016,-9.9307 -0.2472,-3.4439 0.2354,-6.9307 1.448,-10.4604 1.2327,-3.5135 3.1505,-6.8906 5.7536,-10.1313 2.6354,-3.2809 5.5879,-5.8435 8.8575,-7.6878 3.2858,-1.8644 6.7072,-2.9906 10.2643,-3.3788 3.557,-0.3881 7.1408,-0.026 10.7514,1.0857 3.6467,1.108 7.1308,2.9958 10.452,5.6635 3.2406,2.6031 5.6483,5.398 7.223,8.3849 1.6109,2.9829 2.5948,6.025 2.9517,9.1263 l -5.7489,1.5914 c -0.3551,0.1122 -0.7362,0.1538 -1.1433,0.1248 -0.3871,-0.013 -0.8021,-0.1971 -1.2449,-0.5528 -0.463,-0.3719 -0.7905,-0.933 -0.9825,-1.6834 -0.1921,-0.7503 -0.4907,-1.6359 -0.8959,-2.6568 -0.4053,-1.0209 -1.036,-2.1733 -1.8923,-3.4572 -0.8362,-1.2677 -2.1299,-2.6049 -3.881,-4.0116 -2.0531,-1.6491 -4.2362,-2.8065 -6.5493,-3.4724 -2.2768,-0.6698 -4.5728,-0.8416 -6.8878,-0.5156 -2.2949,0.3423 -4.5626,1.1865 -6.803,2.5328 -2.2042,1.3424 -4.2602,3.2012 -6.168,5.5763 -1.9725,2.4557 -3.3846,4.9145 -4.2362,7.3764 -0.8314,2.4781 -1.1788,4.8483 -1.0422,7.1105 0.1367,2.2623 0.7272,4.3924 1.7716,6.3903 1.0606,1.9778 2.5167,3.7105 4.3686,5.1979 1.107,0.8892 2.1519,1.6292 3.1346,2.2198 1.0027,0.6068 1.9816,1.0785 2.9366,1.415 0.975,0.3527 1.9563,0.5946 2.944,0.7256 1.0238,0.127 2.1104,0.1553 3.2597,0.085 0.3468,-0.019 0.6713,0.01 0.9736,0.087 0.3184,0.057 0.6084,0.1907 0.8701,0.4009"
           id="path4982"
           style="font-size:77.45342255px;font-weight:bold;text-align:center;letter-spacing:19.36335564px;text-anchor:middle;fill:#808080;fill-opacity:1;stroke:none;-inkscape-font-specification:Lato Bold" />
        <path
           d="m 2695.7713,3026.4798 c 0.5241,0.2188 0.8922,0.6104 1.1043,1.1746 l 2.072,5.6914 c -3.1809,1.7214 -6.5965,2.6313 -10.2468,2.7298 -3.6265,0.1085 -7.584,-0.7327 -11.8723,-2.5233 -3.8357,-1.6017 -7.0167,-3.6993 -9.5428,-6.293 -2.5024,-2.5837 -4.3501,-5.4955 -5.5432,-8.7356 -1.1931,-3.24 -1.6968,-6.7238 -1.5112,-10.4514 0.2093,-3.7176 1.1148,-7.4942 2.7165,-11.3299 1.6215,-3.8834 3.7471,-7.1646 6.3766,-9.8437 2.6394,-2.7028 5.614,-4.7342 8.9237,-6.0941 3.3097,-1.3598 6.8532,-2.0065 10.6305,-1.9401 3.811,0.053 7.682,0.8996 11.6131,2.541 3.8356,1.6017 6.9243,3.6188 9.2659,6.0514 2.3754,2.4188 4.1647,5.0685 5.368,7.9491 l -5.0815,3.124 c -0.31,0.2063 -0.6646,0.352 -1.0638,0.4371 -0.3755,0.095 -0.8253,0.033 -1.3494,-0.1857 -0.548,-0.2288 -1.0183,-0.677 -1.411,-1.3446 -0.3927,-0.6676 -0.9254,-1.4356 -1.5979,-2.304 -0.6727,-0.8684 -1.5984,-1.8005 -2.7773,-2.7964 -1.1551,-0.9859 -2.769,-1.9116 -4.8417,-2.7771 -2.4301,-1.0147 -4.8486,-1.521 -7.2556,-1.5189 -2.3733,-0.012 -4.6267,0.4602 -6.7604,1.4158 -2.1099,0.9656 -4.0543,2.4059 -5.8332,4.321 -1.7451,1.9013 -3.2046,4.2575 -4.3785,7.0688 -1.2137,2.9065 -1.8881,5.6606 -2.0231,8.2621 -0.1112,2.6115 0.2127,4.985 0.9717,7.1205 0.7589,2.1355 1.9173,4.0181 3.4751,5.6478 1.5677,1.6059 3.4474,2.8665 5.6393,3.7817 1.3103,0.5471 2.5194,0.9681 3.6274,1.2629 1.1318,0.3047 2.2031,0.4862 3.2139,0.5446 1.0346,0.068 2.0445,0.028 3.0297,-0.1198 1.0189,-0.1621 2.0707,-0.4364 3.1554,-0.8228 0.3277,-0.1149 0.6475,-0.1772 0.9594,-0.1869 0.3217,-0.034 0.6374,0.014 0.9472,0.1437"
           id="path4984"
           style="font-size:77.45342255px;font-weight:bold;text-align:center;letter-spacing:19.36335564px;text-anchor:middle;fill:#808080;fill-opacity:1;stroke:none;-inkscape-font-specification:Lato Bold" />
        <path
           d="m 2764.6512,2995.8955 -1.0551,8.22 -24.6218,-3.1605 -1.9772,15.403 19.3978,2.49 -1.0206,7.9512 -19.3979,-2.49 -2.0166,15.7103 24.6218,3.1606 -1.0601,8.2584 -35.0313,-4.4967 7.1297,-55.5431 35.0313,4.4968"
           id="path4986"
           style="font-size:77.45342255px;font-weight:bold;text-align:center;letter-spacing:19.36335564px;text-anchor:middle;fill:#808080;fill-opacity:1;stroke:none;-inkscape-font-specification:Lato Bold" />
        <path
           d="m 2794.1466,3030.4259 2.5484,19.5465 -10.3301,1.3468 -7.2396,-55.5289 18.0872,-2.3581 c 3.7122,-0.4839 6.9819,-0.4676 9.8091,0.049 2.8272,0.5167 5.2258,1.4407 7.1959,2.772 1.9701,1.3314 3.5194,3.0301 4.648,5.096 1.1285,2.066 1.8613,4.3918 2.1985,6.9775 0.3504,2.6881 0.2244,5.2171 -0.3778,7.5867 -0.6057,2.3442 -1.6995,4.4395 -3.2812,6.286 -1.5819,1.8465 -3.6584,3.393 -6.2297,4.6395 -2.5713,1.2465 -5.6618,2.1051 -9.2716,2.5757 l -7.7571,1.0113 m -1.0514,-8.0643 7.7571,-1.0114 c 1.8945,-0.2469 3.5157,-0.6926 4.8637,-1.337 1.3447,-0.67 2.4211,-1.5003 3.2293,-2.4909 0.8047,-1.0162 1.3558,-2.1816 1.6531,-3.4961 0.2939,-1.3401 0.3391,-2.791 0.1355,-4.3527 -0.1936,-1.4849 -0.5993,-2.7989 -1.2169,-3.9421 -0.6178,-1.1431 -1.4425,-2.0771 -2.4743,-2.8018 -1.0318,-0.7246 -2.2801,-1.2128 -3.7448,-1.4645 -1.4682,-0.2772 -3.1495,-0.2923 -5.044,-0.045 l -7.7571,1.0114 2.5984,19.9305"
           id="path4988"
           style="font-size:77.45342255px;font-weight:bold;text-align:center;letter-spacing:19.36335564px;text-anchor:middle;fill:#808080;fill-opacity:1;stroke:none;-inkscape-font-specification:Lato Bold" />
        <path
           d="m 2867.4701,2971.6209 3.2842,7.9034 -15.5565,6.4643 18.204,43.8086 -9.62,3.9974 -18.204,-43.8085 -15.6281,6.494 -3.2841,-7.9035 40.8045,-16.9557"
           id="path4990"
           style="font-size:77.45342255px;font-weight:bold;text-align:center;letter-spacing:19.36335564px;text-anchor:middle;fill:#808080;fill-opacity:1;stroke:none;-inkscape-font-specification:Lato Bold" />
        <path
           d="m 2905.5644,2943.7043 5.0113,6.6007 -19.7714,15.0105 9.3904,12.3687 15.5765,-11.8257 4.8474,6.3848 -15.5765,11.8257 9.5776,12.6155 19.7714,-15.0105 5.0347,6.6315 -28.1302,21.3566 -33.8614,-44.6012 28.1302,-21.3566"
           id="path4992"
           style="font-size:77.45342255px;font-weight:bold;text-align:center;letter-spacing:19.36335564px;text-anchor:middle;fill:#808080;fill-opacity:1;stroke:none;-inkscape-font-specification:Lato Bold" />
        <path
           d="m 2967.4975,2911.9363 c 3.2814,2.4666 5.8834,5.2783 7.8061,8.4352 1.9227,3.1571 3.13,6.4708 3.622,9.9412 0.4921,3.4704 0.2379,7.0098 -0.7625,10.618 -1.0004,3.6083 -2.7726,7.1048 -5.3167,10.4893 l -12.8444,17.0881 -44.7634,-33.6467 12.8444,-17.0881 c 2.5441,-3.3846 5.4204,-6.0511 8.629,-7.9996 3.1881,-1.9638 6.5173,-3.1918 9.9877,-3.6839 3.4498,-0.5075 6.9582,-0.2766 10.5252,0.6927 3.567,0.9695 6.9912,2.6874 10.2726,5.1538 m -6.3989,8.5131 c -2.4559,-1.8459 -4.9021,-3.1678 -7.3384,-3.9656 -2.457,-0.8132 -4.8139,-1.1152 -7.0706,-0.906 -2.2773,0.1939 -4.4364,0.8964 -6.4773,2.1076 -2.0254,1.1907 -3.8602,2.8799 -5.5046,5.0674 l -6.5385,8.6989 31.5139,23.6876 6.5386,-8.6988 c 1.6443,-2.1876 2.7568,-4.4196 3.3376,-6.6962 0.5962,-2.2971 0.6812,-4.5587 0.255,-6.7846 -0.4469,-2.2415 -1.3921,-4.4215 -2.8356,-6.5401 -1.4642,-2.1341 -3.4242,-4.1241 -5.8801,-5.9702"
           id="path4994"
           style="font-size:77.45342255px;font-weight:bold;text-align:center;letter-spacing:19.36335564px;text-anchor:middle;fill:#808080;fill-opacity:1;stroke:none;-inkscape-font-specification:Lato Bold" />
      </g>
      <g
         transform="matrix(0.18819808,0,0,0.18819808,-56.473332,415.31135)"
         id="g4996"
         style="font-size:132.77729797px;font-style:normal;font-variant:normal;font-weight:normal;font-stretch:normal;line-height:125%;letter-spacing:0px;word-spacing:0px;fill:#f9f9f9;fill-opacity:1;stroke:none;font-family:Lato;-inkscape-font-specification:Lato">
        <path
           d="m 2580.1347,2966.2909 -4.6261,-6.5943 c -0.519,-0.7398 -0.7693,-1.4787 -0.751,-2.2169 0.054,-0.7319 0.2819,-1.3962 0.6832,-1.9931 l 6.9504,-9.985 -13.3224,-18.9903 -11.7545,3.1372 c -0.6047,0.1719 -1.2858,0.1451 -2.0432,-0.08 -0.7426,-0.2044 -1.366,-0.6659 -1.8701,-1.3845 l -4.6484,-6.6259 58.4758,-14.1532 6.1163,8.7184 -33.21,50.168 m -3.5076,-41.8178 10.2531,14.6151 11.3348,-16.2777 c 0.4984,-0.7281 1.0908,-1.5694 1.7772,-2.524 0.7224,-0.9483 1.5187,-1.9485 2.3891,-3.0006 -1.2855,0.4603 -2.4971,0.8687 -3.6346,1.2252 -1.1227,0.3776 -2.1292,0.6737 -3.0194,0.8883 l -19.1002,5.0737"
           id="path4998"
           style="font-size:77.45342255px;font-weight:bold;text-align:center;letter-spacing:19.36335564px;text-anchor:middle;fill:#f9f9f9;fill-opacity:1;stroke:none;-inkscape-font-specification:Lato Bold" />
        <path
           d="m 2635.3058,2996.46 c 0.4428,0.3557 0.6878,0.834 0.7351,1.4349 l 0.4114,6.0428 c -3.5337,0.7712 -7.0676,0.6977 -10.6019,-0.2205 -3.5142,-0.9021 -7.0829,-2.8082 -10.706,-5.7184 -3.2407,-2.6031 -5.7147,-5.501 -7.422,-8.6937 -1.6872,-3.1766 -2.6544,-6.4868 -2.9016,-9.9307 -0.2472,-3.4439 0.2354,-6.9307 1.448,-10.4604 1.2327,-3.5135 3.1505,-6.8906 5.7536,-10.1313 2.6354,-3.2809 5.5879,-5.8435 8.8575,-7.6878 3.2858,-1.8644 6.7072,-2.9906 10.2643,-3.3788 3.557,-0.3881 7.1408,-0.026 10.7514,1.0857 3.6467,1.108 7.1308,2.9958 10.452,5.6635 3.2406,2.6031 5.6483,5.398 7.223,8.3849 1.6109,2.9829 2.5948,6.025 2.9517,9.1263 l -5.7489,1.5914 c -0.3551,0.1122 -0.7362,0.1538 -1.1433,0.1248 -0.3871,-0.013 -0.8021,-0.1971 -1.2449,-0.5528 -0.463,-0.3719 -0.7905,-0.933 -0.9825,-1.6834 -0.1921,-0.7503 -0.4907,-1.6359 -0.8959,-2.6568 -0.4053,-1.0209 -1.036,-2.1733 -1.8923,-3.4572 -0.8362,-1.2677 -2.1299,-2.6049 -3.881,-4.0116 -2.0531,-1.6491 -4.2362,-2.8065 -6.5493,-3.4724 -2.2768,-0.6698 -4.5728,-0.8416 -6.8878,-0.5156 -2.2949,0.3423 -4.5626,1.1865 -6.803,2.5328 -2.2042,1.3424 -4.2602,3.2012 -6.168,5.5763 -1.9725,2.4557 -3.3846,4.9145 -4.2362,7.3764 -0.8314,2.4781 -1.1788,4.8483 -1.0422,7.1105 0.1367,2.2623 0.7272,4.3924 1.7716,6.3903 1.0606,1.9778 2.5167,3.7105 4.3686,5.1979 1.107,0.8892 2.1519,1.6292 3.1346,2.2198 1.0027,0.6068 1.9816,1.0785 2.9366,1.415 0.975,0.3527 1.9563,0.5946 2.944,0.7256 1.0238,0.127 2.1104,0.1553 3.2597,0.085 0.3468,-0.019 0.6713,0.01 0.9736,0.087 0.3184,0.057 0.6084,0.1907 0.8701,0.4009"
           id="path5000"
           style="font-size:77.45342255px;font-weight:bold;text-align:center;letter-spacing:19.36335564px;text-anchor:middle;fill:#f9f9f9;fill-opacity:1;stroke:none;-inkscape-font-specification:Lato Bold" />
        <path
           d="m 2695.7713,3026.4798 c 0.5241,0.2188 0.8922,0.6104 1.1043,1.1746 l 2.072,5.6914 c -3.1809,1.7214 -6.5965,2.6313 -10.2468,2.7298 -3.6265,0.1085 -7.584,-0.7327 -11.8723,-2.5233 -3.8357,-1.6017 -7.0167,-3.6993 -9.5428,-6.293 -2.5024,-2.5837 -4.3501,-5.4955 -5.5432,-8.7356 -1.1931,-3.24 -1.6968,-6.7238 -1.5112,-10.4514 0.2093,-3.7176 1.1148,-7.4942 2.7165,-11.3299 1.6215,-3.8834 3.7471,-7.1646 6.3766,-9.8437 2.6394,-2.7028 5.614,-4.7342 8.9237,-6.0941 3.3097,-1.3598 6.8532,-2.0065 10.6305,-1.9401 3.811,0.053 7.682,0.8996 11.6131,2.541 3.8356,1.6017 6.9243,3.6188 9.2659,6.0514 2.3754,2.4188 4.1647,5.0685 5.368,7.9491 l -5.0815,3.124 c -0.31,0.2063 -0.6646,0.352 -1.0638,0.4371 -0.3755,0.095 -0.8253,0.033 -1.3494,-0.1857 -0.548,-0.2288 -1.0183,-0.677 -1.411,-1.3446 -0.3927,-0.6676 -0.9254,-1.4356 -1.5979,-2.304 -0.6727,-0.8684 -1.5984,-1.8005 -2.7773,-2.7964 -1.1551,-0.9859 -2.769,-1.9116 -4.8417,-2.7771 -2.4301,-1.0147 -4.8486,-1.521 -7.2556,-1.5189 -2.3733,-0.012 -4.6267,0.4602 -6.7604,1.4158 -2.1099,0.9656 -4.0543,2.4059 -5.8332,4.321 -1.7451,1.9013 -3.2046,4.2575 -4.3785,7.0688 -1.2137,2.9065 -1.8881,5.6606 -2.0231,8.2621 -0.1112,2.6115 0.2127,4.985 0.9717,7.1205 0.7589,2.1355 1.9173,4.0181 3.4751,5.6478 1.5677,1.6059 3.4474,2.8665 5.6393,3.7817 1.3103,0.5471 2.5194,0.9681 3.6274,1.2629 1.1318,0.3047 2.2031,0.4862 3.2139,0.5446 1.0346,0.068 2.0445,0.028 3.0297,-0.1198 1.0189,-0.1621 2.0707,-0.4364 3.1554,-0.8228 0.3277,-0.1149 0.6475,-0.1772 0.9594,-0.1869 0.3217,-0.034 0.6374,0.014 0.9472,0.1437"
           id="path5002"
           style="font-size:77.45342255px;font-weight:bold;text-align:center;letter-spacing:19.36335564px;text-anchor:middle;fill:#f9f9f9;fill-opacity:1;stroke:none;-inkscape-font-specification:Lato Bold" />
        <path
           d="m 2764.6512,2995.8955 -1.0551,8.22 -24.6218,-3.1605 -1.9772,15.403 19.3978,2.49 -1.0206,7.9512 -19.3979,-2.49 -2.0166,15.7103 24.6218,3.1606 -1.0601,8.2584 -35.0313,-4.4967 7.1297,-55.5431 35.0313,4.4968"
           id="path5004"
           style="font-size:77.45342255px;font-weight:bold;text-align:center;letter-spacing:19.36335564px;text-anchor:middle;fill:#f9f9f9;fill-opacity:1;stroke:none;-inkscape-font-specification:Lato Bold" />
        <path
           d="m 2794.1466,3030.4259 2.5484,19.5465 -10.3301,1.3468 -7.2396,-55.5289 18.0872,-2.3581 c 3.7122,-0.4839 6.9819,-0.4676 9.8091,0.049 2.8272,0.5167 5.2258,1.4407 7.1959,2.772 1.9701,1.3314 3.5194,3.0301 4.648,5.096 1.1285,2.066 1.8613,4.3918 2.1985,6.9775 0.3504,2.6881 0.2244,5.2171 -0.3778,7.5867 -0.6057,2.3442 -1.6995,4.4395 -3.2812,6.286 -1.5819,1.8465 -3.6584,3.393 -6.2297,4.6395 -2.5713,1.2465 -5.6618,2.1051 -9.2716,2.5757 l -7.7571,1.0113 m -1.0514,-8.0643 7.7571,-1.0114 c 1.8945,-0.2469 3.5157,-0.6926 4.8637,-1.337 1.3447,-0.67 2.4211,-1.5003 3.2293,-2.4909 0.8047,-1.0162 1.3558,-2.1816 1.6531,-3.4961 0.2939,-1.3401 0.3391,-2.791 0.1355,-4.3527 -0.1936,-1.4849 -0.5993,-2.7989 -1.2169,-3.9421 -0.6178,-1.1431 -1.4425,-2.0771 -2.4743,-2.8018 -1.0318,-0.7246 -2.2801,-1.2128 -3.7448,-1.4645 -1.4682,-0.2772 -3.1495,-0.2923 -5.044,-0.045 l -7.7571,1.0114 2.5984,19.9305"
           id="path5006"
           style="font-size:77.45342255px;font-weight:bold;text-align:center;letter-spacing:19.36335564px;text-anchor:middle;fill:#f9f9f9;fill-opacity:1;stroke:none;-inkscape-font-specification:Lato Bold" />
        <path
           d="m 2867.4701,2971.6209 3.2842,7.9034 -15.5565,6.4643 18.204,43.8086 -9.62,3.9974 -18.204,-43.8085 -15.6281,6.494 -3.2841,-7.9035 40.8045,-16.9557"
           id="path5008"
           style="font-size:77.45342255px;font-weight:bold;text-align:center;letter-spacing:19.36335564px;text-anchor:middle;fill:#f9f9f9;fill-opacity:1;stroke:none;-inkscape-font-specification:Lato Bold" />
        <path
           d="m 2905.5644,2943.7043 5.0113,6.6007 -19.7714,15.0105 9.3904,12.3687 15.5765,-11.8257 4.8474,6.3848 -15.5765,11.8257 9.5776,12.6155 19.7714,-15.0105 5.0347,6.6315 -28.1302,21.3566 -33.8614,-44.6012 28.1302,-21.3566"
           id="path5010"
           style="font-size:77.45342255px;font-weight:bold;text-align:center;letter-spacing:19.36335564px;text-anchor:middle;fill:#f9f9f9;fill-opacity:1;stroke:none;-inkscape-font-specification:Lato Bold" />
        <path
           d="m 2967.4975,2911.9363 c 3.2814,2.4666 5.8834,5.2783 7.8061,8.4352 1.9227,3.1571 3.13,6.4708 3.622,9.9412 0.4921,3.4704 0.2379,7.0098 -0.7625,10.618 -1.0004,3.6083 -2.7726,7.1048 -5.3167,10.4893 l -12.8444,17.0881 -44.7634,-33.6467 12.8444,-17.0881 c 2.5441,-3.3846 5.4204,-6.0511 8.629,-7.9996 3.1881,-1.9638 6.5173,-3.1918 9.9877,-3.6839 3.4498,-0.5075 6.9582,-0.2766 10.5252,0.6927 3.567,0.9695 6.9912,2.6874 10.2726,5.1538 m -6.3989,8.5131 c -2.4559,-1.8459 -4.9021,-3.1678 -7.3384,-3.9656 -2.457,-0.8132 -4.8139,-1.1152 -7.0706,-0.906 -2.2773,0.1939 -4.4364,0.8964 -6.4773,2.1076 -2.0254,1.1907 -3.8602,2.8799 -5.5046,5.0674 l -6.5385,8.6989 31.5139,23.6876 6.5386,-8.6988 c 1.6443,-2.1876 2.7568,-4.4196 3.3376,-6.6962 0.5962,-2.2971 0.6812,-4.5587 0.255,-6.7846 -0.4469,-2.2415 -1.3921,-4.4215 -2.8356,-6.5401 -1.4642,-2.1341 -3.4242,-4.1241 -5.8801,-5.9702"
           id="path5012"
           style="font-size:77.45342255px;font-weight:bold;text-align:center;letter-spacing:19.36335564px;text-anchor:middle;fill:#f9f9f9;fill-opacity:1;stroke:none;-inkscape-font-specification:Lato Bold" />
      </g>
      <path
         d="m 762.5855,933.03168 c 0,50.30574 -40.78086,91.08662 -91.0866,91.08662 -50.30574,0 -91.0866,-40.78088 -91.0866,-91.08662 0,-50.30574 40.78086,-91.0866 91.0866,-91.0866 50.30574,0 91.0866,40.78086 91.0866,91.0866 z"
         transform="matrix(-0.0017694,-0.33549152,-0.33549152,0.0017694,779.31198,1166.5185)"
         id="path5014"
         style="fill:url(#radialGradient4950);fill-opacity:1;stroke:none" />
      <g
         transform="matrix(0.18819808,0,0,0.18819808,-226.23558,27.50585)"
         id="g5016"
         style="font-size:294.78219604px;font-style:normal;font-weight:normal;line-height:125%;letter-spacing:0px;word-spacing:0px;fill:#666666;fill-opacity:1;stroke:none;font-family:Sans">
        <path
           d="m 3643.4339,4872.3263 0,28.9313 44.9082,0 0,20.7268 -44.9082,0 0,29.0752 41.8855,0 c 14.1057,1e-4 24.5171,-3.2145 31.2343,-9.6437 6.8129,-6.5251 10.2193,-16.4567 10.2195,-29.7949 -2e-4,-13.434 -3.4066,-23.3176 -10.2195,-29.6509 -6.7172,-6.4291 -17.1286,-9.6437 -31.2343,-9.6438 l -41.8855,0 m 0,-88.3771 0,64.7715 38.7189,0 c 12.7623,1e-4 22.2621,-2.6387 28.4995,-7.9165 6.3331,-5.3735 9.4997,-13.5299 9.4998,-24.4692 -10e-5,-10.8431 -3.1667,-18.9515 -9.4998,-24.3253 -6.2374,-5.3735 -15.7372,-8.0603 -28.4995,-8.0605 l -38.7189,0 m -26.1965,-23.8934 66.7866,0 c 19.9591,2e-4 35.3123,4.6061 46.0597,13.8179 10.8431,9.2121 16.2647,22.3103 16.2649,39.2947 -2e-4,13.1463 -2.783,23.6057 -8.3484,31.3781 -5.4697,7.7727 -13.5781,12.6186 -24.3252,14.5376 12.9541,3.0708 22.9817,9.5 30.0827,19.2876 7.1007,9.6918 10.6512,21.8304 10.6513,36.4159 -1e-4,19.1916 -5.9015,34.0171 -17.7042,44.4764 -11.707,10.4594 -28.4036,15.6891 -50.0899,15.6891 l -69.3775,0 0,-52.9687 -24.7571,0 0,-20.7268 24.7571,0 0,-141.2018"
           id="path5018"
           style="font-variant:normal;font-stretch:semi-condensed;text-align:center;line-height:125%;writing-mode:lr-tb;text-anchor:middle;fill:#666666;font-family:DejaVu Sans;-inkscape-font-specification:DejaVu Sans Semi-Condensed" />
      </g>
      <g
         transform="matrix(0.18819808,0,0,0.18819808,-226.23558,26.832251)"
         id="g5020"
         style="font-size:294.78219604px;font-style:normal;font-weight:normal;line-height:125%;letter-spacing:0px;word-spacing:0px;fill:url(#radialGradient4703);fill-opacity:1;stroke:none;font-family:Sans">
        <path
           d="m 3643.4339,4872.3263 0,28.9313 44.9082,0 0,20.7268 -44.9082,0 0,29.0752 41.8855,0 c 14.1057,1e-4 24.5171,-3.2145 31.2343,-9.6437 6.8129,-6.5251 10.2193,-16.4567 10.2195,-29.7949 -2e-4,-13.434 -3.4066,-23.3176 -10.2195,-29.6509 -6.7172,-6.4291 -17.1286,-9.6437 -31.2343,-9.6438 l -41.8855,0 m 0,-88.3771 0,64.7715 38.7189,0 c 12.7623,1e-4 22.2621,-2.6387 28.4995,-7.9165 6.3331,-5.3735 9.4997,-13.5299 9.4998,-24.4692 -10e-5,-10.8431 -3.1667,-18.9515 -9.4998,-24.3253 -6.2374,-5.3735 -15.7372,-8.0603 -28.4995,-8.0605 l -38.7189,0 m -26.1965,-23.8934 66.7866,0 c 19.9591,2e-4 35.3123,4.6061 46.0597,13.8179 10.8431,9.2121 16.2647,22.3103 16.2649,39.2947 -2e-4,13.1463 -2.783,23.6057 -8.3484,31.3781 -5.4697,7.7727 -13.5781,12.6186 -24.3252,14.5376 12.9541,3.0708 22.9817,9.5 30.0827,19.2876 7.1007,9.6918 10.6512,21.8304 10.6513,36.4159 -1e-4,19.1916 -5.9015,34.0171 -17.7042,44.4764 -11.707,10.4594 -28.4036,15.6891 -50.0899,15.6891 l -69.3775,0 0,-52.9687 -24.7571,0 0,-20.7268 24.7571,0 0,-141.2018"
           id="path5022"
           style="font-variant:normal;font-stretch:semi-condensed;text-align:center;line-height:125%;writing-mode:lr-tb;text-anchor:middle;fill:url(#radialGradient4952);fill-opacity:1;font-family:DejaVu Sans;-inkscape-font-specification:DejaVu Sans Semi-Condensed" />
      </g>
    </g>
  </g>
</svg>
