<?xml version="1.0" encoding="UTF-8" standalone="no"?>
<!-- Created with Inkscape (http://www.inkscape.org/) -->

<svg
   xmlns:dc="http://purl.org/dc/elements/1.1/"
   xmlns:cc="http://creativecommons.org/ns#"
   xmlns:rdf="http://www.w3.org/1999/02/22-rdf-syntax-ns#"
   xmlns:svg="http://www.w3.org/2000/svg"
   xmlns="http://www.w3.org/2000/svg"
   xmlns:xlink="http://www.w3.org/1999/xlink"
   version="1.1"
   width="230"
   height="115.07584"
   id="svg2">
  <defs
     id="defs4">
    <linearGradient
       id="linearGradient5374">
      <stop
         id="stop5376"
         style="stop-color:#5599ff;stop-opacity:1"
         offset="0" />
      <stop
         id="stop5378"
         style="stop-color:#5599ff;stop-opacity:1"
         offset="0.91189343" />
      <stop
         id="stop5380"
         style="stop-color:#416dff;stop-opacity:1"
         offset="1" />
    </linearGradient>
    <linearGradient
       id="linearGradient5358">
      <stop
         id="stop5360"
         style="stop-color:#5599ff;stop-opacity:1"
         offset="0" />
      <stop
         id="stop5366"
         style="stop-color:#5599ff;stop-opacity:1"
         offset="0.80000001" />
      <stop
         id="stop5362"
         style="stop-color:#41efff;stop-opacity:1"
         offset="1" />
    </linearGradient>
    <linearGradient
       id="linearGradient4938">
      <stop
         id="stop4940"
         style="stop-color:#ffffff;stop-opacity:1"
         offset="0" />
      <stop
         id="stop4942"
         style="stop-color:#ffe04b;stop-opacity:1"
         offset="1" />
    </linearGradient>
    <linearGradient
       id="linearGradient4932">
      <stop
         id="stop4934"
         style="stop-color:#fffb88;stop-opacity:1"
         offset="0" />
      <stop
         id="stop4936"
         style="stop-color:#f5c800;stop-opacity:1"
         offset="1" />
    </linearGradient>
    <linearGradient
       id="linearGradient4548">
      <stop
         id="stop4550"
         style="stop-color:#fffb88;stop-opacity:1"
         offset="0" />
      <stop
         id="stop4552"
         style="stop-color:#ffdb3a;stop-opacity:1"
         offset="1" />
    </linearGradient>
    <linearGradient
       id="linearGradient4540">
      <stop
         id="stop4542"
         style="stop-color:#fffe9c;stop-opacity:1"
         offset="0" />
      <stop
         id="stop4544"
         style="stop-color:#ffda2f;stop-opacity:1"
         offset="1" />
    </linearGradient>
    <linearGradient
       id="linearGradient4314">
      <stop
         id="stop4316"
         style="stop-color:#ffffff;stop-opacity:1"
         offset="0" />
      <stop
         id="stop4318"
         style="stop-color:#ffffff;stop-opacity:0"
         offset="1" />
    </linearGradient>
    <linearGradient
       id="linearGradient4296">
      <stop
         id="stop4298"
         style="stop-color:#d5d5d5;stop-opacity:1"
         offset="0" />
      <stop
         id="stop4300"
         style="stop-color:#999999;stop-opacity:1"
         offset="1" />
    </linearGradient>
    <linearGradient
       id="linearGradient3882">
      <stop
         id="stop3884"
         style="stop-color:#1a1a1a;stop-opacity:1"
         offset="0" />
      <stop
         id="stop3886"
         style="stop-color:#333333;stop-opacity:1"
         offset="1" />
    </linearGradient>
    <filter
       color-interpolation-filters="sRGB"
       id="filter3898">
      <feGaussianBlur
         id="feGaussianBlur3900"
         stdDeviation="2.4574829" />
    </filter>
    <radialGradient
       cx="2908.1287"
       cy="4391.582"
       r="280.50607"
       fx="2908.1287"
       fy="4391.582"
       id="radialGradient4304"
       xlink:href="#linearGradient4296"
       gradientUnits="userSpaceOnUse" />
    <radialGradient
       cx="3673.4446"
       cy="4867.5044"
       r="80.964348"
       fx="3673.4446"
       fy="4867.5044"
       id="radialGradient4320"
       xlink:href="#linearGradient4314"
       gradientUnits="userSpaceOnUse"
       gradientTransform="matrix(1,0,0,1.3271106,0,-1592.2125)" />
    <radialGradient
       cx="3676.9507"
       cy="4802.0479"
       r="80.964348"
       fx="3676.9507"
       fy="4802.0479"
       id="radialGradient4322"
       xlink:href="#linearGradient4314"
       gradientUnits="userSpaceOnUse"
       gradientTransform="matrix(-8.6960027,-2.3907611e-6,2.0179805e-6,-7.340074,35645.445,39987.838)" />
    <radialGradient
       cx="3673.4446"
       cy="4867.5044"
       r="80.964348"
       fx="3673.4446"
       fy="4867.5044"
       id="radialGradient4446"
       xlink:href="#linearGradient4314"
       gradientUnits="userSpaceOnUse"
       gradientTransform="matrix(1,0,0,1.3271106,0,-1592.2125)" />
    <radialGradient
       cx="3673.4446"
       cy="4867.5044"
       r="80.964348"
       fx="3673.4446"
       fy="4867.5044"
       id="radialGradient4538"
       xlink:href="#linearGradient4314"
       gradientUnits="userSpaceOnUse"
       gradientTransform="matrix(1,0,0,1.3271106,0,-1592.2125)" />
    <radialGradient
       cx="591.6795"
       cy="935.63947"
       r="91.086601"
       fx="591.6795"
       fy="935.63947"
       id="radialGradient4807"
       xlink:href="#linearGradient4296"
       gradientUnits="userSpaceOnUse"
       gradientTransform="matrix(1.2955528,-0.00683281,0.00989615,1.8763835,-184.12683,-815.43206)" />
    <radialGradient
       cx="591.6795"
       cy="935.63947"
       r="91.086601"
       fx="591.6795"
       fy="935.63947"
       id="radialGradient4809"
       xlink:href="#linearGradient4296"
       gradientUnits="userSpaceOnUse"
       gradientTransform="matrix(1.2955528,-0.00683281,0.00989615,1.8763835,-184.12683,-815.43206)" />
    <radialGradient
       cx="591.6795"
       cy="935.63947"
       r="91.086601"
       fx="591.6795"
       fy="935.63947"
       id="radialGradient4811"
       xlink:href="#linearGradient4296"
       gradientUnits="userSpaceOnUse"
       gradientTransform="matrix(1.2955528,-0.00683281,0.00989615,1.8763835,-184.12683,-815.43206)" />
    <radialGradient
       cx="591.66632"
       cy="933.9494"
       r="91.086601"
       fx="591.66632"
       fy="933.9494"
       id="radialGradient4813"
       xlink:href="#linearGradient4540"
       gradientUnits="userSpaceOnUse"
       gradientTransform="matrix(1.2955897,1.3023396e-4,-1.8860859e-4,1.8764096,-174.71298,-819.57636)" />
    <radialGradient
       cx="579.83356"
       cy="934.47162"
       r="91.086601"
       fx="579.83356"
       fy="934.47162"
       id="radialGradient4815"
       xlink:href="#linearGradient4932"
       gradientUnits="userSpaceOnUse"
       gradientTransform="matrix(1.5245231,-0.00804041,0.00989616,1.8763835,-316.8915,-814.73185)" />
    <radialGradient
       cx="2908.1287"
       cy="4391.582"
       r="280.50607"
       fx="2908.1287"
       fy="4391.582"
       id="radialGradient4817"
       xlink:href="#linearGradient4296"
       gradientUnits="userSpaceOnUse" />
    <radialGradient
       cx="3676.1523"
       cy="4800.293"
       r="80.964348"
       fx="3676.1523"
       fy="4800.293"
       id="radialGradient4926"
       xlink:href="#linearGradient4938"
       gradientUnits="userSpaceOnUse"
       gradientTransform="matrix(-8.6960027,0,0,-4.0117113,35645.455,24004.873)" />
    <radialGradient
       cx="3676.9507"
       cy="4802.0479"
       r="80.964348"
       fx="3676.9507"
       fy="4802.0479"
       id="radialGradient4928"
       xlink:href="#linearGradient4314"
       gradientUnits="userSpaceOnUse"
       gradientTransform="matrix(-8.6960027,-2.3907611e-6,2.0179805e-6,-7.340074,35645.445,39987.838)" />
    <radialGradient
       cx="3673.4446"
       cy="4867.5044"
       r="80.964348"
       fx="3673.4446"
       fy="4867.5044"
       id="radialGradient4930"
       xlink:href="#linearGradient4314"
       gradientUnits="userSpaceOnUse"
       gradientTransform="matrix(1,0,0,1.3271106,0,-1592.2125)" />
    <radialGradient
       cx="3673.4446"
       cy="4867.5044"
       r="80.964348"
       fx="3673.4446"
       fy="4867.5044"
       id="radialGradient5030"
       xlink:href="#linearGradient4314"
       gradientUnits="userSpaceOnUse"
       gradientTransform="matrix(1,0,0,1.3271106,0,-1592.2125)" />
    <radialGradient
       cx="3673.4446"
       cy="4867.5044"
       r="80.964348"
       fx="3673.4446"
       fy="4867.5044"
       id="radialGradient5118"
       xlink:href="#linearGradient4314"
       gradientUnits="userSpaceOnUse"
       gradientTransform="matrix(1,0,0,1.3271106,0,-1592.2125)" />
    <radialGradient
       cx="3673.4446"
       cy="4867.5044"
       r="80.964348"
       fx="3673.4446"
       fy="4867.5044"
       id="radialGradient3513"
       xlink:href="#linearGradient4314"
       gradientUnits="userSpaceOnUse"
       gradientTransform="matrix(1,0,0,1.3271106,0,-1592.2125)" />
    <linearGradient
       x1="-2549.4382"
       y1="1756.4385"
       x2="-2529.3691"
       y2="1756.4385"
       id="linearGradient5206"
       xlink:href="#linearGradient3882"
       gradientUnits="userSpaceOnUse"
       gradientTransform="translate(2209.9329,-1189.9085)" />
    <linearGradient
       x1="253.65529"
       y1="538.69427"
       x2="125.89417"
       y2="538.69427"
       id="linearGradient4815"
       xlink:href="#linearGradient5374"
       gradientUnits="userSpaceOnUse" />
    <radialGradient
       cx="591.6795"
       cy="935.63947"
       r="91.086601"
       fx="591.6795"
       fy="935.63947"
       id="radialGradient4948"
       xlink:href="#linearGradient4296"
       gradientUnits="userSpaceOnUse"
       gradientTransform="matrix(1.2955528,-0.00683281,0.00989615,1.8763835,-184.12683,-815.43206)" />
    <radialGradient
       cx="591.6795"
       cy="935.63947"
       r="91.086601"
       fx="591.6795"
       fy="935.63947"
       id="radialGradient4950"
       xlink:href="#linearGradient4296"
       gradientUnits="userSpaceOnUse"
       gradientTransform="matrix(1.2955528,-0.00683281,0.00989615,1.8763835,-184.12683,-815.43206)" />
    <radialGradient
       cx="3676.9507"
       cy="4802.0479"
       r="80.964348"
       fx="3676.9507"
       fy="4802.0479"
       id="radialGradient4952"
       xlink:href="#linearGradient4314"
       gradientUnits="userSpaceOnUse"
       gradientTransform="matrix(-8.6960027,-2.3907611e-6,2.0179805e-6,-7.340074,35645.445,39987.838)" />
    <radialGradient
       cx="3673.4446"
       cy="4867.5044"
       r="80.964348"
       fx="3673.4446"
       fy="4867.5044"
       id="radialGradient4954"
       xlink:href="#linearGradient4314"
       gradientUnits="userSpaceOnUse"
       gradientTransform="matrix(1,0,0,1.3271106,0,-1592.2125)" />
    <radialGradient
       cx="591.66632"
       cy="933.9494"
       r="91.086601"
       fx="591.66632"
       fy="933.9494"
       id="radialGradient4956"
       xlink:href="#linearGradient4540"
       gradientUnits="userSpaceOnUse"
       gradientTransform="matrix(1.2955897,1.3023396e-4,-1.8860859e-4,1.8764096,-174.71298,-819.57636)" />
    <radialGradient
       cx="579.83356"
       cy="934.47162"
       r="91.086601"
       fx="579.83356"
       fy="934.47162"
       id="radialGradient4958"
       xlink:href="#linearGradient4932"
       gradientUnits="userSpaceOnUse"
       gradientTransform="matrix(1.5245231,-0.00804041,0.00989616,1.8763835,-316.8915,-814.73185)" />
    <radialGradient
       cx="3676.1523"
       cy="4800.293"
       r="80.964348"
       fx="3676.1523"
       fy="4800.293"
       id="radialGradient4960"
       xlink:href="#linearGradient4938"
       gradientUnits="userSpaceOnUse"
       gradientTransform="matrix(-8.6960027,0,0,-4.0117113,35645.455,24004.873)" />
    <radialGradient
       cx="3673.4446"
       cy="4867.5044"
       r="80.964348"
       fx="3673.4446"
       fy="4867.5044"
       id="radialGradient4962"
       xlink:href="#linearGradient4314"
       gradientUnits="userSpaceOnUse"
       gradientTransform="matrix(1,0,0,1.3271106,0,-1592.2125)" />
    <radialGradient
       cx="3673.4446"
       cy="4867.5044"
       r="80.964348"
       fx="3673.4446"
       fy="4867.5044"
       id="radialGradient3676"
       xlink:href="#linearGradient4314"
       gradientUnits="userSpaceOnUse"
       gradientTransform="matrix(1,0,0,1.3271106,0,-1592.2125)" />
    <radialGradient
       cx="3673.4446"
       cy="4867.5044"
       r="80.964348"
       fx="3673.4446"
       fy="4867.5044"
       id="radialGradient3678"
       xlink:href="#linearGradient4314"
       gradientUnits="userSpaceOnUse"
       gradientTransform="matrix(1,0,0,1.3271106,0,-1592.2125)" />
    <radialGradient
       cx="3673.4446"
       cy="4867.5044"
       r="80.964348"
       fx="3673.4446"
       fy="4867.5044"
       id="radialGradient3680"
       xlink:href="#linearGradient4314"
       gradientUnits="userSpaceOnUse"
       gradientTransform="matrix(1,0,0,1.3271106,0,-1592.2125)" />
    <radialGradient
       cx="3673.4446"
       cy="4867.5044"
       r="80.964348"
       fx="3673.4446"
       fy="4867.5044"
       id="radialGradient3682"
       xlink:href="#linearGradient4314"
       gradientUnits="userSpaceOnUse"
       gradientTransform="matrix(1,0,0,1.3271106,0,-1592.2125)" />
    <radialGradient
       cx="3673.4446"
       cy="4867.5044"
       r="80.964348"
       fx="3673.4446"
       fy="4867.5044"
       id="radialGradient3684"
       xlink:href="#linearGradient4314"
       gradientUnits="userSpaceOnUse"
       gradientTransform="matrix(1,0,0,1.3271106,0,-1592.2125)" />
    <radialGradient
       cx="3673.4446"
       cy="4867.5044"
       r="80.964348"
       fx="3673.4446"
       fy="4867.5044"
       id="radialGradient3783"
       xlink:href="#linearGradient4314"
       gradientUnits="userSpaceOnUse"
       gradientTransform="matrix(1,0,0,1.3271106,0,-1592.2125)" />
    <radialGradient
       cx="3673.4446"
       cy="4867.5044"
       r="80.964348"
       fx="3673.4446"
       fy="4867.5044"
       id="radialGradient3785"
       xlink:href="#linearGradient4314"
       gradientUnits="userSpaceOnUse"
       gradientTransform="matrix(1,0,0,1.3271106,0,-1592.2125)" />
    <radialGradient
       cx="3673.4446"
       cy="4867.5044"
       r="80.964348"
       fx="3673.4446"
       fy="4867.5044"
       id="radialGradient3787"
       xlink:href="#linearGradient4314"
       gradientUnits="userSpaceOnUse"
       gradientTransform="matrix(1,0,0,1.3271106,0,-1592.2125)" />
    <radialGradient
       cx="3673.4446"
       cy="4867.5044"
       r="80.964348"
       fx="3673.4446"
       fy="4867.5044"
       id="radialGradient3789"
       xlink:href="#linearGradient4314"
       gradientUnits="userSpaceOnUse"
       gradientTransform="matrix(1,0,0,1.3271106,0,-1592.2125)" />
    <radialGradient
       cx="3673.4446"
       cy="4867.5044"
       r="80.964348"
       fx="3673.4446"
       fy="4867.5044"
       id="radialGradient3791"
       xlink:href="#linearGradient4314"
       gradientUnits="userSpaceOnUse"
       gradientTransform="matrix(1,0,0,1.3271106,0,-1592.2125)" />
    <radialGradient
       cx="3673.4446"
       cy="4867.5044"
       r="80.964348"
       fx="3673.4446"
       fy="4867.5044"
       id="radialGradient3812"
       xlink:href="#linearGradient4314"
       gradientUnits="userSpaceOnUse"
       gradientTransform="matrix(1,0,0,1.3271106,0,-1592.2125)" />
    <radialGradient
       cx="3673.4446"
       cy="4867.5044"
       r="80.964348"
       fx="3673.4446"
       fy="4867.5044"
       id="radialGradient3814"
       xlink:href="#linearGradient4314"
       gradientUnits="userSpaceOnUse"
       gradientTransform="matrix(1,0,0,1.3271106,0,-1592.2125)" />
    <radialGradient
       cx="3673.4446"
       cy="4867.5044"
       r="80.964348"
       fx="3673.4446"
       fy="4867.5044"
       id="radialGradient3816"
       xlink:href="#linearGradient4314"
       gradientUnits="userSpaceOnUse"
       gradientTransform="matrix(1,0,0,1.3271106,0,-1592.2125)" />
    <radialGradient
       cx="3673.4446"
       cy="4867.5044"
       r="80.964348"
       fx="3673.4446"
       fy="4867.5044"
       id="radialGradient3818"
       xlink:href="#linearGradient4314"
       gradientUnits="userSpaceOnUse"
       gradientTransform="matrix(1,0,0,1.3271106,0,-1592.2125)" />
    <radialGradient
       cx="3673.4446"
       cy="4867.5044"
       r="80.964348"
       fx="3673.4446"
       fy="4867.5044"
       id="radialGradient3820"
       xlink:href="#linearGradient4314"
       gradientUnits="userSpaceOnUse"
       gradientTransform="matrix(1,0,0,1.3271106,0,-1592.2125)" />
    <radialGradient
       cx="3673.4446"
       cy="4867.5044"
       r="80.964348"
       fx="3673.4446"
       fy="4867.5044"
       id="radialGradient3940"
       xlink:href="#linearGradient4314"
       gradientUnits="userSpaceOnUse"
       gradientTransform="matrix(1,0,0,1.3271106,0,-1592.2125)" />
    <radialGradient
       cx="3673.4446"
       cy="4867.5044"
       r="80.964348"
       fx="3673.4446"
       fy="4867.5044"
       id="radialGradient3942"
       xlink:href="#linearGradient4314"
       gradientUnits="userSpaceOnUse"
       gradientTransform="matrix(1,0,0,1.3271106,0,-1592.2125)" />
    <radialGradient
       cx="3673.4446"
       cy="4867.5044"
       r="80.964348"
       fx="3673.4446"
       fy="4867.5044"
       id="radialGradient3944"
       xlink:href="#linearGradient4314"
       gradientUnits="userSpaceOnUse"
       gradientTransform="matrix(1,0,0,1.3271106,0,-1592.2125)" />
    <radialGradient
       cx="3673.4446"
       cy="4867.5044"
       r="80.964348"
       fx="3673.4446"
       fy="4867.5044"
       id="radialGradient3946"
       xlink:href="#linearGradient4314"
       gradientUnits="userSpaceOnUse"
       gradientTransform="matrix(1,0,0,1.3271106,0,-1592.2125)" />
    <radialGradient
       cx="3673.4446"
       cy="4867.5044"
       r="80.964348"
       fx="3673.4446"
       fy="4867.5044"
       id="radialGradient3948"
       xlink:href="#linearGradient4314"
       gradientUnits="userSpaceOnUse"
       gradientTransform="matrix(1,0,0,1.3271106,0,-1592.2125)" />
  </defs>
  <metadata
     id="metadata7">
    <rdf:RDF>
      <cc:Work
         rdf:about="">
        <dc:format>image/svg+xml</dc:format>
        <dc:type
           rdf:resource="http://purl.org/dc/dcmitype/StillImage" />
        <dc:title></dc:title>
      </cc:Work>
    </rdf:RDF>
  </metadata>
  <g
     transform="translate(-80.557786,-627.04129)"
     id="layer1">
    <g
       transform="matrix(1.4228635,0,0,1.4228635,-722.2486,-127.95535)"
       id="g4817">
      <g
         transform="matrix(0.51848052,-0.01504275,0.01504275,0.51848052,404.20529,349.58353)"
         id="text4465"
         style="font-size:48px;font-style:normal;font-weight:normal;line-height:108.00000429%;letter-spacing:0px;word-spacing:0px;fill:#71c837;fill-opacity:1;stroke:none;font-family:Sans">
        <path
           d="m 435.221,400.7923 c 4.44798,3e-5 7.79197,1.15203 10.032,3.456 1.85597,1.85602 2.78397,4.25602 2.784,7.2 -3e-5,2.94402 -0.92803,5.34401 -2.784,7.2 -2.24003,2.30401 -5.58402,3.45601 -10.032,3.456 l -6.736,0 0,10.272 c -1e-5,0.608 -0.22401,1.12 -0.672,1.536 -0.41601,0.416 -0.92801,0.62399 -1.536,0.624 -0.60801,-10e-6 -1.12001,-0.208 -1.536,-0.624 -0.41601,-0.416 -0.62401,-0.928 -0.624,-1.536 l 0,-29.376 c -1e-5,-0.60797 0.20799,-1.11997 0.624,-1.536 0.41599,-0.44797 0.92799,-0.67197 1.536,-0.672 l 8.944,0 m -0.432,17.184 c 3.29598,1e-5 5.67998,-0.70399 7.152,-2.112 1.15197,-1.08799 1.72797,-2.55998 1.728,-4.416 -3e-5,-2.97598 -1.48803,-4.95998 -4.464,-5.952 -1.15202,-0.38398 -2.62402,-0.57598 -4.416,-0.576 l -6.304,0 0,13.056 6.304,0"
           id="path4511"
           style="font-variant:normal;font-stretch:normal;text-align:center;line-height:108.00000429%;writing-mode:lr-tb;text-anchor:middle;fill:#71c837;fill-opacity:1;font-family:Varela Round;-inkscape-font-specification:Varela Round" />
        <path
           d="m 454.29904,409.44368 c 2.688,-1.15198 5.47199,-1.72798 8.352,-1.728 3.26399,2e-5 5.79198,0.99202 7.584,2.976 1.59998,1.72802 2.39998,3.88801 2.4,6.48 l 0,13.584 c -2e-5,0.608 -0.22402,1.12 -0.672,1.536 -0.41602,0.416 -0.92802,0.62399 -1.536,0.624 -0.60802,-1e-5 -1.12002,-0.208 -1.536,-0.624 -0.41602,-0.416 -0.62402,-0.928 -0.624,-1.536 l 0,-1.248 c -0.86401,0.896 -2.03201,1.728 -3.504,2.496 -1.44001,0.768 -3.28001,1.15199 -5.52,1.152 -2.208,-1e-5 -4.048,-0.64 -5.52,-1.92 -1.536,-1.344 -2.304,-3.104 -2.304,-5.28 0,-2.368 0.896,-4.22399 2.688,-5.568 1.952,-1.47199 4.73599,-2.20799 8.352,-2.208 l 5.808,0 0,-0.384 c -2e-5,-2.14399 -0.52801,-3.66399 -1.584,-4.56 -1.05601,-0.92798 -2.67201,-1.39198 -4.848,-1.392 -1.85601,2e-5 -3.984,0.38402 -6.384,1.152 -0.256,0.064 -0.544,0.096 -0.864,0.096 -0.32,1e-5 -0.656,-0.15999 -1.008,-0.48 -0.352,-0.35198 -0.528,-0.87998 -0.528,-1.584 0,-0.70398 0.416,-1.23198 1.248,-1.584 m 1.488,16.032 c 0,2.56 1.696,3.84 5.088,3.84 1.50399,0 2.89599,-0.368 4.176,-1.104 1.31199,-0.736 2.38399,-1.568 3.216,-2.496 l 0,-4.032 -5.232,0 c -2.27201,1e-5 -4.04801,0.28801 -5.328,0.864 -1.28,0.576 -1.92,1.552 -1.92,2.928"
           id="path4513"
           style="font-variant:normal;font-stretch:normal;text-align:center;line-height:108.00000429%;writing-mode:lr-tb;text-anchor:middle;fill:#71c837;fill-opacity:1;font-family:Varela Round;-inkscape-font-specification:Varela Round" />
        <path
           d="m 498.21187,406.3031 c 0.60798,2e-5 1.11998,0.22402 1.536,0.672 0.41597,0.41602 0.62397,0.86402 0.624,1.344 -3e-5,0.44802 -0.048,0.78402 -0.144,1.008 l -13.104,31.488 c -0.41601,0.99198 -1.08801,1.48798 -2.016,1.488 -0.57601,-2e-5 -1.07201,-0.20802 -1.488,-0.624 -0.38401,-0.41602 -0.57601,-0.83201 -0.576,-1.248 -1e-5,-0.41601 0.048,-0.75201 0.144,-1.008 l 3.12,-8.016 -9.024,-21.984 c -0.128,-0.31998 -0.192,-0.70398 -0.192,-1.152 0,-0.44798 0.208,-0.87998 0.624,-1.296 0.416,-0.44798 0.88,-0.67198 1.392,-0.672 1.05599,2e-5 1.77599,0.44802 2.16,1.344 l 7.392,18.336 7.536,-18.24 c 0.41598,-0.95998 1.08798,-1.43998 2.016,-1.44"
           id="path4515"
           style="font-variant:normal;font-stretch:normal;text-align:center;line-height:108.00000429%;writing-mode:lr-tb;text-anchor:middle;fill:#71c837;fill-opacity:1;font-family:Varela Round;-inkscape-font-specification:Varela Round" />
        <path
           d="m 545.20475,410.8723 c 0.25597,-0.86398 0.94397,-1.29598 2.064,-1.296 0.54396,2e-5 1.02396,0.20802 1.44,0.624 0.41596,0.41602 0.62396,0.84802 0.624,1.296 -4e-5,0.41602 -0.048,0.76802 -0.144,1.056 l -6.816,19.968 c -0.19203,0.544 -0.54403,1.024 -1.056,1.44 -0.51203,0.384 -1.08803,0.57599 -1.728,0.576 -0.64003,-10e-6 -1.21603,-0.192 -1.728,-0.576 -0.51203,-0.416 -0.88003,-0.912 -1.104,-1.488 l -5.088,-15.888 -5.088,15.888 c -0.22402,0.576 -0.59201,1.072 -1.104,1.488 -0.51201,0.384 -1.08801,0.57599 -1.728,0.576 -0.64001,-10e-6 -1.21601,-0.192 -1.728,-0.576 -0.51201,-0.416 -0.86401,-0.896 -1.056,-1.44 l -6.816,-19.968 c -0.096,-0.28798 -0.144,-0.63998 -0.144,-1.056 0,-0.44798 0.208,-0.87998 0.624,-1.296 0.416,-0.41598 0.896,-0.62398 1.44,-0.624 1.11999,2e-5 1.80799,0.43202 2.064,1.296 l 5.616,18.48 5.568,-18.048 c 0.15998,-0.51198 0.44798,-0.92798 0.864,-1.248 0.44798,-0.31998 0.94398,-0.47998 1.488,-0.48 0.54398,2e-5 1.02398,0.16002 1.44,0.48 0.44798,0.32002 0.75198,0.73602 0.912,1.248 l 5.568,18.048 5.616,-18.48"
           id="path4517"
           style="font-variant:normal;font-stretch:normal;text-align:center;line-height:108.00000429%;writing-mode:lr-tb;text-anchor:middle;fill:#71c837;fill-opacity:1;font-family:Varela Round;-inkscape-font-specification:Varela Round" />
        <path
           d="m 554.50821,410.68258 c -10e-6,-0.63998 0.20799,-1.16798 0.624,-1.584 0.41599,-0.41598 0.92799,-0.62398 1.536,-0.624 0.63999,2e-5 1.16799,0.20802 1.584,0.624 0.41599,0.41602 0.62399,0.94402 0.624,1.584 l 0,20.592 c -10e-6,0.608 -0.20801,1.12 -0.624,1.536 -0.41601,0.416 -0.94401,0.62399 -1.584,0.624 -0.60801,-10e-6 -1.12001,-0.208 -1.536,-0.624 -0.41601,-0.416 -0.62401,-0.928 -0.624,-1.536 l 0,-20.592 m 4.8,-9.408 c -10e-6,0.67203 -0.24001,1.24803 -0.72,1.728 -0.48001,0.48002 -1.05601,0.72002 -1.728,0.72 l -0.288,0 c -0.67201,2e-5 -1.24801,-0.23998 -1.728,-0.72 -0.48001,-0.47997 -0.72001,-1.05597 -0.72,-1.728 l 0,-0.192 c -10e-6,-0.67197 0.23999,-1.24797 0.72,-1.728 0.47999,-0.47997 1.05599,-0.71997 1.728,-0.72 l 0.288,0 c 0.67199,3e-5 1.24799,0.24003 1.728,0.72 0.47999,0.48003 0.71999,1.05603 0.72,1.728 l 0,0.192"
           id="path4519"
           style="font-variant:normal;font-stretch:normal;text-align:center;line-height:108.00000429%;writing-mode:lr-tb;text-anchor:middle;fill:#71c837;fill-opacity:1;font-family:Varela Round;-inkscape-font-specification:Varela Round" />
        <path
           d="m 575.91063,429.2917 c 0.86398,0 1.47198,-0.064 1.824,-0.192 0.38398,-0.16 0.78398,-0.24 1.2,-0.24 0.44798,0 0.84798,0.16 1.2,0.48 0.35198,0.32 0.52798,0.8 0.528,1.44 -2e-5,0.64 -0.32002,1.104 -0.96,1.392 -1.37602,0.64 -2.56002,0.95999 -3.552,0.96 -0.96001,-1e-5 -1.84001,-0.048 -2.64,-0.144 -0.80001,-0.096 -1.56801,-0.368 -2.304,-0.816 -1.76001,-1.024 -2.64001,-2.816 -2.64,-5.376 l 0,-14.88 -3.408,0 c -0.608,2e-5 -0.912,-0.30398 -0.912,-0.912 0,-0.28798 0.144,-0.55998 0.432,-0.816 l 6.528,-6.384 c 0.28799,-0.28798 0.55999,-0.43198 0.816,-0.432 0.25599,2e-5 0.46399,0.096 0.624,0.288 0.19199,0.19202 0.28799,0.41602 0.288,0.672 l 0,3.84 5.424,0 c 0.54398,2e-5 0.99198,0.17602 1.344,0.528 0.35198,0.35202 0.52798,0.80002 0.528,1.344 -2e-5,0.54402 -0.17602,0.99202 -0.528,1.344 -0.35202,0.35202 -0.80002,0.52802 -1.344,0.528 l -5.424,0 0,14.496 c -10e-6,1.216 0.36799,2.048 1.104,2.496 0.41599,0.256 1.03999,0.384 1.872,0.384"
           id="path4521"
           style="font-variant:normal;font-stretch:normal;text-align:center;line-height:108.00000429%;writing-mode:lr-tb;text-anchor:middle;fill:#71c837;fill-opacity:1;font-family:Varela Round;-inkscape-font-specification:Varela Round" />
        <path
           d="m 598.19429,413.39227 c -2.81601,2e-5 -5.44001,1.53601 -7.872,4.608 l 0,14.4 c -10e-6,0.608 -0.22401,1.12 -0.672,1.536 -0.41601,0.416 -0.92801,0.62399 -1.536,0.624 -0.60801,-10e-6 -1.12001,-0.208 -1.536,-0.624 -0.41601,-0.416 -0.62401,-0.928 -0.624,-1.536 l 0,-31.152 c -10e-6,-0.63997 0.20799,-1.16797 0.624,-1.584 0.41599,-0.41597 0.92799,-0.62397 1.536,-0.624 0.60799,3e-5 1.11999,0.20803 1.536,0.624 0.44799,0.41603 0.67199,0.94403 0.672,1.584 l 0,12.528 c 1.27999,-1.34398 2.38399,-2.28798 3.312,-2.832 1.82399,-1.05598 3.55198,-1.58398 5.184,-1.584 1.66398,2e-5 3.02398,0.25602 4.08,0.768 1.05598,0.48002 1.95198,1.15202 2.688,2.016 1.50397,1.76002 2.25597,3.96801 2.256,6.624 l 0,13.632 c -3e-5,0.608 -0.22403,1.12 -0.672,1.536 -0.41603,0.416 -0.92803,0.62399 -1.536,0.624 -0.60802,-10e-6 -1.12002,-0.208 -1.536,-0.624 -0.41602,-0.416 -0.62402,-0.928 -0.624,-1.536 l 0,-13.152 c -2e-5,-1.82399 -0.41602,-3.24799 -1.248,-4.272 -0.80002,-1.05598 -2.14402,-1.58398 -4.032,-1.584"
           id="path4523"
           style="font-variant:normal;font-stretch:normal;text-align:center;line-height:108.00000429%;writing-mode:lr-tb;text-anchor:middle;fill:#71c837;fill-opacity:1;font-family:Varela Round;-inkscape-font-specification:Varela Round" />
        <path
           d="m 456.26569,457.46612 c -3e-5,3.45602 -1.56802,5.92002 -4.704,7.392 3.03998,1.02401 5.05597,2.70401 6.048,5.04 0.35197,0.89601 0.52797,1.96801 0.528,3.216 -3e-5,1.24801 -0.22403,2.448 -0.672,3.6 -0.44803,1.152 -1.16803,2.144 -2.16,2.976 -2.04802,1.728 -5.21602,2.592 -9.504,2.592 l -9.616,0 c -0.608,0 -1.12,-0.208 -1.536,-0.624 -0.416,-0.416 -0.624,-0.928 -0.624,-1.536 l 0,-29.136 c 0,-0.60797 0.208,-1.11997 0.624,-1.536 0.416,-0.44797 0.928,-0.67197 1.536,-0.672 l 9.328,0 c 3.51998,0 6.19198,0.80003 8.016,2.4 1.82398,1.60003 2.73597,3.69602 2.736,6.288 m -4.176,0.336 c -2e-5,-1.50398 -0.60802,-2.70398 -1.824,-3.6 -1.18402,-0.89597 -2.88002,-1.34397 -5.088,-1.344 l -6.784,0 0,10.416 5.968,0 c 4.12798,0 6.59198,-1.10398 7.392,-3.312 0.22398,-0.67198 0.33598,-1.39198 0.336,-2.16 m -6.72,20.4 c 4.54398,0 7.24798,-1.088 8.112,-3.264 0.28798,-0.67199 0.43198,-1.42399 0.432,-2.256 -2e-5,-1.91999 -0.72002,-3.31199 -2.16,-4.176 -1.44002,-0.86399 -3.55202,-1.29599 -6.336,-1.296 l -7.024,0 0,10.992 6.976,0"
           id="path4525"
           style="font-variant:normal;font-stretch:normal;text-align:center;line-height:108.00000429%;writing-mode:lr-tb;text-anchor:middle;fill:#71c837;fill-opacity:1;font-family:Varela Round;-inkscape-font-specification:Varela Round" />
        <path
           d="m 463.65314,461.68216 c 0,-0.63998 0.208,-1.16798 0.624,-1.584 0.416,-0.41598 0.928,-0.62398 1.536,-0.624 0.64,2e-5 1.168,0.20802 1.584,0.624 0.416,0.41602 0.624,0.94402 0.624,1.584 l 0,20.592 c 0,0.608 -0.208,1.12 -0.624,1.536 -0.416,0.416 -0.944,0.624 -1.584,0.624 -0.608,0 -1.12,-0.208 -1.536,-0.624 -0.416,-0.416 -0.624,-0.928 -0.624,-1.536 l 0,-20.592 m 4.8,-9.408 c -1e-5,0.67203 -0.24001,1.24803 -0.72,1.728 -0.48,0.48003 -1.056,0.72003 -1.728,0.72 l -0.288,0 c -0.672,3e-5 -1.248,-0.23997 -1.728,-0.72 -0.48,-0.47997 -0.72,-1.05597 -0.72,-1.728 l 0,-0.192 c 0,-0.67197 0.24,-1.24797 0.72,-1.728 0.48,-0.47997 1.056,-0.71997 1.728,-0.72 l 0.288,0 c 0.672,3e-5 1.248,0.24003 1.728,0.72 0.47999,0.48003 0.71999,1.05603 0.72,1.728 l 0,0.192"
           id="path4527"
           style="font-variant:normal;font-stretch:normal;text-align:center;line-height:108.00000429%;writing-mode:lr-tb;text-anchor:middle;fill:#71c837;fill-opacity:1;font-family:Varela Round;-inkscape-font-specification:Varela Round" />
        <path
           d="m 485.66235,478.37925 c 0.86399,0 1.47199,-0.064 1.824,-0.192 0.38399,-0.16 0.78399,-0.24 1.2,-0.24 0.44799,0 0.84799,0.16 1.2,0.48 0.35199,0.32 0.52799,0.8 0.528,1.44 -1e-5,0.64 -0.32001,1.104 -0.96,1.392 -1.37601,0.64 -2.56001,0.96 -3.552,0.96 -0.96001,0 -1.84001,-0.048 -2.64,-0.144 -0.80001,-0.096 -1.56801,-0.368 -2.304,-0.816 -1.76,-1.024 -2.64,-2.816 -2.64,-5.376 l 0,-14.88 -3.408,0 c -0.608,2e-5 -0.912,-0.30398 -0.912,-0.912 0,-0.28798 0.144,-0.55998 0.432,-0.816 l 6.528,-6.384 c 0.288,-0.28797 0.55999,-0.43197 0.816,-0.432 0.25599,3e-5 0.46399,0.096 0.624,0.288 0.19199,0.19203 0.28799,0.41603 0.288,0.672 l 0,3.84 5.424,0 c 0.54399,2e-5 0.99199,0.17602 1.344,0.528 0.35199,0.35202 0.52799,0.80002 0.528,1.344 -10e-6,0.54402 -0.17601,0.99202 -0.528,1.344 -0.35201,0.35202 -0.80001,0.52802 -1.344,0.528 l -5.424,0 0,14.496 c -1e-5,1.216 0.36799,2.048 1.104,2.496 0.41599,0.256 1.03999,0.384 1.872,0.384"
           id="path4529"
           style="font-variant:normal;font-stretch:normal;text-align:center;line-height:108.00000429%;writing-mode:lr-tb;text-anchor:middle;fill:#71c837;fill-opacity:1;font-family:Varela Round;-inkscape-font-specification:Varela Round" />
        <path
           d="m 507.54151,481.74383 c 1.79199,0 3.50398,-0.448 5.136,-1.344 0.57598,-0.32 1.08798,-0.48 1.536,-0.48 0.44798,0 0.84798,0.208 1.2,0.624 0.35198,0.416 0.52798,0.912 0.528,1.488 -2e-5,0.576 -0.36802,1.104 -1.104,1.584 -2.27202,1.472 -4.83201,2.208 -7.68,2.208 -3.55201,0 -6.544,-1.12 -8.976,-3.36 -2.56,-2.368 -3.84,-5.48799 -3.84,-9.36 0,-3.87199 1.28,-6.99198 3.84,-9.36 2.432,-2.23998 5.42399,-3.35998 8.976,-3.36 1.91999,2e-5 3.48799,0.25602 4.704,0.768 1.24798,0.48002 2.23998,0.96002 2.976,1.44 0.73598,0.48002 1.10398,1.00802 1.104,1.584 -2e-5,0.57602 -0.17602,1.07202 -0.528,1.488 -0.35202,0.41602 -0.70402,0.62402 -1.056,0.624 -0.54402,2e-5 -1.10402,-0.15998 -1.68,-0.48 -1.63202,-0.89598 -3.34401,-1.34398 -5.136,-1.344 -2.81601,2e-5 -4.99201,0.80002 -6.528,2.4 -1.536,1.56801 -2.304,3.64801 -2.304,6.24 0,2.59201 0.768,4.688 2.304,6.288 1.53599,1.568 3.71199,2.352 6.528,2.352"
           id="path4531"
           style="font-variant:normal;font-stretch:normal;text-align:center;line-height:108.00000429%;writing-mode:lr-tb;text-anchor:middle;fill:#71c837;fill-opacity:1;font-family:Varela Round;-inkscape-font-specification:Varela Round" />
        <path
           d="m 532.61282,456.53578 c 3.71199,2e-5 6.68798,1.16802 8.928,3.504 2.23998,2.36802 3.35998,5.44001 3.36,9.216 -2e-5,3.77601 -1.12002,6.848 -3.36,9.216 -2.24002,2.336 -5.21601,3.504 -8.928,3.504 -3.74401,0 -6.72,-1.168 -8.928,-3.504 -2.24,-2.336 -3.36,-5.40799 -3.36,-9.216 0,-3.80799 1.12,-6.87998 3.36,-9.216 2.208,-2.33598 5.18399,-3.50398 8.928,-3.504 m -5.376,19.488 c 0.76799,0.672 1.61599,1.168 2.544,1.488 0.95999,0.32 1.88799,0.48 2.784,0.48 0.92799,0 1.85599,-0.16 2.784,-0.48 0.95999,-0.32 1.82398,-0.816 2.592,-1.488 1.72798,-1.568 2.59198,-3.83999 2.592,-6.816 -2e-5,-2.87999 -0.86402,-5.11999 -2.592,-6.72 -1.44001,-1.31198 -3.21601,-1.96798 -5.328,-1.968 -3.45601,2e-5 -5.85601,1.55202 -7.2,4.656 -0.48,1.12001 -0.72,2.48001 -0.72,4.08 0,1.56801 0.24,2.91201 0.72,4.032 0.48,1.12 1.088,2.032 1.824,2.736"
           id="path4533"
           style="font-variant:normal;font-stretch:normal;text-align:center;line-height:108.00000429%;writing-mode:lr-tb;text-anchor:middle;fill:#71c837;fill-opacity:1;font-family:Varela Round;-inkscape-font-specification:Varela Round" />
        <path
           d="m 549.48451,459.76213 c 0,-0.63998 0.208,-1.16798 0.624,-1.584 0.416,-0.41598 0.928,-0.62398 1.536,-0.624 0.64,2e-5 1.168,0.20802 1.584,0.624 0.416,0.41602 0.624,0.94402 0.624,1.584 l 0,20.592 c 0,0.608 -0.208,1.12 -0.624,1.536 -0.416,0.416 -0.944,0.624 -1.584,0.624 -0.608,0 -1.12,-0.208 -1.536,-0.624 -0.416,-0.416 -0.624,-0.928 -0.624,-1.536 l 0,-20.592 m 4.8,-9.408 c -10e-6,0.67203 -0.24001,1.24803 -0.72,1.728 -0.48,0.48003 -1.056,0.72003 -1.728,0.72 l -0.288,0 c -0.672,3e-5 -1.248,-0.23997 -1.728,-0.72 -0.48,-0.47997 -0.72,-1.05597 -0.72,-1.728 l 0,-0.192 c 0,-0.67197 0.24,-1.24797 0.72,-1.728 0.48,-0.47997 1.056,-0.71997 1.728,-0.72 l 0.288,0 c 0.672,3e-5 1.248,0.24003 1.728,0.72 0.47999,0.48003 0.71999,1.05603 0.72,1.728 l 0,0.192"
           id="path4535"
           style="font-variant:normal;font-stretch:normal;text-align:center;line-height:108.00000429%;writing-mode:lr-tb;text-anchor:middle;fill:#71c837;fill-opacity:1;font-family:Varela Round;-inkscape-font-specification:Varela Round" />
        <path
           d="m 574.41042,463.0147 c -2.81601,2e-5 -5.44001,1.53602 -7.872,4.608 l 0,14.4 c 0,0.608 -0.224,1.12 -0.672,1.536 -0.416,0.416 -0.928,0.624 -1.536,0.624 -0.608,0 -1.12,-0.208 -1.536,-0.624 -0.416,-0.416 -0.624,-0.928 -0.624,-1.536 l 0,-20.592 c 0,-0.63998 0.208,-1.16798 0.624,-1.584 0.416,-0.41598 0.928,-0.62398 1.536,-0.624 0.608,2e-5 1.12,0.20802 1.536,0.624 0.448,0.41602 0.672,0.94402 0.672,1.584 l 0,1.968 c 1.27999,-1.34398 2.38399,-2.28798 3.312,-2.832 1.82399,-1.05598 3.55199,-1.58398 5.184,-1.584 1.66399,2e-5 3.02398,0.25602 4.08,0.768 1.05598,0.48002 1.95198,1.15202 2.688,2.016 1.50398,1.76002 2.25598,3.96802 2.256,6.624 l 0,13.632 c -2e-5,0.608 -0.22402,1.12 -0.672,1.536 -0.41602,0.416 -0.92802,0.624 -1.536,0.624 -0.60802,0 -1.12002,-0.208 -1.536,-0.624 -0.41602,-0.416 -0.62402,-0.928 -0.624,-1.536 l 0,-13.152 c -2e-5,-1.82399 -0.41602,-3.24798 -1.248,-4.272 -0.80002,-1.05598 -2.14401,-1.58398 -4.032,-1.584"
           id="path4537"
           style="font-variant:normal;font-stretch:normal;text-align:center;line-height:108.00000429%;writing-mode:lr-tb;text-anchor:middle;fill:#71c837;fill-opacity:1;font-family:Varela Round;-inkscape-font-specification:Varela Round" />
        <path
           d="m 594.16894,473.01812 c -1.024,10e-6 -1.568,-0.46399 -1.632,-1.392 l -0.864,-15.84 0,-4.752 c 0,-0.70397 0.24,-1.29597 0.72,-1.776 0.48,-0.47997 1.072,-0.71997 1.776,-0.72 0.704,3e-5 1.28,0.24003 1.728,0.72 0.47999,0.48003 0.71999,1.07203 0.72,1.776 l 0,4.752 -0.864,15.84 c -0.064,0.92801 -0.592,1.39201 -1.584,1.392 m -2.832,6.624 c 0,-0.8 0.272,-1.472 0.816,-2.016 0.576,-0.576 1.248,-0.864 2.016,-0.864 0.8,0 1.472,0.288 2.016,0.864 0.57599,0.544 0.86399,1.216 0.864,2.016 -10e-6,0.768 -0.28801,1.44 -0.864,2.016 -0.544,0.544 -1.216,0.816 -2.016,0.816 -0.768,0 -1.44,-0.272 -2.016,-0.816 -0.544,-0.576 -0.816,-1.248 -0.816,-2.016"
           id="path4539"
           style="font-variant:normal;font-stretch:normal;text-align:center;line-height:108.00000429%;writing-mode:lr-tb;text-anchor:middle;fill:#71c837;fill-opacity:1;font-family:Varela Round;-inkscape-font-specification:Varela Round" />
      </g>
      <path
         d="m 583.93454,552.79189 c -0.608,3e-5 -1.11525,0.20828 -1.53125,0.65625 -0.416,0.41603 -0.625,0.95453 -0.625,1.5625 l 0,20.59375 -3.65625,0 a 1.650165,1.650165 0 0 0 -0.15625,0 1.650165,1.650165 0 0 0 0.15625,3.28125 l 3.65625,0 0,5.25 c 0,0.608 0.209,1.11525 0.625,1.53125 0.416,0.416 0.92325,0.625 1.53125,0.625 l 11.59375,0 c 4.28798,0 7.48323,-0.86575 9.53125,-2.59375 0.99198,-0.832 1.70823,-1.81675 2.15625,-2.96875 0.44797,-1.152 0.65622,-2.34575 0.65625,-3.59375 -3e-5,-1.24799 -0.17928,-2.32274 -0.53125,-3.21875 -0.99202,-2.33599 -2.99127,-4.00724 -6.03125,-5.03125 3.13598,-1.47199 4.68748,-3.95023 4.6875,-7.40625 -2e-5,-2.59198 -0.89477,-4.68123 -2.71875,-6.28125 -1.82402,-1.59997 -4.51127,-2.40622 -8.03125,-2.40625 l -11.3125,0 z m 2.1875,4.09375 8.8125,0 c 2.20798,2e-5 3.87848,0.44777 5.0625,1.34375 1.21598,0.89602 1.84373,2.08977 1.84375,3.59375 -2e-5,0.76802 -0.11977,1.48427 -0.34375,2.15625 -0.80002,2.20802 -3.27827,3.31251 -7.40625,3.3125 l -7.96875,0 0,-10.40625 z m 0,14.34375 9.03125,0 c 2.78398,1e-5 4.90373,0.41726 6.34375,1.28125 1.43998,0.86401 2.15623,2.26751 2.15625,4.1875 -2e-5,0.832 -0.14952,1.578 -0.4375,2.25 -0.86402,2.176 -3.54977,3.28125 -8.09375,3.28125 l -9,0 0,-3.34375 5.0625,0 a 1.650165,1.650165 0 1 0 0,-3.28125 l -5.0625,0 0,-4.375 z"
         id="path4558"
         style="font-size:48px;font-style:normal;font-variant:normal;font-weight:normal;font-stretch:normal;text-align:start;line-height:125%;letter-spacing:0px;word-spacing:0px;writing-mode:lr-tb;text-anchor:start;fill:#ff7e1f;fill-opacity:1;stroke:none;font-family:Varela Round;-inkscape-font-specification:Varela Round" />
      <path
         d="m 568.87204,535.76064 a 1.750175,1.750175 0 0 0 -1.40625,2.84375 l 6.5625,8.59375 a 1.7595998,1.7595998 0 1 0 2.78125,-2.15625 l -6.5625,-8.5625 a 1.750175,1.750175 0 0 0 -1.375,-0.71875 z"
         id="path4583"
         style="font-size:medium;font-style:normal;font-variant:normal;font-weight:normal;font-stretch:normal;text-indent:0;text-align:start;text-decoration:none;line-height:normal;letter-spacing:normal;word-spacing:normal;text-transform:none;direction:ltr;block-progression:tb;writing-mode:lr-tb;text-anchor:start;baseline-shift:baseline;color:#000000;fill:#71c837;fill-opacity:1;stroke:none;stroke-width:3.5;marker:none;visibility:visible;display:inline;overflow:visible;enable-background:accumulate;font-family:Sans;-inkscape-font-specification:Sans" />
      <path
         d="m 594.62204,530.63564 a 1.750175,1.750175 0 0 0 -1.5,1.8125 l 0.28125,10.28125 a 1.7506277,1.7506277 0 1 0 3.5,-0.0937 l -0.28125,-10.28125 a 1.750175,1.750175 0 0 0 -2,-1.71875 z"
         id="path4585"
         style="font-size:medium;font-style:normal;font-variant:normal;font-weight:normal;font-stretch:normal;text-indent:0;text-align:start;text-decoration:none;line-height:normal;letter-spacing:normal;word-spacing:normal;text-transform:none;direction:ltr;block-progression:tb;writing-mode:lr-tb;text-anchor:start;baseline-shift:baseline;color:#000000;fill:#71c837;fill-opacity:1;stroke:none;stroke-width:3.5;marker:none;visibility:visible;display:inline;overflow:visible;enable-background:accumulate;font-family:Sans;-inkscape-font-specification:Sans" />
      <path
         d="m 616.15329,537.19814 a 1.750175,1.750175 0 0 0 -1.15625,0.625 l -7.15625,8 a 1.750175,1.750175 0 1 0 2.625,2.3125 l 7.125,-8 a 1.750175,1.750175 0 0 0 -1.4375,-2.9375 z"
         id="path4587"
         style="font-size:medium;font-style:normal;font-variant:normal;font-weight:normal;font-stretch:normal;text-indent:0;text-align:start;text-decoration:none;line-height:normal;letter-spacing:normal;word-spacing:normal;text-transform:none;direction:ltr;block-progression:tb;writing-mode:lr-tb;text-anchor:start;baseline-shift:baseline;color:#000000;fill:#71c837;fill-opacity:1;stroke:none;stroke-width:3.5;marker:none;visibility:visible;display:inline;overflow:visible;enable-background:accumulate;font-family:Sans;-inkscape-font-specification:Sans" />
      <path
         d="m 573.34079,589.51064 a 1.750175,1.750175 0 0 0 -1.0625,0.4375 l -7.4375,6.28125 a 1.7625803,1.7625803 0 1 0 2.28125,2.6875 l 7.4375,-6.3125 a 1.750175,1.750175 0 0 0 -1.21875,-3.09375 z"
         id="path4589"
         style="font-size:medium;font-style:normal;font-variant:normal;font-weight:normal;font-stretch:normal;text-indent:0;text-align:start;text-decoration:none;line-height:normal;letter-spacing:normal;word-spacing:normal;text-transform:none;direction:ltr;block-progression:tb;writing-mode:lr-tb;text-anchor:start;baseline-shift:baseline;color:#000000;fill:#71c837;fill-opacity:1;stroke:none;stroke-width:3.5;marker:none;visibility:visible;display:inline;overflow:visible;enable-background:accumulate;font-family:Sans;-inkscape-font-specification:Sans" />
      <path
         d="m 590.77829,594.35439 a 1.750175,1.750175 0 0 0 -1.65625,1.5 l -2.28125,13.4375 a 1.750175,1.750175 0 1 0 3.4375,0.5625 l 2.3125,-13.40625 a 1.750175,1.750175 0 0 0 -1.8125,-2.09375 z"
         id="path4591"
         style="font-size:medium;font-style:normal;font-variant:normal;font-weight:normal;font-stretch:normal;text-indent:0;text-align:start;text-decoration:none;line-height:normal;letter-spacing:normal;word-spacing:normal;text-transform:none;direction:ltr;block-progression:tb;writing-mode:lr-tb;text-anchor:start;baseline-shift:baseline;color:#000000;fill:#71c837;fill-opacity:1;stroke:none;stroke-width:3.5;marker:none;visibility:visible;display:inline;overflow:visible;enable-background:accumulate;font-family:Sans;-inkscape-font-specification:Sans" />
      <path
         d="m 608.21579,592.07314 a 1.750175,1.750175 0 0 0 -1.125,3.0625 l 10.28125,9.71875 a 1.7575868,1.7575868 0 1 0 2.40625,-2.5625 l -10.28125,-9.71875 a 1.750175,1.750175 0 0 0 -1.28125,-0.5 z"
         id="path4593"
         style="font-size:medium;font-style:normal;font-variant:normal;font-weight:normal;font-stretch:normal;text-indent:0;text-align:start;text-decoration:none;line-height:normal;letter-spacing:normal;word-spacing:normal;text-transform:none;direction:ltr;block-progression:tb;writing-mode:lr-tb;text-anchor:start;baseline-shift:baseline;color:#000000;fill:#71c837;fill-opacity:1;stroke:none;stroke-width:3.5;marker:none;visibility:visible;display:inline;overflow:visible;enable-background:accumulate;font-family:Sans;-inkscape-font-specification:Sans" />
    </g>
  </g>
</svg>
